G04 #@! TF.FileFunction,Legend,Bot*
%FSLAX46Y46*%
G04 Gerber Fmt 4.6, Leading zero omitted, Abs format (unit mm)*
G04 Created by KiCad (PCBNEW 4.0.7) date Mon May 14 02:01:04 2018*
%MOMM*%
%LPD*%
G01*
G04 APERTURE LIST*
%ADD10C,0.100000*%
%ADD11C,0.010000*%
G04 APERTURE END LIST*
D10*
D11*
G36*
X137700969Y-105900387D02*
X137304505Y-105911314D01*
X136784998Y-105930202D01*
X136157663Y-105956220D01*
X135437714Y-105988537D01*
X134640365Y-106026323D01*
X133780830Y-106068749D01*
X132874324Y-106114983D01*
X131936062Y-106164195D01*
X130981257Y-106215555D01*
X130025123Y-106268233D01*
X129082876Y-106321398D01*
X128169729Y-106374220D01*
X127300896Y-106425868D01*
X126491592Y-106475512D01*
X125757032Y-106522323D01*
X125112429Y-106565468D01*
X124572997Y-106604119D01*
X124153951Y-106637445D01*
X123870506Y-106664615D01*
X123737875Y-106684799D01*
X123730698Y-106687996D01*
X123698447Y-106741884D01*
X123672421Y-106854881D01*
X123652019Y-107042528D01*
X123636639Y-107320366D01*
X123625682Y-107703939D01*
X123618547Y-108208786D01*
X123614634Y-108850451D01*
X123613341Y-109644474D01*
X123613333Y-109725244D01*
X123613648Y-110508690D01*
X123615244Y-111140299D01*
X123619104Y-111637569D01*
X123626208Y-112017994D01*
X123637536Y-112299073D01*
X123654069Y-112498301D01*
X123676788Y-112633175D01*
X123706673Y-112721191D01*
X123744705Y-112779846D01*
X123786908Y-112822172D01*
X123926467Y-112921930D01*
X124067361Y-112925480D01*
X124231408Y-112866773D01*
X124914258Y-112631763D01*
X125572522Y-112497354D01*
X126161544Y-112472195D01*
X126238000Y-112478077D01*
X126937067Y-112618701D01*
X127539124Y-112893227D01*
X128036913Y-113291965D01*
X128423177Y-113805228D01*
X128690660Y-114423327D01*
X128832103Y-115136572D01*
X128840249Y-115935275D01*
X128839109Y-115950650D01*
X128713136Y-116659328D01*
X128455279Y-117291055D01*
X128077512Y-117827371D01*
X127591805Y-118249816D01*
X127211666Y-118460086D01*
X126693794Y-118620403D01*
X126097098Y-118693063D01*
X125488894Y-118675947D01*
X124936500Y-118566933D01*
X124841000Y-118534778D01*
X124370888Y-118378854D01*
X124035526Y-118305339D01*
X123822717Y-118312500D01*
X123731284Y-118377071D01*
X123705116Y-118504216D01*
X123687444Y-118767832D01*
X123677644Y-119137811D01*
X123675093Y-119584047D01*
X123679168Y-120076434D01*
X123689246Y-120584866D01*
X123704704Y-121079237D01*
X123724918Y-121529441D01*
X123749266Y-121905371D01*
X123777124Y-122176922D01*
X123807870Y-122313987D01*
X123812920Y-122321326D01*
X123898400Y-122365579D01*
X124127992Y-122474482D01*
X124491410Y-122643393D01*
X124978370Y-122867671D01*
X125578589Y-123142674D01*
X126281780Y-123463761D01*
X127077660Y-123826289D01*
X127955945Y-124225618D01*
X128906350Y-124657106D01*
X129918591Y-125116110D01*
X130982383Y-125597990D01*
X132087443Y-126098103D01*
X133223484Y-126611809D01*
X134380224Y-127134465D01*
X135547378Y-127661430D01*
X136714662Y-128188062D01*
X137871790Y-128709720D01*
X139008479Y-129221762D01*
X140114445Y-129719546D01*
X141179402Y-130198431D01*
X142193066Y-130653775D01*
X143145154Y-131080937D01*
X144025381Y-131475274D01*
X144823462Y-131832146D01*
X145529112Y-132146911D01*
X146132048Y-132414926D01*
X146621986Y-132631551D01*
X146988640Y-132792143D01*
X147221727Y-132892062D01*
X147310961Y-132926665D01*
X147311037Y-132926666D01*
X147413823Y-132870401D01*
X147518544Y-132771833D01*
X147541903Y-132735834D01*
X147562530Y-132675932D01*
X147580591Y-132582125D01*
X147596255Y-132444413D01*
X147609687Y-132252793D01*
X147621055Y-131997264D01*
X147630525Y-131667825D01*
X147638263Y-131254474D01*
X147644438Y-130747209D01*
X147649215Y-130136030D01*
X147652761Y-129410934D01*
X147655242Y-128561921D01*
X147656827Y-127578988D01*
X147657681Y-126452134D01*
X147657971Y-125171358D01*
X147657952Y-124410999D01*
X147657275Y-116620702D01*
X146896666Y-116620702D01*
X146896666Y-131912939D01*
X146621500Y-131795167D01*
X146511831Y-131746528D01*
X146257066Y-131632521D01*
X145866500Y-131457327D01*
X145349429Y-131225127D01*
X144715148Y-130940101D01*
X143972953Y-130606430D01*
X143132139Y-130228295D01*
X142202002Y-129809875D01*
X141191836Y-129355352D01*
X140110939Y-128868907D01*
X138968604Y-128354719D01*
X137774128Y-127816970D01*
X136536805Y-127259840D01*
X136101666Y-127063889D01*
X134842759Y-126496926D01*
X133617809Y-125945187D01*
X132436622Y-125413092D01*
X131309005Y-124905062D01*
X130244765Y-124425516D01*
X129253707Y-123978875D01*
X128345638Y-123569559D01*
X127530364Y-123201990D01*
X126817693Y-122880587D01*
X126217429Y-122609771D01*
X125739381Y-122393961D01*
X125393353Y-122237580D01*
X125189153Y-122145046D01*
X125158500Y-122131075D01*
X124460000Y-121811768D01*
X124460000Y-120629159D01*
X124461627Y-120160452D01*
X124468575Y-119836725D01*
X124483942Y-119633638D01*
X124510829Y-119526852D01*
X124552333Y-119492028D01*
X124603570Y-119501642D01*
X124754900Y-119541243D01*
X125019211Y-119594023D01*
X125341861Y-119649156D01*
X125372406Y-119653943D01*
X126186108Y-119705586D01*
X126969196Y-119611081D01*
X127701081Y-119379727D01*
X128361174Y-119020823D01*
X128928886Y-118543668D01*
X129383629Y-117957560D01*
X129473714Y-117801635D01*
X129742391Y-117152255D01*
X129908368Y-116412652D01*
X129971063Y-115627266D01*
X129929890Y-114840538D01*
X129784267Y-114096908D01*
X129533609Y-113440818D01*
X129531053Y-113435796D01*
X129281419Y-113051259D01*
X128932779Y-112648649D01*
X128538884Y-112282963D01*
X128153487Y-112009196D01*
X128116411Y-111988407D01*
X127498928Y-111731396D01*
X126790240Y-111567259D01*
X126044532Y-111502064D01*
X125315991Y-111541880D01*
X124880732Y-111626058D01*
X124625560Y-111687611D01*
X124447951Y-111721700D01*
X124395107Y-111723329D01*
X124389688Y-111635992D01*
X124386549Y-111402619D01*
X124385691Y-111046495D01*
X124387117Y-110590901D01*
X124390826Y-110059120D01*
X124394993Y-109634646D01*
X124417666Y-107568750D01*
X146896666Y-116620702D01*
X147657275Y-116620702D01*
X147657238Y-116205000D01*
X142910366Y-111082666D01*
X142179930Y-110295083D01*
X141481443Y-109543166D01*
X140823610Y-108836216D01*
X140215139Y-108183532D01*
X139664734Y-107594414D01*
X139181103Y-107078163D01*
X138772952Y-106644078D01*
X138448986Y-106301458D01*
X138217911Y-106059604D01*
X138088434Y-105927815D01*
X138063913Y-105905735D01*
X137959177Y-105898251D01*
X137700969Y-105900387D01*
X137700969Y-105900387D01*
G37*
X137700969Y-105900387D02*
X137304505Y-105911314D01*
X136784998Y-105930202D01*
X136157663Y-105956220D01*
X135437714Y-105988537D01*
X134640365Y-106026323D01*
X133780830Y-106068749D01*
X132874324Y-106114983D01*
X131936062Y-106164195D01*
X130981257Y-106215555D01*
X130025123Y-106268233D01*
X129082876Y-106321398D01*
X128169729Y-106374220D01*
X127300896Y-106425868D01*
X126491592Y-106475512D01*
X125757032Y-106522323D01*
X125112429Y-106565468D01*
X124572997Y-106604119D01*
X124153951Y-106637445D01*
X123870506Y-106664615D01*
X123737875Y-106684799D01*
X123730698Y-106687996D01*
X123698447Y-106741884D01*
X123672421Y-106854881D01*
X123652019Y-107042528D01*
X123636639Y-107320366D01*
X123625682Y-107703939D01*
X123618547Y-108208786D01*
X123614634Y-108850451D01*
X123613341Y-109644474D01*
X123613333Y-109725244D01*
X123613648Y-110508690D01*
X123615244Y-111140299D01*
X123619104Y-111637569D01*
X123626208Y-112017994D01*
X123637536Y-112299073D01*
X123654069Y-112498301D01*
X123676788Y-112633175D01*
X123706673Y-112721191D01*
X123744705Y-112779846D01*
X123786908Y-112822172D01*
X123926467Y-112921930D01*
X124067361Y-112925480D01*
X124231408Y-112866773D01*
X124914258Y-112631763D01*
X125572522Y-112497354D01*
X126161544Y-112472195D01*
X126238000Y-112478077D01*
X126937067Y-112618701D01*
X127539124Y-112893227D01*
X128036913Y-113291965D01*
X128423177Y-113805228D01*
X128690660Y-114423327D01*
X128832103Y-115136572D01*
X128840249Y-115935275D01*
X128839109Y-115950650D01*
X128713136Y-116659328D01*
X128455279Y-117291055D01*
X128077512Y-117827371D01*
X127591805Y-118249816D01*
X127211666Y-118460086D01*
X126693794Y-118620403D01*
X126097098Y-118693063D01*
X125488894Y-118675947D01*
X124936500Y-118566933D01*
X124841000Y-118534778D01*
X124370888Y-118378854D01*
X124035526Y-118305339D01*
X123822717Y-118312500D01*
X123731284Y-118377071D01*
X123705116Y-118504216D01*
X123687444Y-118767832D01*
X123677644Y-119137811D01*
X123675093Y-119584047D01*
X123679168Y-120076434D01*
X123689246Y-120584866D01*
X123704704Y-121079237D01*
X123724918Y-121529441D01*
X123749266Y-121905371D01*
X123777124Y-122176922D01*
X123807870Y-122313987D01*
X123812920Y-122321326D01*
X123898400Y-122365579D01*
X124127992Y-122474482D01*
X124491410Y-122643393D01*
X124978370Y-122867671D01*
X125578589Y-123142674D01*
X126281780Y-123463761D01*
X127077660Y-123826289D01*
X127955945Y-124225618D01*
X128906350Y-124657106D01*
X129918591Y-125116110D01*
X130982383Y-125597990D01*
X132087443Y-126098103D01*
X133223484Y-126611809D01*
X134380224Y-127134465D01*
X135547378Y-127661430D01*
X136714662Y-128188062D01*
X137871790Y-128709720D01*
X139008479Y-129221762D01*
X140114445Y-129719546D01*
X141179402Y-130198431D01*
X142193066Y-130653775D01*
X143145154Y-131080937D01*
X144025381Y-131475274D01*
X144823462Y-131832146D01*
X145529112Y-132146911D01*
X146132048Y-132414926D01*
X146621986Y-132631551D01*
X146988640Y-132792143D01*
X147221727Y-132892062D01*
X147310961Y-132926665D01*
X147311037Y-132926666D01*
X147413823Y-132870401D01*
X147518544Y-132771833D01*
X147541903Y-132735834D01*
X147562530Y-132675932D01*
X147580591Y-132582125D01*
X147596255Y-132444413D01*
X147609687Y-132252793D01*
X147621055Y-131997264D01*
X147630525Y-131667825D01*
X147638263Y-131254474D01*
X147644438Y-130747209D01*
X147649215Y-130136030D01*
X147652761Y-129410934D01*
X147655242Y-128561921D01*
X147656827Y-127578988D01*
X147657681Y-126452134D01*
X147657971Y-125171358D01*
X147657952Y-124410999D01*
X147657275Y-116620702D01*
X146896666Y-116620702D01*
X146896666Y-131912939D01*
X146621500Y-131795167D01*
X146511831Y-131746528D01*
X146257066Y-131632521D01*
X145866500Y-131457327D01*
X145349429Y-131225127D01*
X144715148Y-130940101D01*
X143972953Y-130606430D01*
X143132139Y-130228295D01*
X142202002Y-129809875D01*
X141191836Y-129355352D01*
X140110939Y-128868907D01*
X138968604Y-128354719D01*
X137774128Y-127816970D01*
X136536805Y-127259840D01*
X136101666Y-127063889D01*
X134842759Y-126496926D01*
X133617809Y-125945187D01*
X132436622Y-125413092D01*
X131309005Y-124905062D01*
X130244765Y-124425516D01*
X129253707Y-123978875D01*
X128345638Y-123569559D01*
X127530364Y-123201990D01*
X126817693Y-122880587D01*
X126217429Y-122609771D01*
X125739381Y-122393961D01*
X125393353Y-122237580D01*
X125189153Y-122145046D01*
X125158500Y-122131075D01*
X124460000Y-121811768D01*
X124460000Y-120629159D01*
X124461627Y-120160452D01*
X124468575Y-119836725D01*
X124483942Y-119633638D01*
X124510829Y-119526852D01*
X124552333Y-119492028D01*
X124603570Y-119501642D01*
X124754900Y-119541243D01*
X125019211Y-119594023D01*
X125341861Y-119649156D01*
X125372406Y-119653943D01*
X126186108Y-119705586D01*
X126969196Y-119611081D01*
X127701081Y-119379727D01*
X128361174Y-119020823D01*
X128928886Y-118543668D01*
X129383629Y-117957560D01*
X129473714Y-117801635D01*
X129742391Y-117152255D01*
X129908368Y-116412652D01*
X129971063Y-115627266D01*
X129929890Y-114840538D01*
X129784267Y-114096908D01*
X129533609Y-113440818D01*
X129531053Y-113435796D01*
X129281419Y-113051259D01*
X128932779Y-112648649D01*
X128538884Y-112282963D01*
X128153487Y-112009196D01*
X128116411Y-111988407D01*
X127498928Y-111731396D01*
X126790240Y-111567259D01*
X126044532Y-111502064D01*
X125315991Y-111541880D01*
X124880732Y-111626058D01*
X124625560Y-111687611D01*
X124447951Y-111721700D01*
X124395107Y-111723329D01*
X124389688Y-111635992D01*
X124386549Y-111402619D01*
X124385691Y-111046495D01*
X124387117Y-110590901D01*
X124390826Y-110059120D01*
X124394993Y-109634646D01*
X124417666Y-107568750D01*
X146896666Y-116620702D01*
X147657275Y-116620702D01*
X147657238Y-116205000D01*
X142910366Y-111082666D01*
X142179930Y-110295083D01*
X141481443Y-109543166D01*
X140823610Y-108836216D01*
X140215139Y-108183532D01*
X139664734Y-107594414D01*
X139181103Y-107078163D01*
X138772952Y-106644078D01*
X138448986Y-106301458D01*
X138217911Y-106059604D01*
X138088434Y-105927815D01*
X138063913Y-105905735D01*
X137959177Y-105898251D01*
X137700969Y-105900387D01*
G36*
X126962750Y-128620491D02*
X126861182Y-128674656D01*
X126757107Y-128799195D01*
X126626759Y-129022145D01*
X126457518Y-129349500D01*
X126082543Y-130090333D01*
X125737648Y-129349500D01*
X125576093Y-129007971D01*
X125460071Y-128791788D01*
X125364682Y-128672306D01*
X125265027Y-128620881D01*
X125136206Y-128608868D01*
X125093662Y-128608666D01*
X124794572Y-128608666D01*
X124841000Y-131445000D01*
X125116166Y-131471531D01*
X125391333Y-131498062D01*
X125395406Y-130709531D01*
X125399478Y-129921000D01*
X125650763Y-130407833D01*
X125847984Y-130733412D01*
X126024503Y-130893072D01*
X126190518Y-130887383D01*
X126356224Y-130716915D01*
X126498694Y-130455287D01*
X126703666Y-130015909D01*
X126746000Y-130730454D01*
X126788333Y-131445000D01*
X127063500Y-131471531D01*
X127338666Y-131498062D01*
X127338666Y-128608666D01*
X127085580Y-128608666D01*
X126962750Y-128620491D01*
X126962750Y-128620491D01*
G37*
X126962750Y-128620491D02*
X126861182Y-128674656D01*
X126757107Y-128799195D01*
X126626759Y-129022145D01*
X126457518Y-129349500D01*
X126082543Y-130090333D01*
X125737648Y-129349500D01*
X125576093Y-129007971D01*
X125460071Y-128791788D01*
X125364682Y-128672306D01*
X125265027Y-128620881D01*
X125136206Y-128608868D01*
X125093662Y-128608666D01*
X124794572Y-128608666D01*
X124841000Y-131445000D01*
X125116166Y-131471531D01*
X125391333Y-131498062D01*
X125395406Y-130709531D01*
X125399478Y-129921000D01*
X125650763Y-130407833D01*
X125847984Y-130733412D01*
X126024503Y-130893072D01*
X126190518Y-130887383D01*
X126356224Y-130716915D01*
X126498694Y-130455287D01*
X126703666Y-130015909D01*
X126746000Y-130730454D01*
X126788333Y-131445000D01*
X127063500Y-131471531D01*
X127338666Y-131498062D01*
X127338666Y-128608666D01*
X127085580Y-128608666D01*
X126962750Y-128620491D01*
G36*
X123698000Y-131487333D02*
X123937889Y-131487333D01*
X124131797Y-131469200D01*
X124234222Y-131430888D01*
X124256281Y-131328692D01*
X124274302Y-131092644D01*
X124286393Y-130758212D01*
X124290666Y-130372555D01*
X124290666Y-129370666D01*
X123698000Y-129370666D01*
X123698000Y-131487333D01*
X123698000Y-131487333D01*
G37*
X123698000Y-131487333D02*
X123937889Y-131487333D01*
X124131797Y-131469200D01*
X124234222Y-131430888D01*
X124256281Y-131328692D01*
X124274302Y-131092644D01*
X124286393Y-130758212D01*
X124290666Y-130372555D01*
X124290666Y-129370666D01*
X123698000Y-129370666D01*
X123698000Y-131487333D01*
G36*
X122012196Y-129422481D02*
X121848800Y-129506230D01*
X121718381Y-129613478D01*
X121719535Y-129702777D01*
X121799882Y-129801604D01*
X121945353Y-129907222D01*
X122147744Y-129924887D01*
X122269018Y-129909524D01*
X122485376Y-129887686D01*
X122599927Y-129933079D01*
X122675610Y-130073789D01*
X122683594Y-130094525D01*
X122743230Y-130392305D01*
X122704538Y-130656136D01*
X122586976Y-130851436D01*
X122410003Y-130943625D01*
X122222967Y-130913094D01*
X122060240Y-130869609D01*
X121922491Y-130936349D01*
X121835916Y-131021046D01*
X121648883Y-131220133D01*
X121907237Y-131353733D01*
X122293880Y-131473510D01*
X122675708Y-131425988D01*
X122733806Y-131404354D01*
X123017233Y-131203195D01*
X123203914Y-130885037D01*
X123274528Y-130483477D01*
X123274666Y-130463899D01*
X123253413Y-130167816D01*
X123199980Y-129906300D01*
X123173516Y-129833967D01*
X122977877Y-129591131D01*
X122682847Y-129432633D01*
X122342822Y-129371931D01*
X122012196Y-129422481D01*
X122012196Y-129422481D01*
G37*
X122012196Y-129422481D02*
X121848800Y-129506230D01*
X121718381Y-129613478D01*
X121719535Y-129702777D01*
X121799882Y-129801604D01*
X121945353Y-129907222D01*
X122147744Y-129924887D01*
X122269018Y-129909524D01*
X122485376Y-129887686D01*
X122599927Y-129933079D01*
X122675610Y-130073789D01*
X122683594Y-130094525D01*
X122743230Y-130392305D01*
X122704538Y-130656136D01*
X122586976Y-130851436D01*
X122410003Y-130943625D01*
X122222967Y-130913094D01*
X122060240Y-130869609D01*
X121922491Y-130936349D01*
X121835916Y-131021046D01*
X121648883Y-131220133D01*
X121907237Y-131353733D01*
X122293880Y-131473510D01*
X122675708Y-131425988D01*
X122733806Y-131404354D01*
X123017233Y-131203195D01*
X123203914Y-130885037D01*
X123274528Y-130483477D01*
X123274666Y-130463899D01*
X123253413Y-130167816D01*
X123199980Y-129906300D01*
X123173516Y-129833967D01*
X122977877Y-129591131D01*
X122682847Y-129432633D01*
X122342822Y-129371931D01*
X122012196Y-129422481D01*
G36*
X120893759Y-129400163D02*
X120819335Y-129471846D01*
X120819333Y-129472266D01*
X120794343Y-129531171D01*
X120717733Y-129472266D01*
X120551652Y-129397035D01*
X120308686Y-129373766D01*
X120066923Y-129401261D01*
X119904451Y-129478324D01*
X119898666Y-129484814D01*
X119874653Y-129618689D01*
X119976335Y-129757628D01*
X120164309Y-129869061D01*
X120399171Y-129920416D01*
X120426362Y-129921000D01*
X120692333Y-129921000D01*
X120734666Y-130683000D01*
X120777000Y-131445000D01*
X121052166Y-131471531D01*
X121327333Y-131498062D01*
X121327333Y-129370666D01*
X121073333Y-129370666D01*
X120893759Y-129400163D01*
X120893759Y-129400163D01*
G37*
X120893759Y-129400163D02*
X120819335Y-129471846D01*
X120819333Y-129472266D01*
X120794343Y-129531171D01*
X120717733Y-129472266D01*
X120551652Y-129397035D01*
X120308686Y-129373766D01*
X120066923Y-129401261D01*
X119904451Y-129478324D01*
X119898666Y-129484814D01*
X119874653Y-129618689D01*
X119976335Y-129757628D01*
X120164309Y-129869061D01*
X120399171Y-129920416D01*
X120426362Y-129921000D01*
X120692333Y-129921000D01*
X120734666Y-130683000D01*
X120777000Y-131445000D01*
X121052166Y-131471531D01*
X121327333Y-131498062D01*
X121327333Y-129370666D01*
X121073333Y-129370666D01*
X120893759Y-129400163D01*
G36*
X118428991Y-129445473D02*
X118174862Y-129645825D01*
X117992157Y-129935622D01*
X117891369Y-130278765D01*
X117882990Y-130639151D01*
X117977511Y-130980682D01*
X118185425Y-131267255D01*
X118191282Y-131272604D01*
X118435605Y-131401252D01*
X118753612Y-131455840D01*
X119062964Y-131428118D01*
X119201347Y-131373788D01*
X119455951Y-131141240D01*
X119596633Y-130797029D01*
X119631000Y-130445962D01*
X119623150Y-130374667D01*
X119093623Y-130374667D01*
X119067917Y-130636735D01*
X118961685Y-130866257D01*
X118808407Y-130972745D01*
X118646085Y-130943417D01*
X118536312Y-130815566D01*
X118465102Y-130581331D01*
X118454665Y-130310290D01*
X118501992Y-130074817D01*
X118571599Y-129966708D01*
X118755208Y-129891788D01*
X118918637Y-129955356D01*
X119039052Y-130126590D01*
X119093623Y-130374667D01*
X119623150Y-130374667D01*
X119580070Y-129983461D01*
X119419886Y-129649670D01*
X119151018Y-129445278D01*
X118774035Y-129370978D01*
X118744053Y-129370666D01*
X118428991Y-129445473D01*
X118428991Y-129445473D01*
G37*
X118428991Y-129445473D02*
X118174862Y-129645825D01*
X117992157Y-129935622D01*
X117891369Y-130278765D01*
X117882990Y-130639151D01*
X117977511Y-130980682D01*
X118185425Y-131267255D01*
X118191282Y-131272604D01*
X118435605Y-131401252D01*
X118753612Y-131455840D01*
X119062964Y-131428118D01*
X119201347Y-131373788D01*
X119455951Y-131141240D01*
X119596633Y-130797029D01*
X119631000Y-130445962D01*
X119623150Y-130374667D01*
X119093623Y-130374667D01*
X119067917Y-130636735D01*
X118961685Y-130866257D01*
X118808407Y-130972745D01*
X118646085Y-130943417D01*
X118536312Y-130815566D01*
X118465102Y-130581331D01*
X118454665Y-130310290D01*
X118501992Y-130074817D01*
X118571599Y-129966708D01*
X118755208Y-129891788D01*
X118918637Y-129955356D01*
X119039052Y-130126590D01*
X119093623Y-130374667D01*
X119623150Y-130374667D01*
X119580070Y-129983461D01*
X119419886Y-129649670D01*
X119151018Y-129445278D01*
X118774035Y-129370978D01*
X118744053Y-129370666D01*
X118428991Y-129445473D01*
G36*
X116999092Y-129400163D02*
X116924669Y-129471846D01*
X116924666Y-129472266D01*
X116899676Y-129531171D01*
X116823066Y-129472266D01*
X116635219Y-129387652D01*
X116363442Y-129381578D01*
X116073926Y-129454237D01*
X116037354Y-129469970D01*
X115848792Y-129526896D01*
X115726414Y-129476107D01*
X115720103Y-129469970D01*
X115523094Y-129377872D01*
X115251797Y-129371636D01*
X114973144Y-129443682D01*
X114761818Y-129578484D01*
X114666851Y-129685730D01*
X114606205Y-129804129D01*
X114572261Y-129972676D01*
X114557401Y-130230365D01*
X114554005Y-130616192D01*
X114554000Y-130642182D01*
X114554000Y-131498062D01*
X114829166Y-131471531D01*
X115104333Y-131445000D01*
X115146666Y-130683854D01*
X115171905Y-130314440D01*
X115202980Y-130082219D01*
X115247803Y-129955065D01*
X115314284Y-129900851D01*
X115341234Y-129893696D01*
X115518148Y-129895963D01*
X115636946Y-129995879D01*
X115706711Y-130213624D01*
X115736528Y-130569380D01*
X115739333Y-130778033D01*
X115739333Y-131487333D01*
X116247333Y-131487333D01*
X116247333Y-130900178D01*
X116271019Y-130411782D01*
X116342789Y-130082647D01*
X116463712Y-129909359D01*
X116566971Y-129878666D01*
X116730145Y-129910465D01*
X116837091Y-130022876D01*
X116897888Y-130241425D01*
X116922614Y-130591635D01*
X116924666Y-130784600D01*
X116924666Y-131487333D01*
X117432666Y-131487333D01*
X117432666Y-129370666D01*
X117178666Y-129370666D01*
X116999092Y-129400163D01*
X116999092Y-129400163D01*
G37*
X116999092Y-129400163D02*
X116924669Y-129471846D01*
X116924666Y-129472266D01*
X116899676Y-129531171D01*
X116823066Y-129472266D01*
X116635219Y-129387652D01*
X116363442Y-129381578D01*
X116073926Y-129454237D01*
X116037354Y-129469970D01*
X115848792Y-129526896D01*
X115726414Y-129476107D01*
X115720103Y-129469970D01*
X115523094Y-129377872D01*
X115251797Y-129371636D01*
X114973144Y-129443682D01*
X114761818Y-129578484D01*
X114666851Y-129685730D01*
X114606205Y-129804129D01*
X114572261Y-129972676D01*
X114557401Y-130230365D01*
X114554005Y-130616192D01*
X114554000Y-130642182D01*
X114554000Y-131498062D01*
X114829166Y-131471531D01*
X115104333Y-131445000D01*
X115146666Y-130683854D01*
X115171905Y-130314440D01*
X115202980Y-130082219D01*
X115247803Y-129955065D01*
X115314284Y-129900851D01*
X115341234Y-129893696D01*
X115518148Y-129895963D01*
X115636946Y-129995879D01*
X115706711Y-130213624D01*
X115736528Y-130569380D01*
X115739333Y-130778033D01*
X115739333Y-131487333D01*
X116247333Y-131487333D01*
X116247333Y-130900178D01*
X116271019Y-130411782D01*
X116342789Y-130082647D01*
X116463712Y-129909359D01*
X116566971Y-129878666D01*
X116730145Y-129910465D01*
X116837091Y-130022876D01*
X116897888Y-130241425D01*
X116922614Y-130591635D01*
X116924666Y-130784600D01*
X116924666Y-131487333D01*
X117432666Y-131487333D01*
X117432666Y-129370666D01*
X117178666Y-129370666D01*
X116999092Y-129400163D01*
G36*
X112910451Y-129428702D02*
X112637331Y-129607130D01*
X112468986Y-129912428D01*
X112400214Y-130351073D01*
X112397987Y-130485632D01*
X112412515Y-130792230D01*
X112464440Y-130993288D01*
X112573149Y-131151642D01*
X112617902Y-131198386D01*
X112895665Y-131377510D01*
X113233764Y-131458613D01*
X113562495Y-131430378D01*
X113698014Y-131373788D01*
X113952617Y-131141240D01*
X114093299Y-130797029D01*
X114127666Y-130445962D01*
X114124639Y-130419287D01*
X113538000Y-130419287D01*
X113522194Y-130716912D01*
X113461021Y-130884194D01*
X113333848Y-130958308D01*
X113230867Y-130972649D01*
X113100880Y-130920073D01*
X113035193Y-130858590D01*
X112969437Y-130681679D01*
X112959476Y-130429274D01*
X112998469Y-130172087D01*
X113079574Y-129980831D01*
X113124325Y-129937315D01*
X113323098Y-129871025D01*
X113457505Y-129961149D01*
X113527267Y-130207360D01*
X113538000Y-130419287D01*
X114124639Y-130419287D01*
X114075754Y-129988577D01*
X113916389Y-129651772D01*
X113655543Y-129443241D01*
X113299184Y-129370680D01*
X113293550Y-129370666D01*
X112910451Y-129428702D01*
X112910451Y-129428702D01*
G37*
X112910451Y-129428702D02*
X112637331Y-129607130D01*
X112468986Y-129912428D01*
X112400214Y-130351073D01*
X112397987Y-130485632D01*
X112412515Y-130792230D01*
X112464440Y-130993288D01*
X112573149Y-131151642D01*
X112617902Y-131198386D01*
X112895665Y-131377510D01*
X113233764Y-131458613D01*
X113562495Y-131430378D01*
X113698014Y-131373788D01*
X113952617Y-131141240D01*
X114093299Y-130797029D01*
X114127666Y-130445962D01*
X114124639Y-130419287D01*
X113538000Y-130419287D01*
X113522194Y-130716912D01*
X113461021Y-130884194D01*
X113333848Y-130958308D01*
X113230867Y-130972649D01*
X113100880Y-130920073D01*
X113035193Y-130858590D01*
X112969437Y-130681679D01*
X112959476Y-130429274D01*
X112998469Y-130172087D01*
X113079574Y-129980831D01*
X113124325Y-129937315D01*
X113323098Y-129871025D01*
X113457505Y-129961149D01*
X113527267Y-130207360D01*
X113538000Y-130419287D01*
X114124639Y-130419287D01*
X114075754Y-129988577D01*
X113916389Y-129651772D01*
X113655543Y-129443241D01*
X113299184Y-129370680D01*
X113293550Y-129370666D01*
X112910451Y-129428702D01*
G36*
X111403537Y-130097440D02*
X111373707Y-130529181D01*
X111312826Y-130809429D01*
X111212579Y-130954492D01*
X111064649Y-130980677D01*
X110967175Y-130953131D01*
X110899419Y-130898617D01*
X110857415Y-130776813D01*
X110835688Y-130555399D01*
X110828766Y-130202057D01*
X110828666Y-130135323D01*
X110828666Y-129370666D01*
X110236000Y-129370666D01*
X110236000Y-131487333D01*
X110490000Y-131487333D01*
X110668351Y-131463413D01*
X110743981Y-131405780D01*
X110744000Y-131404762D01*
X110811348Y-131364937D01*
X110961178Y-131404762D01*
X111272579Y-131480523D01*
X111527071Y-131427064D01*
X111728008Y-131288248D01*
X111834087Y-131188100D01*
X111901890Y-131082220D01*
X111940339Y-130931658D01*
X111958354Y-130697464D01*
X111964857Y-130340688D01*
X111965562Y-130251081D01*
X111971666Y-129413000D01*
X111699871Y-129386720D01*
X111428075Y-129360440D01*
X111403537Y-130097440D01*
X111403537Y-130097440D01*
G37*
X111403537Y-130097440D02*
X111373707Y-130529181D01*
X111312826Y-130809429D01*
X111212579Y-130954492D01*
X111064649Y-130980677D01*
X110967175Y-130953131D01*
X110899419Y-130898617D01*
X110857415Y-130776813D01*
X110835688Y-130555399D01*
X110828766Y-130202057D01*
X110828666Y-130135323D01*
X110828666Y-129370666D01*
X110236000Y-129370666D01*
X110236000Y-131487333D01*
X110490000Y-131487333D01*
X110668351Y-131463413D01*
X110743981Y-131405780D01*
X110744000Y-131404762D01*
X110811348Y-131364937D01*
X110961178Y-131404762D01*
X111272579Y-131480523D01*
X111527071Y-131427064D01*
X111728008Y-131288248D01*
X111834087Y-131188100D01*
X111901890Y-131082220D01*
X111940339Y-130931658D01*
X111958354Y-130697464D01*
X111964857Y-130340688D01*
X111965562Y-130251081D01*
X111971666Y-129413000D01*
X111699871Y-129386720D01*
X111428075Y-129360440D01*
X111403537Y-130097440D01*
G36*
X108727036Y-129392959D02*
X108473109Y-129448538D01*
X108418256Y-129469558D01*
X108201211Y-129568451D01*
X108379940Y-129758698D01*
X108535911Y-129887172D01*
X108697705Y-129895224D01*
X108806436Y-129862574D01*
X109033290Y-129819587D01*
X109178503Y-129879360D01*
X109262818Y-130008020D01*
X109194783Y-130101004D01*
X109015971Y-130132666D01*
X108665139Y-130187262D01*
X108379030Y-130334029D01*
X108208172Y-130545927D01*
X108158140Y-130843448D01*
X108248345Y-131101247D01*
X108451392Y-131303528D01*
X108739883Y-131434499D01*
X109086422Y-131478365D01*
X109463613Y-131419331D01*
X109622166Y-131361106D01*
X109831266Y-131246768D01*
X109883347Y-131134748D01*
X109787145Y-130992723D01*
X109735043Y-130943373D01*
X109577852Y-130846027D01*
X109416314Y-130880681D01*
X109392189Y-130893138D01*
X109181357Y-130958493D01*
X108965413Y-130957966D01*
X108804051Y-130899118D01*
X108754333Y-130812343D01*
X108836677Y-130710069D01*
X109076852Y-130633264D01*
X109126025Y-130624233D01*
X109504133Y-130508743D01*
X109732408Y-130316173D01*
X109812518Y-130045084D01*
X109812666Y-130031029D01*
X109736676Y-129734408D01*
X109527545Y-129512439D01*
X109213533Y-129388551D01*
X109016165Y-129370666D01*
X108727036Y-129392959D01*
X108727036Y-129392959D01*
G37*
X108727036Y-129392959D02*
X108473109Y-129448538D01*
X108418256Y-129469558D01*
X108201211Y-129568451D01*
X108379940Y-129758698D01*
X108535911Y-129887172D01*
X108697705Y-129895224D01*
X108806436Y-129862574D01*
X109033290Y-129819587D01*
X109178503Y-129879360D01*
X109262818Y-130008020D01*
X109194783Y-130101004D01*
X109015971Y-130132666D01*
X108665139Y-130187262D01*
X108379030Y-130334029D01*
X108208172Y-130545927D01*
X108158140Y-130843448D01*
X108248345Y-131101247D01*
X108451392Y-131303528D01*
X108739883Y-131434499D01*
X109086422Y-131478365D01*
X109463613Y-131419331D01*
X109622166Y-131361106D01*
X109831266Y-131246768D01*
X109883347Y-131134748D01*
X109787145Y-130992723D01*
X109735043Y-130943373D01*
X109577852Y-130846027D01*
X109416314Y-130880681D01*
X109392189Y-130893138D01*
X109181357Y-130958493D01*
X108965413Y-130957966D01*
X108804051Y-130899118D01*
X108754333Y-130812343D01*
X108836677Y-130710069D01*
X109076852Y-130633264D01*
X109126025Y-130624233D01*
X109504133Y-130508743D01*
X109732408Y-130316173D01*
X109812518Y-130045084D01*
X109812666Y-130031029D01*
X109736676Y-129734408D01*
X109527545Y-129512439D01*
X109213533Y-129388551D01*
X109016165Y-129370666D01*
X108727036Y-129392959D01*
G36*
X106505977Y-129457843D02*
X106306962Y-129646309D01*
X106158231Y-129941079D01*
X106089072Y-130280428D01*
X106087333Y-130340128D01*
X106087333Y-130640666D01*
X106686208Y-130640666D01*
X106999471Y-130645532D01*
X107176851Y-130665894D01*
X107251656Y-130710399D01*
X107257198Y-130787694D01*
X107256984Y-130788833D01*
X107158939Y-130908590D01*
X106962929Y-130965722D01*
X106732305Y-130949087D01*
X106610177Y-130902610D01*
X106450470Y-130866265D01*
X106309657Y-130967557D01*
X106196396Y-131118604D01*
X106207528Y-131222115D01*
X106358715Y-131317972D01*
X106465614Y-131364653D01*
X106875036Y-131473557D01*
X107245676Y-131432758D01*
X107324473Y-131404354D01*
X107607900Y-131203195D01*
X107794581Y-130885037D01*
X107865194Y-130483477D01*
X107865333Y-130463899D01*
X107825591Y-130087981D01*
X107302382Y-130087981D01*
X107301465Y-130169216D01*
X107195044Y-130208037D01*
X106973676Y-130217333D01*
X106747367Y-130201363D01*
X106612180Y-130160989D01*
X106595333Y-130137467D01*
X106657635Y-130033847D01*
X106777756Y-129929827D01*
X107000514Y-129858106D01*
X107199305Y-129936321D01*
X107302382Y-130087981D01*
X107825591Y-130087981D01*
X107817769Y-130014002D01*
X107671184Y-129692460D01*
X107429721Y-129491317D01*
X107106142Y-129390113D01*
X106761181Y-129383195D01*
X106505977Y-129457843D01*
X106505977Y-129457843D01*
G37*
X106505977Y-129457843D02*
X106306962Y-129646309D01*
X106158231Y-129941079D01*
X106089072Y-130280428D01*
X106087333Y-130340128D01*
X106087333Y-130640666D01*
X106686208Y-130640666D01*
X106999471Y-130645532D01*
X107176851Y-130665894D01*
X107251656Y-130710399D01*
X107257198Y-130787694D01*
X107256984Y-130788833D01*
X107158939Y-130908590D01*
X106962929Y-130965722D01*
X106732305Y-130949087D01*
X106610177Y-130902610D01*
X106450470Y-130866265D01*
X106309657Y-130967557D01*
X106196396Y-131118604D01*
X106207528Y-131222115D01*
X106358715Y-131317972D01*
X106465614Y-131364653D01*
X106875036Y-131473557D01*
X107245676Y-131432758D01*
X107324473Y-131404354D01*
X107607900Y-131203195D01*
X107794581Y-130885037D01*
X107865194Y-130483477D01*
X107865333Y-130463899D01*
X107825591Y-130087981D01*
X107302382Y-130087981D01*
X107301465Y-130169216D01*
X107195044Y-130208037D01*
X106973676Y-130217333D01*
X106747367Y-130201363D01*
X106612180Y-130160989D01*
X106595333Y-130137467D01*
X106657635Y-130033847D01*
X106777756Y-129929827D01*
X107000514Y-129858106D01*
X107199305Y-129936321D01*
X107302382Y-130087981D01*
X107825591Y-130087981D01*
X107817769Y-130014002D01*
X107671184Y-129692460D01*
X107429721Y-129491317D01*
X107106142Y-129390113D01*
X106761181Y-129383195D01*
X106505977Y-129457843D01*
G36*
X102870000Y-128905000D02*
X102878133Y-129087080D01*
X102933256Y-129173300D01*
X103081453Y-129199505D01*
X103251000Y-129201333D01*
X103632000Y-129201333D01*
X103632000Y-131487333D01*
X103871889Y-131487333D01*
X104065797Y-131469200D01*
X104168222Y-131430888D01*
X104189459Y-131329367D01*
X104207047Y-131092391D01*
X104219312Y-130753827D01*
X104224582Y-130347542D01*
X104224666Y-130287888D01*
X104224666Y-129201333D01*
X104563333Y-129201333D01*
X104780169Y-129192362D01*
X104876533Y-129136970D01*
X104901243Y-128992440D01*
X104902000Y-128905000D01*
X104902000Y-128608666D01*
X102870000Y-128608666D01*
X102870000Y-128905000D01*
X102870000Y-128905000D01*
G37*
X102870000Y-128905000D02*
X102878133Y-129087080D01*
X102933256Y-129173300D01*
X103081453Y-129199505D01*
X103251000Y-129201333D01*
X103632000Y-129201333D01*
X103632000Y-131487333D01*
X103871889Y-131487333D01*
X104065797Y-131469200D01*
X104168222Y-131430888D01*
X104189459Y-131329367D01*
X104207047Y-131092391D01*
X104219312Y-130753827D01*
X104224582Y-130347542D01*
X104224666Y-130287888D01*
X104224666Y-129201333D01*
X104563333Y-129201333D01*
X104780169Y-129192362D01*
X104876533Y-129136970D01*
X104901243Y-128992440D01*
X104902000Y-128905000D01*
X104902000Y-128608666D01*
X102870000Y-128608666D01*
X102870000Y-128905000D01*
G36*
X101352720Y-129415627D02*
X101256643Y-129457843D01*
X101057629Y-129646309D01*
X100908898Y-129941079D01*
X100839739Y-130280428D01*
X100838000Y-130340128D01*
X100838000Y-130640666D01*
X101475979Y-130640666D01*
X101797978Y-130643223D01*
X101980830Y-130657115D01*
X102054711Y-130691679D01*
X102049795Y-130756249D01*
X102023333Y-130810000D01*
X101869839Y-130938006D01*
X101636991Y-130979128D01*
X101395917Y-130924137D01*
X101347934Y-130897653D01*
X101187467Y-130879386D01*
X101072767Y-130954405D01*
X100945949Y-131103205D01*
X100961217Y-131217314D01*
X101128866Y-131326165D01*
X101216280Y-131364653D01*
X101586058Y-131472009D01*
X101915486Y-131448645D01*
X102160244Y-131353281D01*
X102372630Y-131201545D01*
X102518278Y-131016433D01*
X102520077Y-131012559D01*
X102594678Y-130719755D01*
X102611089Y-130355093D01*
X102587279Y-130154039D01*
X102064588Y-130154039D01*
X102014542Y-130201667D01*
X101843333Y-130216497D01*
X101727000Y-130217333D01*
X101494772Y-130210690D01*
X101397909Y-130178853D01*
X101402603Y-130103960D01*
X101425336Y-130057960D01*
X101592546Y-129874841D01*
X101788270Y-129845193D01*
X101970762Y-129969196D01*
X102027282Y-130055378D01*
X102064588Y-130154039D01*
X102587279Y-130154039D01*
X102569698Y-130005594D01*
X102514850Y-129833967D01*
X102320867Y-129594481D01*
X102025247Y-129433787D01*
X101683896Y-129368599D01*
X101352720Y-129415627D01*
X101352720Y-129415627D01*
G37*
X101352720Y-129415627D02*
X101256643Y-129457843D01*
X101057629Y-129646309D01*
X100908898Y-129941079D01*
X100839739Y-130280428D01*
X100838000Y-130340128D01*
X100838000Y-130640666D01*
X101475979Y-130640666D01*
X101797978Y-130643223D01*
X101980830Y-130657115D01*
X102054711Y-130691679D01*
X102049795Y-130756249D01*
X102023333Y-130810000D01*
X101869839Y-130938006D01*
X101636991Y-130979128D01*
X101395917Y-130924137D01*
X101347934Y-130897653D01*
X101187467Y-130879386D01*
X101072767Y-130954405D01*
X100945949Y-131103205D01*
X100961217Y-131217314D01*
X101128866Y-131326165D01*
X101216280Y-131364653D01*
X101586058Y-131472009D01*
X101915486Y-131448645D01*
X102160244Y-131353281D01*
X102372630Y-131201545D01*
X102518278Y-131016433D01*
X102520077Y-131012559D01*
X102594678Y-130719755D01*
X102611089Y-130355093D01*
X102587279Y-130154039D01*
X102064588Y-130154039D01*
X102014542Y-130201667D01*
X101843333Y-130216497D01*
X101727000Y-130217333D01*
X101494772Y-130210690D01*
X101397909Y-130178853D01*
X101402603Y-130103960D01*
X101425336Y-130057960D01*
X101592546Y-129874841D01*
X101788270Y-129845193D01*
X101970762Y-129969196D01*
X102027282Y-130055378D01*
X102064588Y-130154039D01*
X102587279Y-130154039D01*
X102569698Y-130005594D01*
X102514850Y-129833967D01*
X102320867Y-129594481D01*
X102025247Y-129433787D01*
X101683896Y-129368599D01*
X101352720Y-129415627D01*
G36*
X99510034Y-129384296D02*
X99224297Y-129461020D01*
X99144259Y-129497877D01*
X98988695Y-129611981D01*
X98886382Y-129782812D01*
X98830178Y-130039478D01*
X98812942Y-130411090D01*
X98822384Y-130810000D01*
X98848333Y-131445000D01*
X99441000Y-131454988D01*
X99768494Y-131448251D01*
X100050041Y-131420922D01*
X100219699Y-131380543D01*
X100406372Y-131213296D01*
X100515692Y-130955518D01*
X100519015Y-130815364D01*
X99991333Y-130815364D01*
X99963299Y-130934244D01*
X99847334Y-130970542D01*
X99716860Y-130963531D01*
X99489798Y-130896916D01*
X99414318Y-130788833D01*
X99428983Y-130687948D01*
X99550299Y-130646039D01*
X99688792Y-130640666D01*
X99894868Y-130658241D01*
X99979589Y-130728644D01*
X99991333Y-130815364D01*
X100519015Y-130815364D01*
X100522277Y-130677835D01*
X100500086Y-130600313D01*
X100342649Y-130373962D01*
X100071717Y-130249541D01*
X99736691Y-130217333D01*
X99513429Y-130204910D01*
X99420352Y-130155919D01*
X99415779Y-130069166D01*
X99472420Y-129975975D01*
X99620815Y-129931196D01*
X99856766Y-129921000D01*
X100144436Y-129900316D01*
X100309989Y-129829564D01*
X100362612Y-129767874D01*
X100386574Y-129614940D01*
X100277998Y-129492293D01*
X100072183Y-129407754D01*
X99804429Y-129369148D01*
X99510034Y-129384296D01*
X99510034Y-129384296D01*
G37*
X99510034Y-129384296D02*
X99224297Y-129461020D01*
X99144259Y-129497877D01*
X98988695Y-129611981D01*
X98886382Y-129782812D01*
X98830178Y-130039478D01*
X98812942Y-130411090D01*
X98822384Y-130810000D01*
X98848333Y-131445000D01*
X99441000Y-131454988D01*
X99768494Y-131448251D01*
X100050041Y-131420922D01*
X100219699Y-131380543D01*
X100406372Y-131213296D01*
X100515692Y-130955518D01*
X100519015Y-130815364D01*
X99991333Y-130815364D01*
X99963299Y-130934244D01*
X99847334Y-130970542D01*
X99716860Y-130963531D01*
X99489798Y-130896916D01*
X99414318Y-130788833D01*
X99428983Y-130687948D01*
X99550299Y-130646039D01*
X99688792Y-130640666D01*
X99894868Y-130658241D01*
X99979589Y-130728644D01*
X99991333Y-130815364D01*
X100519015Y-130815364D01*
X100522277Y-130677835D01*
X100500086Y-130600313D01*
X100342649Y-130373962D01*
X100071717Y-130249541D01*
X99736691Y-130217333D01*
X99513429Y-130204910D01*
X99420352Y-130155919D01*
X99415779Y-130069166D01*
X99472420Y-129975975D01*
X99620815Y-129931196D01*
X99856766Y-129921000D01*
X100144436Y-129900316D01*
X100309989Y-129829564D01*
X100362612Y-129767874D01*
X100386574Y-129614940D01*
X100277998Y-129492293D01*
X100072183Y-129407754D01*
X99804429Y-129369148D01*
X99510034Y-129384296D01*
G36*
X97599500Y-129412671D02*
X97259021Y-129430775D01*
X96975171Y-129445731D01*
X96797459Y-129454935D01*
X96774000Y-129456101D01*
X96604412Y-129444283D01*
X96374198Y-129407258D01*
X96372917Y-129407000D01*
X96026306Y-129376683D01*
X95767297Y-129452699D01*
X95586795Y-129647630D01*
X95475708Y-129974057D01*
X95424944Y-130444562D01*
X95419333Y-130726493D01*
X95419333Y-131498062D01*
X95694500Y-131471531D01*
X95969666Y-131445000D01*
X96012000Y-130683854D01*
X96037238Y-130314440D01*
X96068313Y-130082219D01*
X96113136Y-129955065D01*
X96179618Y-129900851D01*
X96206567Y-129893696D01*
X96382995Y-129895716D01*
X96501601Y-129994707D01*
X96571452Y-130210937D01*
X96601618Y-130564672D01*
X96604666Y-130783398D01*
X96604666Y-131498062D01*
X97155000Y-131445000D01*
X97197333Y-130683000D01*
X97220072Y-130321184D01*
X97246264Y-130094832D01*
X97286337Y-129970219D01*
X97350716Y-129913618D01*
X97441758Y-129892425D01*
X97594033Y-129895776D01*
X97695200Y-129973649D01*
X97754909Y-130150980D01*
X97782813Y-130452705D01*
X97788703Y-130788833D01*
X97790000Y-131487333D01*
X98298000Y-131487333D01*
X98298000Y-129375375D01*
X97599500Y-129412671D01*
X97599500Y-129412671D01*
G37*
X97599500Y-129412671D02*
X97259021Y-129430775D01*
X96975171Y-129445731D01*
X96797459Y-129454935D01*
X96774000Y-129456101D01*
X96604412Y-129444283D01*
X96374198Y-129407258D01*
X96372917Y-129407000D01*
X96026306Y-129376683D01*
X95767297Y-129452699D01*
X95586795Y-129647630D01*
X95475708Y-129974057D01*
X95424944Y-130444562D01*
X95419333Y-130726493D01*
X95419333Y-131498062D01*
X95694500Y-131471531D01*
X95969666Y-131445000D01*
X96012000Y-130683854D01*
X96037238Y-130314440D01*
X96068313Y-130082219D01*
X96113136Y-129955065D01*
X96179618Y-129900851D01*
X96206567Y-129893696D01*
X96382995Y-129895716D01*
X96501601Y-129994707D01*
X96571452Y-130210937D01*
X96601618Y-130564672D01*
X96604666Y-130783398D01*
X96604666Y-131498062D01*
X97155000Y-131445000D01*
X97197333Y-130683000D01*
X97220072Y-130321184D01*
X97246264Y-130094832D01*
X97286337Y-129970219D01*
X97350716Y-129913618D01*
X97441758Y-129892425D01*
X97594033Y-129895776D01*
X97695200Y-129973649D01*
X97754909Y-130150980D01*
X97782813Y-130452705D01*
X97788703Y-130788833D01*
X97790000Y-131487333D01*
X98298000Y-131487333D01*
X98298000Y-129375375D01*
X97599500Y-129412671D01*
G36*
X123795238Y-128622826D02*
X123713578Y-128694646D01*
X123698000Y-128862666D01*
X123714519Y-129033319D01*
X123798309Y-129103314D01*
X123994333Y-129116666D01*
X124193428Y-129102507D01*
X124275089Y-129030687D01*
X124290666Y-128862666D01*
X124274147Y-128692013D01*
X124190357Y-128622019D01*
X123994333Y-128608666D01*
X123795238Y-128622826D01*
X123795238Y-128622826D01*
G37*
X123795238Y-128622826D02*
X123713578Y-128694646D01*
X123698000Y-128862666D01*
X123714519Y-129033319D01*
X123798309Y-129103314D01*
X123994333Y-129116666D01*
X124193428Y-129102507D01*
X124275089Y-129030687D01*
X124290666Y-128862666D01*
X124274147Y-128692013D01*
X124190357Y-128622019D01*
X123994333Y-128608666D01*
X123795238Y-128622826D01*
G36*
X114729739Y-125648792D02*
X114686699Y-125684975D01*
X114683196Y-125772447D01*
X114722577Y-125932449D01*
X114808190Y-126186220D01*
X114943382Y-126555000D01*
X115131498Y-127060030D01*
X115153138Y-127118276D01*
X115309884Y-127527017D01*
X115455828Y-127883369D01*
X115576792Y-128154372D01*
X115658603Y-128307068D01*
X115671267Y-128322886D01*
X115831375Y-128418574D01*
X116057967Y-128490360D01*
X116244637Y-128515514D01*
X116318735Y-128461210D01*
X116331999Y-128288916D01*
X116332000Y-128286288D01*
X116290081Y-128070638D01*
X116162863Y-127973729D01*
X116007104Y-127854081D01*
X115947273Y-127734961D01*
X115957356Y-127572537D01*
X116027143Y-127279286D01*
X116149066Y-126879777D01*
X116315556Y-126398581D01*
X116519042Y-125860266D01*
X116545388Y-125793500D01*
X116558188Y-125693984D01*
X116465144Y-125652154D01*
X116305780Y-125645333D01*
X116152927Y-125651890D01*
X116049888Y-125693938D01*
X115969017Y-125805043D01*
X115882667Y-126018771D01*
X115800188Y-126259166D01*
X115592932Y-126873000D01*
X115403886Y-126259166D01*
X115305022Y-125948232D01*
X115228548Y-125765363D01*
X115147730Y-125676571D01*
X115035833Y-125647870D01*
X114921048Y-125645333D01*
X114808971Y-125642658D01*
X114729739Y-125648792D01*
X114729739Y-125648792D01*
G37*
X114729739Y-125648792D02*
X114686699Y-125684975D01*
X114683196Y-125772447D01*
X114722577Y-125932449D01*
X114808190Y-126186220D01*
X114943382Y-126555000D01*
X115131498Y-127060030D01*
X115153138Y-127118276D01*
X115309884Y-127527017D01*
X115455828Y-127883369D01*
X115576792Y-128154372D01*
X115658603Y-128307068D01*
X115671267Y-128322886D01*
X115831375Y-128418574D01*
X116057967Y-128490360D01*
X116244637Y-128515514D01*
X116318735Y-128461210D01*
X116331999Y-128288916D01*
X116332000Y-128286288D01*
X116290081Y-128070638D01*
X116162863Y-127973729D01*
X116007104Y-127854081D01*
X115947273Y-127734961D01*
X115957356Y-127572537D01*
X116027143Y-127279286D01*
X116149066Y-126879777D01*
X116315556Y-126398581D01*
X116519042Y-125860266D01*
X116545388Y-125793500D01*
X116558188Y-125693984D01*
X116465144Y-125652154D01*
X116305780Y-125645333D01*
X116152927Y-125651890D01*
X116049888Y-125693938D01*
X115969017Y-125805043D01*
X115882667Y-126018771D01*
X115800188Y-126259166D01*
X115592932Y-126873000D01*
X115403886Y-126259166D01*
X115305022Y-125948232D01*
X115228548Y-125765363D01*
X115147730Y-125676571D01*
X115035833Y-125647870D01*
X114921048Y-125645333D01*
X114808971Y-125642658D01*
X114729739Y-125648792D01*
G36*
X120904000Y-125222000D02*
X120915044Y-125378188D01*
X120978814Y-125452164D01*
X121141264Y-125474564D01*
X121285000Y-125476000D01*
X121666000Y-125476000D01*
X121666000Y-127762000D01*
X122258666Y-127762000D01*
X122258666Y-125476000D01*
X122597333Y-125476000D01*
X122814489Y-125465969D01*
X122911024Y-125411615D01*
X122935466Y-125276541D01*
X122936000Y-125222000D01*
X122936000Y-124968000D01*
X120904000Y-124968000D01*
X120904000Y-125222000D01*
X120904000Y-125222000D01*
G37*
X120904000Y-125222000D02*
X120915044Y-125378188D01*
X120978814Y-125452164D01*
X121141264Y-125474564D01*
X121285000Y-125476000D01*
X121666000Y-125476000D01*
X121666000Y-127762000D01*
X122258666Y-127762000D01*
X122258666Y-125476000D01*
X122597333Y-125476000D01*
X122814489Y-125465969D01*
X122911024Y-125411615D01*
X122935466Y-125276541D01*
X122936000Y-125222000D01*
X122936000Y-124968000D01*
X120904000Y-124968000D01*
X120904000Y-125222000D01*
G36*
X119520307Y-125694400D02*
X119237556Y-125861456D01*
X119026972Y-126138097D01*
X118909394Y-126504499D01*
X118905662Y-126940837D01*
X118915695Y-127008061D01*
X119046392Y-127346309D01*
X119284451Y-127594395D01*
X119590560Y-127737190D01*
X119925405Y-127759563D01*
X120249676Y-127646383D01*
X120361956Y-127564679D01*
X120505692Y-127406888D01*
X120586704Y-127207423D01*
X120629757Y-126904002D01*
X120631127Y-126887773D01*
X120626291Y-126641372D01*
X120075810Y-126641372D01*
X120070988Y-126902854D01*
X120042984Y-127105190D01*
X120023212Y-127156045D01*
X119883858Y-127243842D01*
X119693168Y-127229777D01*
X119566266Y-127152400D01*
X119490595Y-126982697D01*
X119467889Y-126727667D01*
X119499417Y-126463232D01*
X119552312Y-126317100D01*
X119689385Y-126189656D01*
X119867133Y-126156420D01*
X120009020Y-126229674D01*
X120017720Y-126242400D01*
X120057903Y-126396101D01*
X120075810Y-126641372D01*
X120626291Y-126641372D01*
X120621526Y-126398601D01*
X120500451Y-126035302D01*
X120267039Y-125795533D01*
X120218945Y-125768340D01*
X119854384Y-125656753D01*
X119520307Y-125694400D01*
X119520307Y-125694400D01*
G37*
X119520307Y-125694400D02*
X119237556Y-125861456D01*
X119026972Y-126138097D01*
X118909394Y-126504499D01*
X118905662Y-126940837D01*
X118915695Y-127008061D01*
X119046392Y-127346309D01*
X119284451Y-127594395D01*
X119590560Y-127737190D01*
X119925405Y-127759563D01*
X120249676Y-127646383D01*
X120361956Y-127564679D01*
X120505692Y-127406888D01*
X120586704Y-127207423D01*
X120629757Y-126904002D01*
X120631127Y-126887773D01*
X120626291Y-126641372D01*
X120075810Y-126641372D01*
X120070988Y-126902854D01*
X120042984Y-127105190D01*
X120023212Y-127156045D01*
X119883858Y-127243842D01*
X119693168Y-127229777D01*
X119566266Y-127152400D01*
X119490595Y-126982697D01*
X119467889Y-126727667D01*
X119499417Y-126463232D01*
X119552312Y-126317100D01*
X119689385Y-126189656D01*
X119867133Y-126156420D01*
X120009020Y-126229674D01*
X120017720Y-126242400D01*
X120057903Y-126396101D01*
X120075810Y-126641372D01*
X120626291Y-126641372D01*
X120621526Y-126398601D01*
X120500451Y-126035302D01*
X120267039Y-125795533D01*
X120218945Y-125768340D01*
X119854384Y-125656753D01*
X119520307Y-125694400D01*
G36*
X117934754Y-126449666D02*
X117590233Y-126047500D01*
X117374169Y-125814915D01*
X117203697Y-125692040D01*
X117030149Y-125647908D01*
X116958189Y-125645333D01*
X116741331Y-125668061D01*
X116683401Y-125743850D01*
X116780311Y-125884107D01*
X116849138Y-125949711D01*
X117035045Y-126143899D01*
X117182862Y-126328796D01*
X117268162Y-126461349D01*
X117285005Y-126569299D01*
X117224197Y-126708222D01*
X117084809Y-126921463D01*
X116911728Y-127186844D01*
X116759585Y-127435453D01*
X116706577Y-127529166D01*
X116581651Y-127762000D01*
X116917608Y-127762000D01*
X117116390Y-127750300D01*
X117250236Y-127690636D01*
X117369458Y-127546157D01*
X117488693Y-127343717D01*
X117660903Y-127091229D01*
X117797118Y-127002453D01*
X117891227Y-127076172D01*
X117937123Y-127311170D01*
X117940666Y-127433700D01*
X117951540Y-127646525D01*
X118009537Y-127739459D01*
X118152724Y-127761704D01*
X118194666Y-127762000D01*
X118448666Y-127762000D01*
X118448666Y-124968000D01*
X117940666Y-124968000D01*
X117934754Y-126449666D01*
X117934754Y-126449666D01*
G37*
X117934754Y-126449666D02*
X117590233Y-126047500D01*
X117374169Y-125814915D01*
X117203697Y-125692040D01*
X117030149Y-125647908D01*
X116958189Y-125645333D01*
X116741331Y-125668061D01*
X116683401Y-125743850D01*
X116780311Y-125884107D01*
X116849138Y-125949711D01*
X117035045Y-126143899D01*
X117182862Y-126328796D01*
X117268162Y-126461349D01*
X117285005Y-126569299D01*
X117224197Y-126708222D01*
X117084809Y-126921463D01*
X116911728Y-127186844D01*
X116759585Y-127435453D01*
X116706577Y-127529166D01*
X116581651Y-127762000D01*
X116917608Y-127762000D01*
X117116390Y-127750300D01*
X117250236Y-127690636D01*
X117369458Y-127546157D01*
X117488693Y-127343717D01*
X117660903Y-127091229D01*
X117797118Y-127002453D01*
X117891227Y-127076172D01*
X117937123Y-127311170D01*
X117940666Y-127433700D01*
X117951540Y-127646525D01*
X118009537Y-127739459D01*
X118152724Y-127761704D01*
X118194666Y-127762000D01*
X118448666Y-127762000D01*
X118448666Y-124968000D01*
X117940666Y-124968000D01*
X117934754Y-126449666D01*
G36*
X113311659Y-125693415D02*
X113017688Y-125883165D01*
X112809390Y-126204012D01*
X112711573Y-126592193D01*
X112723300Y-126980332D01*
X112833960Y-127324820D01*
X113032939Y-127582043D01*
X113165064Y-127665602D01*
X113459374Y-127743905D01*
X113782028Y-127749355D01*
X114047000Y-127681480D01*
X114067168Y-127670550D01*
X114282668Y-127456042D01*
X114415386Y-127142861D01*
X114465958Y-126777273D01*
X114463044Y-126742255D01*
X113876666Y-126742255D01*
X113865594Y-126989886D01*
X113837540Y-127160920D01*
X113820222Y-127197555D01*
X113662772Y-127253127D01*
X113471928Y-127209051D01*
X113373860Y-127133257D01*
X113307029Y-126954073D01*
X113297794Y-126700007D01*
X113338975Y-126441966D01*
X113423395Y-126250856D01*
X113467403Y-126209199D01*
X113644858Y-126168163D01*
X113780249Y-126276829D01*
X113860410Y-126518047D01*
X113876666Y-126742255D01*
X114463044Y-126742255D01*
X114435021Y-126405546D01*
X114323210Y-126073947D01*
X114131163Y-125828744D01*
X114041025Y-125769760D01*
X113661526Y-125652526D01*
X113311659Y-125693415D01*
X113311659Y-125693415D01*
G37*
X113311659Y-125693415D02*
X113017688Y-125883165D01*
X112809390Y-126204012D01*
X112711573Y-126592193D01*
X112723300Y-126980332D01*
X112833960Y-127324820D01*
X113032939Y-127582043D01*
X113165064Y-127665602D01*
X113459374Y-127743905D01*
X113782028Y-127749355D01*
X114047000Y-127681480D01*
X114067168Y-127670550D01*
X114282668Y-127456042D01*
X114415386Y-127142861D01*
X114465958Y-126777273D01*
X114463044Y-126742255D01*
X113876666Y-126742255D01*
X113865594Y-126989886D01*
X113837540Y-127160920D01*
X113820222Y-127197555D01*
X113662772Y-127253127D01*
X113471928Y-127209051D01*
X113373860Y-127133257D01*
X113307029Y-126954073D01*
X113297794Y-126700007D01*
X113338975Y-126441966D01*
X113423395Y-126250856D01*
X113467403Y-126209199D01*
X113644858Y-126168163D01*
X113780249Y-126276829D01*
X113860410Y-126518047D01*
X113876666Y-126742255D01*
X114463044Y-126742255D01*
X114435021Y-126405546D01*
X114323210Y-126073947D01*
X114131163Y-125828744D01*
X114041025Y-125769760D01*
X113661526Y-125652526D01*
X113311659Y-125693415D01*
G36*
X109489543Y-125200833D02*
X109525753Y-125349918D01*
X109622457Y-125423771D01*
X109830098Y-125456167D01*
X109876166Y-125459701D01*
X110236000Y-125485736D01*
X110236000Y-127762000D01*
X110828666Y-127762000D01*
X110828666Y-125485736D01*
X111188500Y-125459701D01*
X111418186Y-125430752D01*
X111529000Y-125365660D01*
X111571383Y-125230649D01*
X111575124Y-125200833D01*
X111601914Y-124968000D01*
X109462752Y-124968000D01*
X109489543Y-125200833D01*
X109489543Y-125200833D01*
G37*
X109489543Y-125200833D02*
X109525753Y-125349918D01*
X109622457Y-125423771D01*
X109830098Y-125456167D01*
X109876166Y-125459701D01*
X110236000Y-125485736D01*
X110236000Y-127762000D01*
X110828666Y-127762000D01*
X110828666Y-125485736D01*
X111188500Y-125459701D01*
X111418186Y-125430752D01*
X111529000Y-125365660D01*
X111571383Y-125230649D01*
X111575124Y-125200833D01*
X111601914Y-124968000D01*
X109462752Y-124968000D01*
X109489543Y-125200833D01*
G36*
X108065318Y-125694679D02*
X107770534Y-125870786D01*
X107559163Y-126166983D01*
X107464998Y-126515913D01*
X107419978Y-126915333D01*
X108065989Y-126915333D01*
X108372416Y-126923491D01*
X108600204Y-126945097D01*
X108708334Y-126975852D01*
X108712000Y-126983066D01*
X108638914Y-127128248D01*
X108457632Y-127221874D01*
X108225114Y-127249762D01*
X107998320Y-127197728D01*
X107951934Y-127172320D01*
X107791467Y-127154052D01*
X107676767Y-127229072D01*
X107549730Y-127376186D01*
X107564497Y-127490052D01*
X107730385Y-127608415D01*
X107776462Y-127632825D01*
X108136637Y-127747288D01*
X108508783Y-127747554D01*
X108831926Y-127636884D01*
X108923378Y-127571500D01*
X109100212Y-127335785D01*
X109224991Y-127016946D01*
X109272456Y-126694212D01*
X109254043Y-126534333D01*
X109199309Y-126373907D01*
X108701676Y-126373907D01*
X108655518Y-126455888D01*
X108448835Y-126490453D01*
X108367125Y-126492000D01*
X108145935Y-126479081D01*
X108054700Y-126428406D01*
X108050490Y-126343833D01*
X108147743Y-126217516D01*
X108330585Y-126165629D01*
X108526534Y-126201878D01*
X108589660Y-126241867D01*
X108701676Y-126373907D01*
X109199309Y-126373907D01*
X109122942Y-126150079D01*
X108964187Y-125900941D01*
X108788945Y-125768340D01*
X108414471Y-125655064D01*
X108065318Y-125694679D01*
X108065318Y-125694679D01*
G37*
X108065318Y-125694679D02*
X107770534Y-125870786D01*
X107559163Y-126166983D01*
X107464998Y-126515913D01*
X107419978Y-126915333D01*
X108065989Y-126915333D01*
X108372416Y-126923491D01*
X108600204Y-126945097D01*
X108708334Y-126975852D01*
X108712000Y-126983066D01*
X108638914Y-127128248D01*
X108457632Y-127221874D01*
X108225114Y-127249762D01*
X107998320Y-127197728D01*
X107951934Y-127172320D01*
X107791467Y-127154052D01*
X107676767Y-127229072D01*
X107549730Y-127376186D01*
X107564497Y-127490052D01*
X107730385Y-127608415D01*
X107776462Y-127632825D01*
X108136637Y-127747288D01*
X108508783Y-127747554D01*
X108831926Y-127636884D01*
X108923378Y-127571500D01*
X109100212Y-127335785D01*
X109224991Y-127016946D01*
X109272456Y-126694212D01*
X109254043Y-126534333D01*
X109199309Y-126373907D01*
X108701676Y-126373907D01*
X108655518Y-126455888D01*
X108448835Y-126490453D01*
X108367125Y-126492000D01*
X108145935Y-126479081D01*
X108054700Y-126428406D01*
X108050490Y-126343833D01*
X108147743Y-126217516D01*
X108330585Y-126165629D01*
X108526534Y-126201878D01*
X108589660Y-126241867D01*
X108701676Y-126373907D01*
X109199309Y-126373907D01*
X109122942Y-126150079D01*
X108964187Y-125900941D01*
X108788945Y-125768340D01*
X108414471Y-125655064D01*
X108065318Y-125694679D01*
G36*
X105893738Y-125710007D02*
X105735904Y-125778933D01*
X105477550Y-125912533D01*
X105667125Y-126114326D01*
X105826428Y-126247879D01*
X105962452Y-126254738D01*
X106017548Y-126230035D01*
X106241027Y-126181499D01*
X106422693Y-126269053D01*
X106542405Y-126460849D01*
X106580023Y-126725038D01*
X106518379Y-127022047D01*
X106378898Y-127199214D01*
X106177508Y-127261773D01*
X105978665Y-127193126D01*
X105950745Y-127168212D01*
X105834809Y-127155098D01*
X105676991Y-127282504D01*
X105556963Y-127429044D01*
X105552419Y-127521244D01*
X105618892Y-127590364D01*
X105832463Y-127686444D01*
X106131074Y-127730787D01*
X106437212Y-127719099D01*
X106670680Y-127648651D01*
X106927221Y-127413061D01*
X107067921Y-127064713D01*
X107100333Y-126728817D01*
X107053610Y-126280363D01*
X106902651Y-125958684D01*
X106667721Y-125765983D01*
X106284719Y-125653638D01*
X105893738Y-125710007D01*
X105893738Y-125710007D01*
G37*
X105893738Y-125710007D02*
X105735904Y-125778933D01*
X105477550Y-125912533D01*
X105667125Y-126114326D01*
X105826428Y-126247879D01*
X105962452Y-126254738D01*
X106017548Y-126230035D01*
X106241027Y-126181499D01*
X106422693Y-126269053D01*
X106542405Y-126460849D01*
X106580023Y-126725038D01*
X106518379Y-127022047D01*
X106378898Y-127199214D01*
X106177508Y-127261773D01*
X105978665Y-127193126D01*
X105950745Y-127168212D01*
X105834809Y-127155098D01*
X105676991Y-127282504D01*
X105556963Y-127429044D01*
X105552419Y-127521244D01*
X105618892Y-127590364D01*
X105832463Y-127686444D01*
X106131074Y-127730787D01*
X106437212Y-127719099D01*
X106670680Y-127648651D01*
X106927221Y-127413061D01*
X107067921Y-127064713D01*
X107100333Y-126728817D01*
X107053610Y-126280363D01*
X106902651Y-125958684D01*
X106667721Y-125765983D01*
X106284719Y-125653638D01*
X105893738Y-125710007D01*
G36*
X104752021Y-124977137D02*
X104676987Y-125033571D01*
X104650962Y-125180833D01*
X104648000Y-125394312D01*
X104642587Y-125642390D01*
X104615599Y-125754569D01*
X104550911Y-125764193D01*
X104484233Y-125732978D01*
X104163519Y-125648865D01*
X103850157Y-125722070D01*
X103670485Y-125853151D01*
X103575254Y-125960779D01*
X103514550Y-126079664D01*
X103480680Y-126248986D01*
X103465950Y-126507921D01*
X103462669Y-126895650D01*
X103462666Y-126911484D01*
X103462666Y-127762000D01*
X103970666Y-127762000D01*
X103970666Y-127174845D01*
X103991827Y-126699407D01*
X104057606Y-126377826D01*
X104171450Y-126199706D01*
X104309333Y-126153333D01*
X104466957Y-126217158D01*
X104573572Y-126415566D01*
X104632626Y-126758950D01*
X104648000Y-127174845D01*
X104648000Y-127762000D01*
X105156000Y-127762000D01*
X105156000Y-124968000D01*
X104902000Y-124968000D01*
X104752021Y-124977137D01*
X104752021Y-124977137D01*
G37*
X104752021Y-124977137D02*
X104676987Y-125033571D01*
X104650962Y-125180833D01*
X104648000Y-125394312D01*
X104642587Y-125642390D01*
X104615599Y-125754569D01*
X104550911Y-125764193D01*
X104484233Y-125732978D01*
X104163519Y-125648865D01*
X103850157Y-125722070D01*
X103670485Y-125853151D01*
X103575254Y-125960779D01*
X103514550Y-126079664D01*
X103480680Y-126248986D01*
X103465950Y-126507921D01*
X103462669Y-126895650D01*
X103462666Y-126911484D01*
X103462666Y-127762000D01*
X103970666Y-127762000D01*
X103970666Y-127174845D01*
X103991827Y-126699407D01*
X104057606Y-126377826D01*
X104171450Y-126199706D01*
X104309333Y-126153333D01*
X104466957Y-126217158D01*
X104573572Y-126415566D01*
X104632626Y-126758950D01*
X104648000Y-127174845D01*
X104648000Y-127762000D01*
X105156000Y-127762000D01*
X105156000Y-124968000D01*
X104902000Y-124968000D01*
X104752021Y-124977137D01*
G36*
X100923940Y-124930460D02*
X100546666Y-125039715D01*
X100433333Y-125102721D01*
X100229333Y-125236387D01*
X100422478Y-125441981D01*
X100592463Y-125577075D01*
X100701412Y-125561787D01*
X100834430Y-125508109D01*
X101062567Y-125478212D01*
X101145561Y-125476000D01*
X101389370Y-125494197D01*
X101515156Y-125562072D01*
X101557426Y-125644575D01*
X101578675Y-125831146D01*
X101481203Y-125948040D01*
X101241789Y-126019800D01*
X101194863Y-126027763D01*
X100727453Y-126153912D01*
X100398905Y-126356434D01*
X100215820Y-126628054D01*
X100184800Y-126961498D01*
X100215456Y-127107118D01*
X100379490Y-127393661D01*
X100662523Y-127607538D01*
X101024843Y-127735102D01*
X101426735Y-127762707D01*
X101828485Y-127676709D01*
X101849439Y-127668552D01*
X102106790Y-127545815D01*
X102211845Y-127430911D01*
X102178404Y-127298710D01*
X102103136Y-127206489D01*
X101969353Y-127084814D01*
X101845406Y-127062745D01*
X101652711Y-127128141D01*
X101637369Y-127134530D01*
X101305808Y-127238499D01*
X101053994Y-127227892D01*
X100886139Y-127141715D01*
X100769065Y-126983309D01*
X100797889Y-126818189D01*
X100954386Y-126681332D01*
X101160272Y-126615536D01*
X101579712Y-126517818D01*
X101864654Y-126376969D01*
X102048101Y-126174712D01*
X102086827Y-126102382D01*
X102160689Y-125768446D01*
X102085009Y-125440224D01*
X101875618Y-125159831D01*
X101682566Y-125026904D01*
X101328116Y-124924640D01*
X100923940Y-124930460D01*
X100923940Y-124930460D01*
G37*
X100923940Y-124930460D02*
X100546666Y-125039715D01*
X100433333Y-125102721D01*
X100229333Y-125236387D01*
X100422478Y-125441981D01*
X100592463Y-125577075D01*
X100701412Y-125561787D01*
X100834430Y-125508109D01*
X101062567Y-125478212D01*
X101145561Y-125476000D01*
X101389370Y-125494197D01*
X101515156Y-125562072D01*
X101557426Y-125644575D01*
X101578675Y-125831146D01*
X101481203Y-125948040D01*
X101241789Y-126019800D01*
X101194863Y-126027763D01*
X100727453Y-126153912D01*
X100398905Y-126356434D01*
X100215820Y-126628054D01*
X100184800Y-126961498D01*
X100215456Y-127107118D01*
X100379490Y-127393661D01*
X100662523Y-127607538D01*
X101024843Y-127735102D01*
X101426735Y-127762707D01*
X101828485Y-127676709D01*
X101849439Y-127668552D01*
X102106790Y-127545815D01*
X102211845Y-127430911D01*
X102178404Y-127298710D01*
X102103136Y-127206489D01*
X101969353Y-127084814D01*
X101845406Y-127062745D01*
X101652711Y-127128141D01*
X101637369Y-127134530D01*
X101305808Y-127238499D01*
X101053994Y-127227892D01*
X100886139Y-127141715D01*
X100769065Y-126983309D01*
X100797889Y-126818189D01*
X100954386Y-126681332D01*
X101160272Y-126615536D01*
X101579712Y-126517818D01*
X101864654Y-126376969D01*
X102048101Y-126174712D01*
X102086827Y-126102382D01*
X102160689Y-125768446D01*
X102085009Y-125440224D01*
X101875618Y-125159831D01*
X101682566Y-125026904D01*
X101328116Y-124924640D01*
X100923940Y-124930460D01*
G36*
X98390811Y-124988913D02*
X98141833Y-125108457D01*
X97943333Y-125236387D01*
X98136478Y-125441981D01*
X98306463Y-125577075D01*
X98415412Y-125561787D01*
X98551625Y-125504775D01*
X98774187Y-125476631D01*
X98812566Y-125476000D01*
X99092771Y-125522708D01*
X99252053Y-125637952D01*
X99284260Y-125784411D01*
X99183244Y-125924764D01*
X98942852Y-126021689D01*
X98903658Y-126028739D01*
X98448926Y-126153697D01*
X98117609Y-126353144D01*
X97919522Y-126609533D01*
X97864478Y-126905318D01*
X97962292Y-127222952D01*
X98116081Y-127436851D01*
X98280255Y-127595866D01*
X98452565Y-127683561D01*
X98698290Y-127726546D01*
X98856914Y-127738821D01*
X99298921Y-127730183D01*
X99588922Y-127644448D01*
X99825322Y-127511831D01*
X99932803Y-127423239D01*
X99931394Y-127342151D01*
X99841125Y-127232047D01*
X99824704Y-127214544D01*
X99705439Y-127101507D01*
X99594925Y-127066653D01*
X99428911Y-127103150D01*
X99276478Y-127156261D01*
X98951182Y-127228782D01*
X98690376Y-127203025D01*
X98524074Y-127088931D01*
X98482292Y-126896444D01*
X98482719Y-126893347D01*
X98547166Y-126753006D01*
X98718710Y-126663487D01*
X98848333Y-126630325D01*
X99276716Y-126519109D01*
X99560324Y-126398372D01*
X99723707Y-126256824D01*
X99749036Y-126216133D01*
X99829089Y-125924374D01*
X99818119Y-125585472D01*
X99720304Y-125292322D01*
X99706465Y-125269949D01*
X99475979Y-125060823D01*
X99147353Y-124940918D01*
X98769369Y-124915270D01*
X98390811Y-124988913D01*
X98390811Y-124988913D01*
G37*
X98390811Y-124988913D02*
X98141833Y-125108457D01*
X97943333Y-125236387D01*
X98136478Y-125441981D01*
X98306463Y-125577075D01*
X98415412Y-125561787D01*
X98551625Y-125504775D01*
X98774187Y-125476631D01*
X98812566Y-125476000D01*
X99092771Y-125522708D01*
X99252053Y-125637952D01*
X99284260Y-125784411D01*
X99183244Y-125924764D01*
X98942852Y-126021689D01*
X98903658Y-126028739D01*
X98448926Y-126153697D01*
X98117609Y-126353144D01*
X97919522Y-126609533D01*
X97864478Y-126905318D01*
X97962292Y-127222952D01*
X98116081Y-127436851D01*
X98280255Y-127595866D01*
X98452565Y-127683561D01*
X98698290Y-127726546D01*
X98856914Y-127738821D01*
X99298921Y-127730183D01*
X99588922Y-127644448D01*
X99825322Y-127511831D01*
X99932803Y-127423239D01*
X99931394Y-127342151D01*
X99841125Y-127232047D01*
X99824704Y-127214544D01*
X99705439Y-127101507D01*
X99594925Y-127066653D01*
X99428911Y-127103150D01*
X99276478Y-127156261D01*
X98951182Y-127228782D01*
X98690376Y-127203025D01*
X98524074Y-127088931D01*
X98482292Y-126896444D01*
X98482719Y-126893347D01*
X98547166Y-126753006D01*
X98718710Y-126663487D01*
X98848333Y-126630325D01*
X99276716Y-126519109D01*
X99560324Y-126398372D01*
X99723707Y-126256824D01*
X99749036Y-126216133D01*
X99829089Y-125924374D01*
X99818119Y-125585472D01*
X99720304Y-125292322D01*
X99706465Y-125269949D01*
X99475979Y-125060823D01*
X99147353Y-124940918D01*
X98769369Y-124915270D01*
X98390811Y-124988913D01*
G36*
X96314712Y-124971031D02*
X96072199Y-124987224D01*
X95911561Y-125027230D01*
X95789081Y-125101697D01*
X95666820Y-125215487D01*
X95464629Y-125521070D01*
X95407908Y-125859799D01*
X95497567Y-126188517D01*
X95642245Y-126383942D01*
X95865157Y-126606854D01*
X95599912Y-127089335D01*
X95462801Y-127352521D01*
X95366982Y-127562778D01*
X95334666Y-127666908D01*
X95409073Y-127729681D01*
X95592106Y-127761149D01*
X95631790Y-127762000D01*
X95790862Y-127751951D01*
X95905504Y-127699794D01*
X96009821Y-127572516D01*
X96137918Y-127337100D01*
X96200296Y-127211666D01*
X96359745Y-126911467D01*
X96485263Y-126740431D01*
X96601846Y-126668970D01*
X96665172Y-126661333D01*
X96769355Y-126673551D01*
X96827402Y-126735582D01*
X96852696Y-126885490D01*
X96858621Y-127161339D01*
X96858666Y-127211666D01*
X96858666Y-127762000D01*
X97451333Y-127762000D01*
X97451333Y-126163069D01*
X96858666Y-126163069D01*
X96507456Y-126137034D01*
X96221066Y-126077476D01*
X96063389Y-125962833D01*
X96014452Y-125768481D01*
X96116391Y-125612821D01*
X96351985Y-125514100D01*
X96507456Y-125492298D01*
X96858666Y-125466263D01*
X96858666Y-126163069D01*
X97451333Y-126163069D01*
X97451333Y-124968000D01*
X96682820Y-124968000D01*
X96314712Y-124971031D01*
X96314712Y-124971031D01*
G37*
X96314712Y-124971031D02*
X96072199Y-124987224D01*
X95911561Y-125027230D01*
X95789081Y-125101697D01*
X95666820Y-125215487D01*
X95464629Y-125521070D01*
X95407908Y-125859799D01*
X95497567Y-126188517D01*
X95642245Y-126383942D01*
X95865157Y-126606854D01*
X95599912Y-127089335D01*
X95462801Y-127352521D01*
X95366982Y-127562778D01*
X95334666Y-127666908D01*
X95409073Y-127729681D01*
X95592106Y-127761149D01*
X95631790Y-127762000D01*
X95790862Y-127751951D01*
X95905504Y-127699794D01*
X96009821Y-127572516D01*
X96137918Y-127337100D01*
X96200296Y-127211666D01*
X96359745Y-126911467D01*
X96485263Y-126740431D01*
X96601846Y-126668970D01*
X96665172Y-126661333D01*
X96769355Y-126673551D01*
X96827402Y-126735582D01*
X96852696Y-126885490D01*
X96858621Y-127161339D01*
X96858666Y-127211666D01*
X96858666Y-127762000D01*
X97451333Y-127762000D01*
X97451333Y-126163069D01*
X96858666Y-126163069D01*
X96507456Y-126137034D01*
X96221066Y-126077476D01*
X96063389Y-125962833D01*
X96014452Y-125768481D01*
X96116391Y-125612821D01*
X96351985Y-125514100D01*
X96507456Y-125492298D01*
X96858666Y-125466263D01*
X96858666Y-126163069D01*
X97451333Y-126163069D01*
X97451333Y-124968000D01*
X96682820Y-124968000D01*
X96314712Y-124971031D01*
G36*
X113629597Y-113764722D02*
X113316316Y-113804253D01*
X113041078Y-113885265D01*
X112881217Y-113951977D01*
X112376268Y-114268454D01*
X111976698Y-114708335D01*
X111694133Y-115254011D01*
X111540197Y-115887877D01*
X111527770Y-116001878D01*
X111508637Y-116285842D01*
X111530211Y-116468057D01*
X111613843Y-116615001D01*
X111780882Y-116793148D01*
X111782381Y-116794647D01*
X112081733Y-117094000D01*
X115592296Y-117094000D01*
X115546059Y-117438720D01*
X115406599Y-117907355D01*
X115137600Y-118285188D01*
X114757405Y-118563905D01*
X114284360Y-118735190D01*
X113736810Y-118790729D01*
X113133099Y-118722206D01*
X112865269Y-118653856D01*
X112449200Y-118568345D01*
X112158451Y-118596283D01*
X111992566Y-118737740D01*
X111970288Y-118791675D01*
X111975070Y-119030820D01*
X112130202Y-119250715D01*
X112416710Y-119430191D01*
X112603583Y-119498240D01*
X113043063Y-119596589D01*
X113540276Y-119657861D01*
X114028101Y-119677283D01*
X114439415Y-119650080D01*
X114524896Y-119634917D01*
X115096616Y-119442007D01*
X115604209Y-119109846D01*
X115933396Y-118789029D01*
X116243767Y-118385763D01*
X116453437Y-117960665D01*
X116576128Y-117471892D01*
X116625565Y-116877601D01*
X116628163Y-116670666D01*
X116607730Y-116247333D01*
X115592296Y-116247333D01*
X112522000Y-116247333D01*
X112522000Y-116011273D01*
X112584066Y-115697412D01*
X112745428Y-115349232D01*
X112968833Y-115032554D01*
X113190687Y-114829850D01*
X113443243Y-114703397D01*
X113745863Y-114646580D01*
X113977227Y-114638666D01*
X114514019Y-114706684D01*
X114953435Y-114904109D01*
X115283213Y-115221004D01*
X115491088Y-115647428D01*
X115547190Y-115911045D01*
X115592296Y-116247333D01*
X116607730Y-116247333D01*
X116597282Y-116030893D01*
X116495870Y-115509862D01*
X116310772Y-115066997D01*
X116028836Y-114661724D01*
X115945963Y-114566281D01*
X115549238Y-114188512D01*
X115136374Y-113940357D01*
X114662322Y-113802594D01*
X114082028Y-113756004D01*
X114046000Y-113755705D01*
X113629597Y-113764722D01*
X113629597Y-113764722D01*
G37*
X113629597Y-113764722D02*
X113316316Y-113804253D01*
X113041078Y-113885265D01*
X112881217Y-113951977D01*
X112376268Y-114268454D01*
X111976698Y-114708335D01*
X111694133Y-115254011D01*
X111540197Y-115887877D01*
X111527770Y-116001878D01*
X111508637Y-116285842D01*
X111530211Y-116468057D01*
X111613843Y-116615001D01*
X111780882Y-116793148D01*
X111782381Y-116794647D01*
X112081733Y-117094000D01*
X115592296Y-117094000D01*
X115546059Y-117438720D01*
X115406599Y-117907355D01*
X115137600Y-118285188D01*
X114757405Y-118563905D01*
X114284360Y-118735190D01*
X113736810Y-118790729D01*
X113133099Y-118722206D01*
X112865269Y-118653856D01*
X112449200Y-118568345D01*
X112158451Y-118596283D01*
X111992566Y-118737740D01*
X111970288Y-118791675D01*
X111975070Y-119030820D01*
X112130202Y-119250715D01*
X112416710Y-119430191D01*
X112603583Y-119498240D01*
X113043063Y-119596589D01*
X113540276Y-119657861D01*
X114028101Y-119677283D01*
X114439415Y-119650080D01*
X114524896Y-119634917D01*
X115096616Y-119442007D01*
X115604209Y-119109846D01*
X115933396Y-118789029D01*
X116243767Y-118385763D01*
X116453437Y-117960665D01*
X116576128Y-117471892D01*
X116625565Y-116877601D01*
X116628163Y-116670666D01*
X116607730Y-116247333D01*
X115592296Y-116247333D01*
X112522000Y-116247333D01*
X112522000Y-116011273D01*
X112584066Y-115697412D01*
X112745428Y-115349232D01*
X112968833Y-115032554D01*
X113190687Y-114829850D01*
X113443243Y-114703397D01*
X113745863Y-114646580D01*
X113977227Y-114638666D01*
X114514019Y-114706684D01*
X114953435Y-114904109D01*
X115283213Y-115221004D01*
X115491088Y-115647428D01*
X115547190Y-115911045D01*
X115592296Y-116247333D01*
X116607730Y-116247333D01*
X116597282Y-116030893D01*
X116495870Y-115509862D01*
X116310772Y-115066997D01*
X116028836Y-114661724D01*
X115945963Y-114566281D01*
X115549238Y-114188512D01*
X115136374Y-113940357D01*
X114662322Y-113802594D01*
X114082028Y-113756004D01*
X114046000Y-113755705D01*
X113629597Y-113764722D01*
G36*
X107695076Y-113751582D02*
X107070426Y-113915319D01*
X106534271Y-114207967D01*
X106201593Y-114536694D01*
X105922501Y-114978749D01*
X105722848Y-115480413D01*
X105628485Y-115987967D01*
X105624400Y-116098601D01*
X105631502Y-116391313D01*
X105672316Y-116578582D01*
X105770103Y-116723973D01*
X105898169Y-116846766D01*
X106174671Y-117094000D01*
X109723766Y-117094000D01*
X109671328Y-117369166D01*
X109564732Y-117723381D01*
X109396285Y-118072180D01*
X109202967Y-118341970D01*
X109162411Y-118381937D01*
X108801211Y-118606020D01*
X108334284Y-118742532D01*
X107803957Y-118786084D01*
X107252557Y-118731287D01*
X106968623Y-118661249D01*
X106629592Y-118569331D01*
X106406061Y-118545390D01*
X106256710Y-118593514D01*
X106140221Y-118717789D01*
X106121881Y-118745000D01*
X106032391Y-118911239D01*
X106047255Y-119042014D01*
X106119684Y-119164980D01*
X106308903Y-119326883D01*
X106627315Y-119467462D01*
X107035347Y-119579213D01*
X107493424Y-119654633D01*
X107961972Y-119686219D01*
X108401416Y-119666467D01*
X108598229Y-119634917D01*
X109220762Y-119420300D01*
X109764604Y-119062449D01*
X110210972Y-118576514D01*
X110479855Y-118117322D01*
X110578234Y-117890697D01*
X110642537Y-117682370D01*
X110679831Y-117446257D01*
X110697181Y-117136277D01*
X110701653Y-116706347D01*
X110701666Y-116670666D01*
X110697975Y-116247333D01*
X109723766Y-116247333D01*
X106573691Y-116247333D01*
X106631162Y-115887931D01*
X106783523Y-115387777D01*
X107065272Y-114995018D01*
X107277244Y-114822231D01*
X107462085Y-114714692D01*
X107651510Y-114659403D01*
X107905625Y-114644881D01*
X108162040Y-114653206D01*
X108543872Y-114688440D01*
X108815635Y-114759595D01*
X109031790Y-114879225D01*
X109323855Y-115175569D01*
X109552006Y-115580619D01*
X109671328Y-115972166D01*
X109723766Y-116247333D01*
X110697975Y-116247333D01*
X110697829Y-116230641D01*
X110681608Y-115913783D01*
X110645935Y-115674010D01*
X110583747Y-115465239D01*
X110487977Y-115241388D01*
X110479855Y-115224011D01*
X110127566Y-114649883D01*
X109674161Y-114211395D01*
X109122704Y-113910697D01*
X108476261Y-113749936D01*
X108358412Y-113736797D01*
X107695076Y-113751582D01*
X107695076Y-113751582D01*
G37*
X107695076Y-113751582D02*
X107070426Y-113915319D01*
X106534271Y-114207967D01*
X106201593Y-114536694D01*
X105922501Y-114978749D01*
X105722848Y-115480413D01*
X105628485Y-115987967D01*
X105624400Y-116098601D01*
X105631502Y-116391313D01*
X105672316Y-116578582D01*
X105770103Y-116723973D01*
X105898169Y-116846766D01*
X106174671Y-117094000D01*
X109723766Y-117094000D01*
X109671328Y-117369166D01*
X109564732Y-117723381D01*
X109396285Y-118072180D01*
X109202967Y-118341970D01*
X109162411Y-118381937D01*
X108801211Y-118606020D01*
X108334284Y-118742532D01*
X107803957Y-118786084D01*
X107252557Y-118731287D01*
X106968623Y-118661249D01*
X106629592Y-118569331D01*
X106406061Y-118545390D01*
X106256710Y-118593514D01*
X106140221Y-118717789D01*
X106121881Y-118745000D01*
X106032391Y-118911239D01*
X106047255Y-119042014D01*
X106119684Y-119164980D01*
X106308903Y-119326883D01*
X106627315Y-119467462D01*
X107035347Y-119579213D01*
X107493424Y-119654633D01*
X107961972Y-119686219D01*
X108401416Y-119666467D01*
X108598229Y-119634917D01*
X109220762Y-119420300D01*
X109764604Y-119062449D01*
X110210972Y-118576514D01*
X110479855Y-118117322D01*
X110578234Y-117890697D01*
X110642537Y-117682370D01*
X110679831Y-117446257D01*
X110697181Y-117136277D01*
X110701653Y-116706347D01*
X110701666Y-116670666D01*
X110697975Y-116247333D01*
X109723766Y-116247333D01*
X106573691Y-116247333D01*
X106631162Y-115887931D01*
X106783523Y-115387777D01*
X107065272Y-114995018D01*
X107277244Y-114822231D01*
X107462085Y-114714692D01*
X107651510Y-114659403D01*
X107905625Y-114644881D01*
X108162040Y-114653206D01*
X108543872Y-114688440D01*
X108815635Y-114759595D01*
X109031790Y-114879225D01*
X109323855Y-115175569D01*
X109552006Y-115580619D01*
X109671328Y-115972166D01*
X109723766Y-116247333D01*
X110697975Y-116247333D01*
X110697829Y-116230641D01*
X110681608Y-115913783D01*
X110645935Y-115674010D01*
X110583747Y-115465239D01*
X110487977Y-115241388D01*
X110479855Y-115224011D01*
X110127566Y-114649883D01*
X109674161Y-114211395D01*
X109122704Y-113910697D01*
X108476261Y-113749936D01*
X108358412Y-113736797D01*
X107695076Y-113751582D01*
G36*
X102180477Y-113746403D02*
X101894861Y-113786043D01*
X101355626Y-113914337D01*
X100973366Y-114083117D01*
X100750699Y-114290489D01*
X100690246Y-114534559D01*
X100711952Y-114641667D01*
X100839189Y-114803659D01*
X101087565Y-114859417D01*
X101462107Y-114809597D01*
X101639269Y-114762914D01*
X102042925Y-114679570D01*
X102477265Y-114645059D01*
X102896140Y-114657425D01*
X103253404Y-114714709D01*
X103502910Y-114814953D01*
X103539844Y-114843556D01*
X103681207Y-115072320D01*
X103718584Y-115361035D01*
X103651553Y-115637900D01*
X103545371Y-115783442D01*
X103396361Y-115866021D01*
X103123146Y-115971519D01*
X102766676Y-116085472D01*
X102425520Y-116179008D01*
X101809748Y-116356672D01*
X101340103Y-116544614D01*
X100993392Y-116755195D01*
X100746420Y-117000778D01*
X100667789Y-117115797D01*
X100489078Y-117558669D01*
X100442786Y-118044766D01*
X100525556Y-118524047D01*
X100734031Y-118946468D01*
X100795939Y-119026216D01*
X101117012Y-119291697D01*
X101562062Y-119495691D01*
X102094100Y-119629287D01*
X102676135Y-119683568D01*
X103271180Y-119649620D01*
X103340343Y-119639409D01*
X103828435Y-119526077D01*
X104234613Y-119360409D01*
X104534538Y-119157205D01*
X104703871Y-118931263D01*
X104732666Y-118792899D01*
X104677891Y-118670712D01*
X104570158Y-118540158D01*
X104483759Y-118462459D01*
X104394094Y-118427555D01*
X104260605Y-118437872D01*
X104042733Y-118495839D01*
X103744658Y-118589581D01*
X103161469Y-118735090D01*
X102639652Y-118785695D01*
X102196805Y-118745577D01*
X101850524Y-118618917D01*
X101618408Y-118409898D01*
X101518053Y-118122700D01*
X101515333Y-118059832D01*
X101531628Y-117810146D01*
X101596177Y-117619096D01*
X101732475Y-117469390D01*
X101964016Y-117343738D01*
X102314296Y-117224848D01*
X102806810Y-117095429D01*
X102835207Y-117088465D01*
X103214026Y-116986861D01*
X103566945Y-116876768D01*
X103834513Y-116777223D01*
X103896516Y-116748639D01*
X104304360Y-116459150D01*
X104589730Y-116084365D01*
X104747665Y-115655492D01*
X104773208Y-115203735D01*
X104661401Y-114760299D01*
X104407284Y-114356389D01*
X104295056Y-114240540D01*
X103907156Y-113983439D01*
X103402920Y-113811121D01*
X102816107Y-113729978D01*
X102180477Y-113746403D01*
X102180477Y-113746403D01*
G37*
X102180477Y-113746403D02*
X101894861Y-113786043D01*
X101355626Y-113914337D01*
X100973366Y-114083117D01*
X100750699Y-114290489D01*
X100690246Y-114534559D01*
X100711952Y-114641667D01*
X100839189Y-114803659D01*
X101087565Y-114859417D01*
X101462107Y-114809597D01*
X101639269Y-114762914D01*
X102042925Y-114679570D01*
X102477265Y-114645059D01*
X102896140Y-114657425D01*
X103253404Y-114714709D01*
X103502910Y-114814953D01*
X103539844Y-114843556D01*
X103681207Y-115072320D01*
X103718584Y-115361035D01*
X103651553Y-115637900D01*
X103545371Y-115783442D01*
X103396361Y-115866021D01*
X103123146Y-115971519D01*
X102766676Y-116085472D01*
X102425520Y-116179008D01*
X101809748Y-116356672D01*
X101340103Y-116544614D01*
X100993392Y-116755195D01*
X100746420Y-117000778D01*
X100667789Y-117115797D01*
X100489078Y-117558669D01*
X100442786Y-118044766D01*
X100525556Y-118524047D01*
X100734031Y-118946468D01*
X100795939Y-119026216D01*
X101117012Y-119291697D01*
X101562062Y-119495691D01*
X102094100Y-119629287D01*
X102676135Y-119683568D01*
X103271180Y-119649620D01*
X103340343Y-119639409D01*
X103828435Y-119526077D01*
X104234613Y-119360409D01*
X104534538Y-119157205D01*
X104703871Y-118931263D01*
X104732666Y-118792899D01*
X104677891Y-118670712D01*
X104570158Y-118540158D01*
X104483759Y-118462459D01*
X104394094Y-118427555D01*
X104260605Y-118437872D01*
X104042733Y-118495839D01*
X103744658Y-118589581D01*
X103161469Y-118735090D01*
X102639652Y-118785695D01*
X102196805Y-118745577D01*
X101850524Y-118618917D01*
X101618408Y-118409898D01*
X101518053Y-118122700D01*
X101515333Y-118059832D01*
X101531628Y-117810146D01*
X101596177Y-117619096D01*
X101732475Y-117469390D01*
X101964016Y-117343738D01*
X102314296Y-117224848D01*
X102806810Y-117095429D01*
X102835207Y-117088465D01*
X103214026Y-116986861D01*
X103566945Y-116876768D01*
X103834513Y-116777223D01*
X103896516Y-116748639D01*
X104304360Y-116459150D01*
X104589730Y-116084365D01*
X104747665Y-115655492D01*
X104773208Y-115203735D01*
X104661401Y-114760299D01*
X104407284Y-114356389D01*
X104295056Y-114240540D01*
X103907156Y-113983439D01*
X103402920Y-113811121D01*
X102816107Y-113729978D01*
X102180477Y-113746403D01*
G36*
X96812125Y-112513059D02*
X96462954Y-112714784D01*
X96280716Y-112903522D01*
X96145456Y-113052096D01*
X96046201Y-113076366D01*
X95960797Y-113022639D01*
X95798948Y-112956430D01*
X95540047Y-112915574D01*
X95385013Y-112909047D01*
X94924408Y-112981735D01*
X94555110Y-113187898D01*
X94295173Y-113509686D01*
X94162653Y-113929252D01*
X94149333Y-114130666D01*
X94211949Y-114544251D01*
X94384364Y-114894912D01*
X94581362Y-115092427D01*
X94697057Y-115214067D01*
X94707895Y-115302685D01*
X94663038Y-115429699D01*
X94605979Y-115661161D01*
X94572869Y-115822929D01*
X94532155Y-116154443D01*
X94562862Y-116410762D01*
X94609483Y-116543521D01*
X94694190Y-116715501D01*
X94801068Y-116847702D01*
X94951901Y-116945274D01*
X95168477Y-117013363D01*
X95472582Y-117057118D01*
X95886001Y-117081687D01*
X96430522Y-117092218D01*
X96939129Y-117094000D01*
X97527806Y-117093789D01*
X97966896Y-117097460D01*
X98276122Y-117111467D01*
X98475211Y-117142265D01*
X98583887Y-117196308D01*
X98621876Y-117280051D01*
X98608904Y-117399947D01*
X98564695Y-117562452D01*
X98548274Y-117620537D01*
X98348372Y-118044968D01*
X98020911Y-118404917D01*
X97666503Y-118628188D01*
X97299620Y-118733998D01*
X96844591Y-118778642D01*
X96371616Y-118760950D01*
X95950899Y-118679751D01*
X95885000Y-118657891D01*
X95491288Y-118552181D01*
X95215695Y-118563949D01*
X95052534Y-118695149D01*
X94996120Y-118947733D01*
X94996000Y-118963233D01*
X95020801Y-119143449D01*
X95117151Y-119275732D01*
X95317967Y-119388989D01*
X95599684Y-119493335D01*
X96105668Y-119614932D01*
X96672310Y-119673741D01*
X97228511Y-119666516D01*
X97703174Y-119590013D01*
X97705333Y-119589421D01*
X98312363Y-119338818D01*
X98829506Y-118955384D01*
X99236085Y-118459385D01*
X99511423Y-117871084D01*
X99534133Y-117797072D01*
X99610273Y-117440213D01*
X99644115Y-117015346D01*
X99639511Y-116473815D01*
X99639302Y-116468135D01*
X99627642Y-116247333D01*
X98655512Y-116247333D01*
X95879635Y-116247333D01*
X95767927Y-115869004D01*
X95706045Y-115621115D01*
X95710839Y-115450495D01*
X95790108Y-115275645D01*
X95831216Y-115207527D01*
X96049410Y-114941140D01*
X96293128Y-114780399D01*
X96523750Y-114748240D01*
X96577788Y-114764174D01*
X97052683Y-114898419D01*
X97484914Y-114901372D01*
X97591370Y-114878262D01*
X97813638Y-114836966D01*
X97970572Y-114883674D01*
X98103245Y-114992071D01*
X98399489Y-115364820D01*
X98575030Y-115830265D01*
X98596497Y-115932758D01*
X98655512Y-116247333D01*
X99627642Y-116247333D01*
X99616560Y-116037507D01*
X99578511Y-115721435D01*
X99514206Y-115465198D01*
X99412700Y-115214076D01*
X99370945Y-115126618D01*
X99182847Y-114809421D01*
X98951341Y-114509207D01*
X98800839Y-114357558D01*
X98597970Y-114165287D01*
X98499049Y-113998125D01*
X98468300Y-113785518D01*
X98467017Y-113699211D01*
X98460986Y-113663177D01*
X97705333Y-113663177D01*
X97639610Y-113943246D01*
X97468119Y-114117790D01*
X97229382Y-114169913D01*
X96961919Y-114082719D01*
X96879833Y-114025270D01*
X96799818Y-113887120D01*
X95852664Y-113887120D01*
X95487832Y-114212156D01*
X95223930Y-114409638D01*
X95041625Y-114459957D01*
X94942013Y-114363335D01*
X94926188Y-114119996D01*
X94928176Y-114098186D01*
X95025325Y-113840189D01*
X95176744Y-113715011D01*
X95352029Y-113638515D01*
X95495418Y-113661719D01*
X95626242Y-113738763D01*
X95852664Y-113887120D01*
X96799818Y-113887120D01*
X96778904Y-113851011D01*
X96788466Y-113626655D01*
X96886167Y-113407113D01*
X97049657Y-113247298D01*
X97216022Y-113199333D01*
X97499955Y-113260338D01*
X97664225Y-113439449D01*
X97705333Y-113663177D01*
X98460986Y-113663177D01*
X98395417Y-113271475D01*
X98201646Y-112921023D01*
X97916068Y-112658904D01*
X97569046Y-112496170D01*
X97190943Y-112443872D01*
X96812125Y-112513059D01*
X96812125Y-112513059D01*
G37*
X96812125Y-112513059D02*
X96462954Y-112714784D01*
X96280716Y-112903522D01*
X96145456Y-113052096D01*
X96046201Y-113076366D01*
X95960797Y-113022639D01*
X95798948Y-112956430D01*
X95540047Y-112915574D01*
X95385013Y-112909047D01*
X94924408Y-112981735D01*
X94555110Y-113187898D01*
X94295173Y-113509686D01*
X94162653Y-113929252D01*
X94149333Y-114130666D01*
X94211949Y-114544251D01*
X94384364Y-114894912D01*
X94581362Y-115092427D01*
X94697057Y-115214067D01*
X94707895Y-115302685D01*
X94663038Y-115429699D01*
X94605979Y-115661161D01*
X94572869Y-115822929D01*
X94532155Y-116154443D01*
X94562862Y-116410762D01*
X94609483Y-116543521D01*
X94694190Y-116715501D01*
X94801068Y-116847702D01*
X94951901Y-116945274D01*
X95168477Y-117013363D01*
X95472582Y-117057118D01*
X95886001Y-117081687D01*
X96430522Y-117092218D01*
X96939129Y-117094000D01*
X97527806Y-117093789D01*
X97966896Y-117097460D01*
X98276122Y-117111467D01*
X98475211Y-117142265D01*
X98583887Y-117196308D01*
X98621876Y-117280051D01*
X98608904Y-117399947D01*
X98564695Y-117562452D01*
X98548274Y-117620537D01*
X98348372Y-118044968D01*
X98020911Y-118404917D01*
X97666503Y-118628188D01*
X97299620Y-118733998D01*
X96844591Y-118778642D01*
X96371616Y-118760950D01*
X95950899Y-118679751D01*
X95885000Y-118657891D01*
X95491288Y-118552181D01*
X95215695Y-118563949D01*
X95052534Y-118695149D01*
X94996120Y-118947733D01*
X94996000Y-118963233D01*
X95020801Y-119143449D01*
X95117151Y-119275732D01*
X95317967Y-119388989D01*
X95599684Y-119493335D01*
X96105668Y-119614932D01*
X96672310Y-119673741D01*
X97228511Y-119666516D01*
X97703174Y-119590013D01*
X97705333Y-119589421D01*
X98312363Y-119338818D01*
X98829506Y-118955384D01*
X99236085Y-118459385D01*
X99511423Y-117871084D01*
X99534133Y-117797072D01*
X99610273Y-117440213D01*
X99644115Y-117015346D01*
X99639511Y-116473815D01*
X99639302Y-116468135D01*
X99627642Y-116247333D01*
X98655512Y-116247333D01*
X95879635Y-116247333D01*
X95767927Y-115869004D01*
X95706045Y-115621115D01*
X95710839Y-115450495D01*
X95790108Y-115275645D01*
X95831216Y-115207527D01*
X96049410Y-114941140D01*
X96293128Y-114780399D01*
X96523750Y-114748240D01*
X96577788Y-114764174D01*
X97052683Y-114898419D01*
X97484914Y-114901372D01*
X97591370Y-114878262D01*
X97813638Y-114836966D01*
X97970572Y-114883674D01*
X98103245Y-114992071D01*
X98399489Y-115364820D01*
X98575030Y-115830265D01*
X98596497Y-115932758D01*
X98655512Y-116247333D01*
X99627642Y-116247333D01*
X99616560Y-116037507D01*
X99578511Y-115721435D01*
X99514206Y-115465198D01*
X99412700Y-115214076D01*
X99370945Y-115126618D01*
X99182847Y-114809421D01*
X98951341Y-114509207D01*
X98800839Y-114357558D01*
X98597970Y-114165287D01*
X98499049Y-113998125D01*
X98468300Y-113785518D01*
X98467017Y-113699211D01*
X98460986Y-113663177D01*
X97705333Y-113663177D01*
X97639610Y-113943246D01*
X97468119Y-114117790D01*
X97229382Y-114169913D01*
X96961919Y-114082719D01*
X96879833Y-114025270D01*
X96799818Y-113887120D01*
X95852664Y-113887120D01*
X95487832Y-114212156D01*
X95223930Y-114409638D01*
X95041625Y-114459957D01*
X94942013Y-114363335D01*
X94926188Y-114119996D01*
X94928176Y-114098186D01*
X95025325Y-113840189D01*
X95176744Y-113715011D01*
X95352029Y-113638515D01*
X95495418Y-113661719D01*
X95626242Y-113738763D01*
X95852664Y-113887120D01*
X96799818Y-113887120D01*
X96778904Y-113851011D01*
X96788466Y-113626655D01*
X96886167Y-113407113D01*
X97049657Y-113247298D01*
X97216022Y-113199333D01*
X97499955Y-113260338D01*
X97664225Y-113439449D01*
X97705333Y-113663177D01*
X98460986Y-113663177D01*
X98395417Y-113271475D01*
X98201646Y-112921023D01*
X97916068Y-112658904D01*
X97569046Y-112496170D01*
X97190943Y-112443872D01*
X96812125Y-112513059D01*
G36*
X121479903Y-111480564D02*
X121376176Y-111592288D01*
X121307516Y-111791365D01*
X121266995Y-112098124D01*
X121247689Y-112532891D01*
X121242669Y-113115994D01*
X121242666Y-113132946D01*
X121242666Y-114468214D01*
X120868343Y-114182487D01*
X120357331Y-113892572D01*
X119794224Y-113746809D01*
X119215864Y-113748754D01*
X118659096Y-113901962D01*
X118540193Y-113957833D01*
X118153796Y-114243796D01*
X117866248Y-114660336D01*
X117718868Y-115039254D01*
X117680803Y-115248224D01*
X117649579Y-115580676D01*
X117625294Y-116008130D01*
X117608048Y-116502106D01*
X117597937Y-117034123D01*
X117595062Y-117575701D01*
X117599521Y-118098361D01*
X117611413Y-118573622D01*
X117630835Y-118973004D01*
X117657887Y-119268026D01*
X117692668Y-119430208D01*
X117703600Y-119447733D01*
X117855141Y-119519250D01*
X118077854Y-119549330D01*
X118079799Y-119549333D01*
X118244631Y-119539403D01*
X118372018Y-119496820D01*
X118466754Y-119402392D01*
X118533632Y-119236931D01*
X118577444Y-118981245D01*
X118602985Y-118616143D01*
X118615046Y-118122436D01*
X118618423Y-117480933D01*
X118618472Y-117392661D01*
X118622064Y-116691341D01*
X118634818Y-116138562D01*
X118660329Y-115713623D01*
X118702186Y-115395823D01*
X118763983Y-115164461D01*
X118849313Y-114998836D01*
X118961766Y-114878246D01*
X119067696Y-114803912D01*
X119469760Y-114651098D01*
X119895639Y-114649087D01*
X120311513Y-114789459D01*
X120683565Y-115063791D01*
X120840167Y-115245291D01*
X120975850Y-115445907D01*
X121077618Y-115651275D01*
X121150183Y-115889398D01*
X121198256Y-116188281D01*
X121226545Y-116575925D01*
X121239762Y-117080336D01*
X121242666Y-117638128D01*
X121246148Y-118256595D01*
X121260441Y-118726052D01*
X121291316Y-119066746D01*
X121344545Y-119298926D01*
X121425899Y-119442839D01*
X121541149Y-119518733D01*
X121696068Y-119546856D01*
X121787434Y-119549333D01*
X122023815Y-119507855D01*
X122184800Y-119409402D01*
X122213915Y-119345504D01*
X122238437Y-119220720D01*
X122258858Y-119021349D01*
X122275671Y-118733687D01*
X122289366Y-118344030D01*
X122300435Y-117838677D01*
X122309371Y-117203922D01*
X122316666Y-116426065D01*
X122322315Y-115578236D01*
X122327504Y-114640528D01*
X122330141Y-113857948D01*
X122328504Y-113216292D01*
X122320871Y-112701355D01*
X122305519Y-112298934D01*
X122280727Y-111994824D01*
X122244771Y-111774822D01*
X122195930Y-111624724D01*
X122132481Y-111530325D01*
X122052702Y-111477423D01*
X121954870Y-111451812D01*
X121837264Y-111439290D01*
X121820265Y-111437868D01*
X121625624Y-111435867D01*
X121479903Y-111480564D01*
X121479903Y-111480564D01*
G37*
X121479903Y-111480564D02*
X121376176Y-111592288D01*
X121307516Y-111791365D01*
X121266995Y-112098124D01*
X121247689Y-112532891D01*
X121242669Y-113115994D01*
X121242666Y-113132946D01*
X121242666Y-114468214D01*
X120868343Y-114182487D01*
X120357331Y-113892572D01*
X119794224Y-113746809D01*
X119215864Y-113748754D01*
X118659096Y-113901962D01*
X118540193Y-113957833D01*
X118153796Y-114243796D01*
X117866248Y-114660336D01*
X117718868Y-115039254D01*
X117680803Y-115248224D01*
X117649579Y-115580676D01*
X117625294Y-116008130D01*
X117608048Y-116502106D01*
X117597937Y-117034123D01*
X117595062Y-117575701D01*
X117599521Y-118098361D01*
X117611413Y-118573622D01*
X117630835Y-118973004D01*
X117657887Y-119268026D01*
X117692668Y-119430208D01*
X117703600Y-119447733D01*
X117855141Y-119519250D01*
X118077854Y-119549330D01*
X118079799Y-119549333D01*
X118244631Y-119539403D01*
X118372018Y-119496820D01*
X118466754Y-119402392D01*
X118533632Y-119236931D01*
X118577444Y-118981245D01*
X118602985Y-118616143D01*
X118615046Y-118122436D01*
X118618423Y-117480933D01*
X118618472Y-117392661D01*
X118622064Y-116691341D01*
X118634818Y-116138562D01*
X118660329Y-115713623D01*
X118702186Y-115395823D01*
X118763983Y-115164461D01*
X118849313Y-114998836D01*
X118961766Y-114878246D01*
X119067696Y-114803912D01*
X119469760Y-114651098D01*
X119895639Y-114649087D01*
X120311513Y-114789459D01*
X120683565Y-115063791D01*
X120840167Y-115245291D01*
X120975850Y-115445907D01*
X121077618Y-115651275D01*
X121150183Y-115889398D01*
X121198256Y-116188281D01*
X121226545Y-116575925D01*
X121239762Y-117080336D01*
X121242666Y-117638128D01*
X121246148Y-118256595D01*
X121260441Y-118726052D01*
X121291316Y-119066746D01*
X121344545Y-119298926D01*
X121425899Y-119442839D01*
X121541149Y-119518733D01*
X121696068Y-119546856D01*
X121787434Y-119549333D01*
X122023815Y-119507855D01*
X122184800Y-119409402D01*
X122213915Y-119345504D01*
X122238437Y-119220720D01*
X122258858Y-119021349D01*
X122275671Y-118733687D01*
X122289366Y-118344030D01*
X122300435Y-117838677D01*
X122309371Y-117203922D01*
X122316666Y-116426065D01*
X122322315Y-115578236D01*
X122327504Y-114640528D01*
X122330141Y-113857948D01*
X122328504Y-113216292D01*
X122320871Y-112701355D01*
X122305519Y-112298934D01*
X122280727Y-111994824D01*
X122244771Y-111774822D01*
X122195930Y-111624724D01*
X122132481Y-111530325D01*
X122052702Y-111477423D01*
X121954870Y-111451812D01*
X121837264Y-111439290D01*
X121820265Y-111437868D01*
X121625624Y-111435867D01*
X121479903Y-111480564D01*
G36*
X139975186Y-117655890D02*
X139312576Y-117894067D01*
X138694479Y-118274607D01*
X138269677Y-118658723D01*
X137797524Y-119270710D01*
X137475235Y-119933408D01*
X137299065Y-120626270D01*
X137265268Y-121328747D01*
X137370098Y-122020294D01*
X137609811Y-122680362D01*
X137980660Y-123288403D01*
X138478900Y-123823872D01*
X139100785Y-124266220D01*
X139312323Y-124378394D01*
X139614135Y-124518526D01*
X139866902Y-124606573D01*
X140132242Y-124656254D01*
X140471775Y-124681289D01*
X140709323Y-124689437D01*
X141210404Y-124686998D01*
X141618688Y-124652033D01*
X141859000Y-124600244D01*
X142567496Y-124286273D01*
X143176245Y-123856192D01*
X143676198Y-123329786D01*
X144058307Y-122726839D01*
X144313522Y-122067138D01*
X144432794Y-121370465D01*
X144407076Y-120656607D01*
X144227317Y-119945348D01*
X144113026Y-119671912D01*
X143721092Y-119014513D01*
X143228103Y-118474237D01*
X142654856Y-118054689D01*
X142022145Y-117759475D01*
X141350766Y-117592199D01*
X140661515Y-117556469D01*
X139975186Y-117655890D01*
X139975186Y-117655890D01*
G37*
X139975186Y-117655890D02*
X139312576Y-117894067D01*
X138694479Y-118274607D01*
X138269677Y-118658723D01*
X137797524Y-119270710D01*
X137475235Y-119933408D01*
X137299065Y-120626270D01*
X137265268Y-121328747D01*
X137370098Y-122020294D01*
X137609811Y-122680362D01*
X137980660Y-123288403D01*
X138478900Y-123823872D01*
X139100785Y-124266220D01*
X139312323Y-124378394D01*
X139614135Y-124518526D01*
X139866902Y-124606573D01*
X140132242Y-124656254D01*
X140471775Y-124681289D01*
X140709323Y-124689437D01*
X141210404Y-124686998D01*
X141618688Y-124652033D01*
X141859000Y-124600244D01*
X142567496Y-124286273D01*
X143176245Y-123856192D01*
X143676198Y-123329786D01*
X144058307Y-122726839D01*
X144313522Y-122067138D01*
X144432794Y-121370465D01*
X144407076Y-120656607D01*
X144227317Y-119945348D01*
X144113026Y-119671912D01*
X143721092Y-119014513D01*
X143228103Y-118474237D01*
X142654856Y-118054689D01*
X142022145Y-117759475D01*
X141350766Y-117592199D01*
X140661515Y-117556469D01*
X139975186Y-117655890D01*
G36*
X131309670Y-119711271D02*
X130806389Y-119915865D01*
X130353397Y-120228467D01*
X129987934Y-120622491D01*
X129747239Y-121071354D01*
X129724236Y-121141646D01*
X129625212Y-121736187D01*
X129674686Y-122316088D01*
X129859328Y-122855239D01*
X130165810Y-123327533D01*
X130580804Y-123706860D01*
X131090982Y-123967113D01*
X131181502Y-123996240D01*
X131616671Y-124095700D01*
X131998515Y-124102231D01*
X132408548Y-124013713D01*
X132573374Y-123960032D01*
X133100325Y-123695288D01*
X133521859Y-123316384D01*
X133827581Y-122849317D01*
X134007095Y-122320087D01*
X134050007Y-121754691D01*
X133945921Y-121179128D01*
X133815442Y-120853627D01*
X133484544Y-120359994D01*
X133042214Y-119986093D01*
X132507173Y-119743330D01*
X131898143Y-119643117D01*
X131826000Y-119641268D01*
X131309670Y-119711271D01*
X131309670Y-119711271D01*
G37*
X131309670Y-119711271D02*
X130806389Y-119915865D01*
X130353397Y-120228467D01*
X129987934Y-120622491D01*
X129747239Y-121071354D01*
X129724236Y-121141646D01*
X129625212Y-121736187D01*
X129674686Y-122316088D01*
X129859328Y-122855239D01*
X130165810Y-123327533D01*
X130580804Y-123706860D01*
X131090982Y-123967113D01*
X131181502Y-123996240D01*
X131616671Y-124095700D01*
X131998515Y-124102231D01*
X132408548Y-124013713D01*
X132573374Y-123960032D01*
X133100325Y-123695288D01*
X133521859Y-123316384D01*
X133827581Y-122849317D01*
X134007095Y-122320087D01*
X134050007Y-121754691D01*
X133945921Y-121179128D01*
X133815442Y-120853627D01*
X133484544Y-120359994D01*
X133042214Y-119986093D01*
X132507173Y-119743330D01*
X131898143Y-119643117D01*
X131826000Y-119641268D01*
X131309670Y-119711271D01*
G36*
X97872256Y-115793883D02*
X97589563Y-115803025D01*
X97409000Y-115808880D01*
X97125183Y-115830644D01*
X96980039Y-115878422D01*
X96943333Y-115951000D01*
X96975053Y-116015908D01*
X97090201Y-116054980D01*
X97318761Y-116073787D01*
X97626875Y-116078000D01*
X97966317Y-116074105D01*
X98168173Y-116057647D01*
X98264099Y-116021463D01*
X98285757Y-115958393D01*
X98281882Y-115929833D01*
X98183210Y-115808760D01*
X98064007Y-115787714D01*
X97872256Y-115793883D01*
X97872256Y-115793883D01*
G37*
X97872256Y-115793883D02*
X97589563Y-115803025D01*
X97409000Y-115808880D01*
X97125183Y-115830644D01*
X96980039Y-115878422D01*
X96943333Y-115951000D01*
X96975053Y-116015908D01*
X97090201Y-116054980D01*
X97318761Y-116073787D01*
X97626875Y-116078000D01*
X97966317Y-116074105D01*
X98168173Y-116057647D01*
X98264099Y-116021463D01*
X98285757Y-115958393D01*
X98281882Y-115929833D01*
X98183210Y-115808760D01*
X98064007Y-115787714D01*
X97872256Y-115793883D01*
G36*
X97704418Y-115268678D02*
X97399280Y-115335478D01*
X97151785Y-115424400D01*
X97006296Y-115521298D01*
X96985666Y-115568840D01*
X97032986Y-115674622D01*
X97188753Y-115707394D01*
X97473682Y-115669902D01*
X97578333Y-115647435D01*
X97846979Y-115586300D01*
X98075622Y-115533808D01*
X98107500Y-115526416D01*
X98273779Y-115444726D01*
X98296456Y-115341252D01*
X98188251Y-115259305D01*
X98022833Y-115238147D01*
X97704418Y-115268678D01*
X97704418Y-115268678D01*
G37*
X97704418Y-115268678D02*
X97399280Y-115335478D01*
X97151785Y-115424400D01*
X97006296Y-115521298D01*
X96985666Y-115568840D01*
X97032986Y-115674622D01*
X97188753Y-115707394D01*
X97473682Y-115669902D01*
X97578333Y-115647435D01*
X97846979Y-115586300D01*
X98075622Y-115533808D01*
X98107500Y-115526416D01*
X98273779Y-115444726D01*
X98296456Y-115341252D01*
X98188251Y-115259305D01*
X98022833Y-115238147D01*
X97704418Y-115268678D01*
G36*
X96137900Y-114978245D02*
X96028762Y-115158965D01*
X96031282Y-115373274D01*
X96140513Y-115544240D01*
X96175767Y-115567021D01*
X96339950Y-115641265D01*
X96452899Y-115621278D01*
X96597779Y-115492220D01*
X96598383Y-115491616D01*
X96713713Y-115286562D01*
X96686880Y-115087268D01*
X96530072Y-114946114D01*
X96466450Y-114924619D01*
X96259497Y-114924510D01*
X96137900Y-114978245D01*
X96137900Y-114978245D01*
G37*
X96137900Y-114978245D02*
X96028762Y-115158965D01*
X96031282Y-115373274D01*
X96140513Y-115544240D01*
X96175767Y-115567021D01*
X96339950Y-115641265D01*
X96452899Y-115621278D01*
X96597779Y-115492220D01*
X96598383Y-115491616D01*
X96713713Y-115286562D01*
X96686880Y-115087268D01*
X96530072Y-114946114D01*
X96466450Y-114924619D01*
X96259497Y-114924510D01*
X96137900Y-114978245D01*
G36*
X137700969Y-73134387D02*
X137304505Y-73145314D01*
X136784998Y-73164202D01*
X136157663Y-73190220D01*
X135437714Y-73222537D01*
X134640365Y-73260323D01*
X133780830Y-73302749D01*
X132874324Y-73348983D01*
X131936062Y-73398195D01*
X130981257Y-73449555D01*
X130025123Y-73502233D01*
X129082876Y-73555398D01*
X128169729Y-73608220D01*
X127300896Y-73659868D01*
X126491592Y-73709512D01*
X125757032Y-73756323D01*
X125112429Y-73799468D01*
X124572997Y-73838119D01*
X124153951Y-73871445D01*
X123870506Y-73898615D01*
X123737875Y-73918799D01*
X123730698Y-73921996D01*
X123698447Y-73975884D01*
X123672421Y-74088881D01*
X123652019Y-74276528D01*
X123636639Y-74554366D01*
X123625682Y-74937939D01*
X123618547Y-75442786D01*
X123614634Y-76084451D01*
X123613341Y-76878474D01*
X123613333Y-76959244D01*
X123613648Y-77742690D01*
X123615244Y-78374299D01*
X123619104Y-78871569D01*
X123626208Y-79251994D01*
X123637536Y-79533073D01*
X123654069Y-79732301D01*
X123676788Y-79867175D01*
X123706673Y-79955191D01*
X123744705Y-80013846D01*
X123786908Y-80056172D01*
X123926467Y-80155930D01*
X124067361Y-80159480D01*
X124231408Y-80100773D01*
X124914258Y-79865763D01*
X125572522Y-79731354D01*
X126161544Y-79706195D01*
X126238000Y-79712077D01*
X126937067Y-79852701D01*
X127539124Y-80127227D01*
X128036913Y-80525965D01*
X128423177Y-81039228D01*
X128690660Y-81657327D01*
X128832103Y-82370572D01*
X128840249Y-83169275D01*
X128839109Y-83184650D01*
X128713136Y-83893328D01*
X128455279Y-84525055D01*
X128077512Y-85061371D01*
X127591805Y-85483816D01*
X127211666Y-85694086D01*
X126693794Y-85854403D01*
X126097098Y-85927063D01*
X125488894Y-85909947D01*
X124936500Y-85800933D01*
X124841000Y-85768778D01*
X124370888Y-85612854D01*
X124035526Y-85539339D01*
X123822717Y-85546500D01*
X123731284Y-85611071D01*
X123705116Y-85738216D01*
X123687444Y-86001832D01*
X123677644Y-86371811D01*
X123675093Y-86818047D01*
X123679168Y-87310434D01*
X123689246Y-87818866D01*
X123704704Y-88313237D01*
X123724918Y-88763441D01*
X123749266Y-89139371D01*
X123777124Y-89410922D01*
X123807870Y-89547987D01*
X123812920Y-89555326D01*
X123898400Y-89599579D01*
X124127992Y-89708482D01*
X124491410Y-89877393D01*
X124978370Y-90101671D01*
X125578589Y-90376674D01*
X126281780Y-90697761D01*
X127077660Y-91060289D01*
X127955945Y-91459618D01*
X128906350Y-91891106D01*
X129918591Y-92350110D01*
X130982383Y-92831990D01*
X132087443Y-93332103D01*
X133223484Y-93845809D01*
X134380224Y-94368465D01*
X135547378Y-94895430D01*
X136714662Y-95422062D01*
X137871790Y-95943720D01*
X139008479Y-96455762D01*
X140114445Y-96953546D01*
X141179402Y-97432431D01*
X142193066Y-97887775D01*
X143145154Y-98314937D01*
X144025381Y-98709274D01*
X144823462Y-99066146D01*
X145529112Y-99380911D01*
X146132048Y-99648926D01*
X146621986Y-99865551D01*
X146988640Y-100026143D01*
X147221727Y-100126062D01*
X147310961Y-100160665D01*
X147311037Y-100160666D01*
X147413823Y-100104401D01*
X147518544Y-100005833D01*
X147541903Y-99969834D01*
X147562530Y-99909932D01*
X147580591Y-99816125D01*
X147596255Y-99678413D01*
X147609687Y-99486793D01*
X147621055Y-99231264D01*
X147630525Y-98901825D01*
X147638263Y-98488474D01*
X147644438Y-97981209D01*
X147649215Y-97370030D01*
X147652761Y-96644934D01*
X147655242Y-95795921D01*
X147656827Y-94812988D01*
X147657681Y-93686134D01*
X147657971Y-92405358D01*
X147657952Y-91644999D01*
X147657275Y-83854702D01*
X146896666Y-83854702D01*
X146896666Y-99146939D01*
X146621500Y-99029167D01*
X146511831Y-98980528D01*
X146257066Y-98866521D01*
X145866500Y-98691327D01*
X145349429Y-98459127D01*
X144715148Y-98174101D01*
X143972953Y-97840430D01*
X143132139Y-97462295D01*
X142202002Y-97043875D01*
X141191836Y-96589352D01*
X140110939Y-96102907D01*
X138968604Y-95588719D01*
X137774128Y-95050970D01*
X136536805Y-94493840D01*
X136101666Y-94297889D01*
X134842759Y-93730926D01*
X133617809Y-93179187D01*
X132436622Y-92647092D01*
X131309005Y-92139062D01*
X130244765Y-91659516D01*
X129253707Y-91212875D01*
X128345638Y-90803559D01*
X127530364Y-90435990D01*
X126817693Y-90114587D01*
X126217429Y-89843771D01*
X125739381Y-89627961D01*
X125393353Y-89471580D01*
X125189153Y-89379046D01*
X125158500Y-89365075D01*
X124460000Y-89045768D01*
X124460000Y-87863159D01*
X124461627Y-87394452D01*
X124468575Y-87070725D01*
X124483942Y-86867638D01*
X124510829Y-86760852D01*
X124552333Y-86726028D01*
X124603570Y-86735642D01*
X124754900Y-86775243D01*
X125019211Y-86828023D01*
X125341861Y-86883156D01*
X125372406Y-86887943D01*
X126186108Y-86939586D01*
X126969196Y-86845081D01*
X127701081Y-86613727D01*
X128361174Y-86254823D01*
X128928886Y-85777668D01*
X129383629Y-85191560D01*
X129473714Y-85035635D01*
X129742391Y-84386255D01*
X129908368Y-83646652D01*
X129971063Y-82861266D01*
X129929890Y-82074538D01*
X129784267Y-81330908D01*
X129533609Y-80674818D01*
X129531053Y-80669796D01*
X129281419Y-80285259D01*
X128932779Y-79882649D01*
X128538884Y-79516963D01*
X128153487Y-79243196D01*
X128116411Y-79222407D01*
X127498928Y-78965396D01*
X126790240Y-78801259D01*
X126044532Y-78736064D01*
X125315991Y-78775880D01*
X124880732Y-78860058D01*
X124625560Y-78921611D01*
X124447951Y-78955700D01*
X124395107Y-78957329D01*
X124389688Y-78869992D01*
X124386549Y-78636619D01*
X124385691Y-78280495D01*
X124387117Y-77824901D01*
X124390826Y-77293120D01*
X124394993Y-76868646D01*
X124417666Y-74802750D01*
X146896666Y-83854702D01*
X147657275Y-83854702D01*
X147657238Y-83439000D01*
X142910366Y-78316666D01*
X142179930Y-77529083D01*
X141481443Y-76777166D01*
X140823610Y-76070216D01*
X140215139Y-75417532D01*
X139664734Y-74828414D01*
X139181103Y-74312163D01*
X138772952Y-73878078D01*
X138448986Y-73535458D01*
X138217911Y-73293604D01*
X138088434Y-73161815D01*
X138063913Y-73139735D01*
X137959177Y-73132251D01*
X137700969Y-73134387D01*
X137700969Y-73134387D01*
G37*
X137700969Y-73134387D02*
X137304505Y-73145314D01*
X136784998Y-73164202D01*
X136157663Y-73190220D01*
X135437714Y-73222537D01*
X134640365Y-73260323D01*
X133780830Y-73302749D01*
X132874324Y-73348983D01*
X131936062Y-73398195D01*
X130981257Y-73449555D01*
X130025123Y-73502233D01*
X129082876Y-73555398D01*
X128169729Y-73608220D01*
X127300896Y-73659868D01*
X126491592Y-73709512D01*
X125757032Y-73756323D01*
X125112429Y-73799468D01*
X124572997Y-73838119D01*
X124153951Y-73871445D01*
X123870506Y-73898615D01*
X123737875Y-73918799D01*
X123730698Y-73921996D01*
X123698447Y-73975884D01*
X123672421Y-74088881D01*
X123652019Y-74276528D01*
X123636639Y-74554366D01*
X123625682Y-74937939D01*
X123618547Y-75442786D01*
X123614634Y-76084451D01*
X123613341Y-76878474D01*
X123613333Y-76959244D01*
X123613648Y-77742690D01*
X123615244Y-78374299D01*
X123619104Y-78871569D01*
X123626208Y-79251994D01*
X123637536Y-79533073D01*
X123654069Y-79732301D01*
X123676788Y-79867175D01*
X123706673Y-79955191D01*
X123744705Y-80013846D01*
X123786908Y-80056172D01*
X123926467Y-80155930D01*
X124067361Y-80159480D01*
X124231408Y-80100773D01*
X124914258Y-79865763D01*
X125572522Y-79731354D01*
X126161544Y-79706195D01*
X126238000Y-79712077D01*
X126937067Y-79852701D01*
X127539124Y-80127227D01*
X128036913Y-80525965D01*
X128423177Y-81039228D01*
X128690660Y-81657327D01*
X128832103Y-82370572D01*
X128840249Y-83169275D01*
X128839109Y-83184650D01*
X128713136Y-83893328D01*
X128455279Y-84525055D01*
X128077512Y-85061371D01*
X127591805Y-85483816D01*
X127211666Y-85694086D01*
X126693794Y-85854403D01*
X126097098Y-85927063D01*
X125488894Y-85909947D01*
X124936500Y-85800933D01*
X124841000Y-85768778D01*
X124370888Y-85612854D01*
X124035526Y-85539339D01*
X123822717Y-85546500D01*
X123731284Y-85611071D01*
X123705116Y-85738216D01*
X123687444Y-86001832D01*
X123677644Y-86371811D01*
X123675093Y-86818047D01*
X123679168Y-87310434D01*
X123689246Y-87818866D01*
X123704704Y-88313237D01*
X123724918Y-88763441D01*
X123749266Y-89139371D01*
X123777124Y-89410922D01*
X123807870Y-89547987D01*
X123812920Y-89555326D01*
X123898400Y-89599579D01*
X124127992Y-89708482D01*
X124491410Y-89877393D01*
X124978370Y-90101671D01*
X125578589Y-90376674D01*
X126281780Y-90697761D01*
X127077660Y-91060289D01*
X127955945Y-91459618D01*
X128906350Y-91891106D01*
X129918591Y-92350110D01*
X130982383Y-92831990D01*
X132087443Y-93332103D01*
X133223484Y-93845809D01*
X134380224Y-94368465D01*
X135547378Y-94895430D01*
X136714662Y-95422062D01*
X137871790Y-95943720D01*
X139008479Y-96455762D01*
X140114445Y-96953546D01*
X141179402Y-97432431D01*
X142193066Y-97887775D01*
X143145154Y-98314937D01*
X144025381Y-98709274D01*
X144823462Y-99066146D01*
X145529112Y-99380911D01*
X146132048Y-99648926D01*
X146621986Y-99865551D01*
X146988640Y-100026143D01*
X147221727Y-100126062D01*
X147310961Y-100160665D01*
X147311037Y-100160666D01*
X147413823Y-100104401D01*
X147518544Y-100005833D01*
X147541903Y-99969834D01*
X147562530Y-99909932D01*
X147580591Y-99816125D01*
X147596255Y-99678413D01*
X147609687Y-99486793D01*
X147621055Y-99231264D01*
X147630525Y-98901825D01*
X147638263Y-98488474D01*
X147644438Y-97981209D01*
X147649215Y-97370030D01*
X147652761Y-96644934D01*
X147655242Y-95795921D01*
X147656827Y-94812988D01*
X147657681Y-93686134D01*
X147657971Y-92405358D01*
X147657952Y-91644999D01*
X147657275Y-83854702D01*
X146896666Y-83854702D01*
X146896666Y-99146939D01*
X146621500Y-99029167D01*
X146511831Y-98980528D01*
X146257066Y-98866521D01*
X145866500Y-98691327D01*
X145349429Y-98459127D01*
X144715148Y-98174101D01*
X143972953Y-97840430D01*
X143132139Y-97462295D01*
X142202002Y-97043875D01*
X141191836Y-96589352D01*
X140110939Y-96102907D01*
X138968604Y-95588719D01*
X137774128Y-95050970D01*
X136536805Y-94493840D01*
X136101666Y-94297889D01*
X134842759Y-93730926D01*
X133617809Y-93179187D01*
X132436622Y-92647092D01*
X131309005Y-92139062D01*
X130244765Y-91659516D01*
X129253707Y-91212875D01*
X128345638Y-90803559D01*
X127530364Y-90435990D01*
X126817693Y-90114587D01*
X126217429Y-89843771D01*
X125739381Y-89627961D01*
X125393353Y-89471580D01*
X125189153Y-89379046D01*
X125158500Y-89365075D01*
X124460000Y-89045768D01*
X124460000Y-87863159D01*
X124461627Y-87394452D01*
X124468575Y-87070725D01*
X124483942Y-86867638D01*
X124510829Y-86760852D01*
X124552333Y-86726028D01*
X124603570Y-86735642D01*
X124754900Y-86775243D01*
X125019211Y-86828023D01*
X125341861Y-86883156D01*
X125372406Y-86887943D01*
X126186108Y-86939586D01*
X126969196Y-86845081D01*
X127701081Y-86613727D01*
X128361174Y-86254823D01*
X128928886Y-85777668D01*
X129383629Y-85191560D01*
X129473714Y-85035635D01*
X129742391Y-84386255D01*
X129908368Y-83646652D01*
X129971063Y-82861266D01*
X129929890Y-82074538D01*
X129784267Y-81330908D01*
X129533609Y-80674818D01*
X129531053Y-80669796D01*
X129281419Y-80285259D01*
X128932779Y-79882649D01*
X128538884Y-79516963D01*
X128153487Y-79243196D01*
X128116411Y-79222407D01*
X127498928Y-78965396D01*
X126790240Y-78801259D01*
X126044532Y-78736064D01*
X125315991Y-78775880D01*
X124880732Y-78860058D01*
X124625560Y-78921611D01*
X124447951Y-78955700D01*
X124395107Y-78957329D01*
X124389688Y-78869992D01*
X124386549Y-78636619D01*
X124385691Y-78280495D01*
X124387117Y-77824901D01*
X124390826Y-77293120D01*
X124394993Y-76868646D01*
X124417666Y-74802750D01*
X146896666Y-83854702D01*
X147657275Y-83854702D01*
X147657238Y-83439000D01*
X142910366Y-78316666D01*
X142179930Y-77529083D01*
X141481443Y-76777166D01*
X140823610Y-76070216D01*
X140215139Y-75417532D01*
X139664734Y-74828414D01*
X139181103Y-74312163D01*
X138772952Y-73878078D01*
X138448986Y-73535458D01*
X138217911Y-73293604D01*
X138088434Y-73161815D01*
X138063913Y-73139735D01*
X137959177Y-73132251D01*
X137700969Y-73134387D01*
G36*
X126962750Y-95854491D02*
X126861182Y-95908656D01*
X126757107Y-96033195D01*
X126626759Y-96256145D01*
X126457518Y-96583500D01*
X126082543Y-97324333D01*
X125737648Y-96583500D01*
X125576093Y-96241971D01*
X125460071Y-96025788D01*
X125364682Y-95906306D01*
X125265027Y-95854881D01*
X125136206Y-95842868D01*
X125093662Y-95842666D01*
X124794572Y-95842666D01*
X124841000Y-98679000D01*
X125116166Y-98705531D01*
X125391333Y-98732062D01*
X125395406Y-97943531D01*
X125399478Y-97155000D01*
X125650763Y-97641833D01*
X125847984Y-97967412D01*
X126024503Y-98127072D01*
X126190518Y-98121383D01*
X126356224Y-97950915D01*
X126498694Y-97689287D01*
X126703666Y-97249909D01*
X126746000Y-97964454D01*
X126788333Y-98679000D01*
X127063500Y-98705531D01*
X127338666Y-98732062D01*
X127338666Y-95842666D01*
X127085580Y-95842666D01*
X126962750Y-95854491D01*
X126962750Y-95854491D01*
G37*
X126962750Y-95854491D02*
X126861182Y-95908656D01*
X126757107Y-96033195D01*
X126626759Y-96256145D01*
X126457518Y-96583500D01*
X126082543Y-97324333D01*
X125737648Y-96583500D01*
X125576093Y-96241971D01*
X125460071Y-96025788D01*
X125364682Y-95906306D01*
X125265027Y-95854881D01*
X125136206Y-95842868D01*
X125093662Y-95842666D01*
X124794572Y-95842666D01*
X124841000Y-98679000D01*
X125116166Y-98705531D01*
X125391333Y-98732062D01*
X125395406Y-97943531D01*
X125399478Y-97155000D01*
X125650763Y-97641833D01*
X125847984Y-97967412D01*
X126024503Y-98127072D01*
X126190518Y-98121383D01*
X126356224Y-97950915D01*
X126498694Y-97689287D01*
X126703666Y-97249909D01*
X126746000Y-97964454D01*
X126788333Y-98679000D01*
X127063500Y-98705531D01*
X127338666Y-98732062D01*
X127338666Y-95842666D01*
X127085580Y-95842666D01*
X126962750Y-95854491D01*
G36*
X123698000Y-98721333D02*
X123937889Y-98721333D01*
X124131797Y-98703200D01*
X124234222Y-98664888D01*
X124256281Y-98562692D01*
X124274302Y-98326644D01*
X124286393Y-97992212D01*
X124290666Y-97606555D01*
X124290666Y-96604666D01*
X123698000Y-96604666D01*
X123698000Y-98721333D01*
X123698000Y-98721333D01*
G37*
X123698000Y-98721333D02*
X123937889Y-98721333D01*
X124131797Y-98703200D01*
X124234222Y-98664888D01*
X124256281Y-98562692D01*
X124274302Y-98326644D01*
X124286393Y-97992212D01*
X124290666Y-97606555D01*
X124290666Y-96604666D01*
X123698000Y-96604666D01*
X123698000Y-98721333D01*
G36*
X122012196Y-96656481D02*
X121848800Y-96740230D01*
X121718381Y-96847478D01*
X121719535Y-96936777D01*
X121799882Y-97035604D01*
X121945353Y-97141222D01*
X122147744Y-97158887D01*
X122269018Y-97143524D01*
X122485376Y-97121686D01*
X122599927Y-97167079D01*
X122675610Y-97307789D01*
X122683594Y-97328525D01*
X122743230Y-97626305D01*
X122704538Y-97890136D01*
X122586976Y-98085436D01*
X122410003Y-98177625D01*
X122222967Y-98147094D01*
X122060240Y-98103609D01*
X121922491Y-98170349D01*
X121835916Y-98255046D01*
X121648883Y-98454133D01*
X121907237Y-98587733D01*
X122293880Y-98707510D01*
X122675708Y-98659988D01*
X122733806Y-98638354D01*
X123017233Y-98437195D01*
X123203914Y-98119037D01*
X123274528Y-97717477D01*
X123274666Y-97697899D01*
X123253413Y-97401816D01*
X123199980Y-97140300D01*
X123173516Y-97067967D01*
X122977877Y-96825131D01*
X122682847Y-96666633D01*
X122342822Y-96605931D01*
X122012196Y-96656481D01*
X122012196Y-96656481D01*
G37*
X122012196Y-96656481D02*
X121848800Y-96740230D01*
X121718381Y-96847478D01*
X121719535Y-96936777D01*
X121799882Y-97035604D01*
X121945353Y-97141222D01*
X122147744Y-97158887D01*
X122269018Y-97143524D01*
X122485376Y-97121686D01*
X122599927Y-97167079D01*
X122675610Y-97307789D01*
X122683594Y-97328525D01*
X122743230Y-97626305D01*
X122704538Y-97890136D01*
X122586976Y-98085436D01*
X122410003Y-98177625D01*
X122222967Y-98147094D01*
X122060240Y-98103609D01*
X121922491Y-98170349D01*
X121835916Y-98255046D01*
X121648883Y-98454133D01*
X121907237Y-98587733D01*
X122293880Y-98707510D01*
X122675708Y-98659988D01*
X122733806Y-98638354D01*
X123017233Y-98437195D01*
X123203914Y-98119037D01*
X123274528Y-97717477D01*
X123274666Y-97697899D01*
X123253413Y-97401816D01*
X123199980Y-97140300D01*
X123173516Y-97067967D01*
X122977877Y-96825131D01*
X122682847Y-96666633D01*
X122342822Y-96605931D01*
X122012196Y-96656481D01*
G36*
X120893759Y-96634163D02*
X120819335Y-96705846D01*
X120819333Y-96706266D01*
X120794343Y-96765171D01*
X120717733Y-96706266D01*
X120551652Y-96631035D01*
X120308686Y-96607766D01*
X120066923Y-96635261D01*
X119904451Y-96712324D01*
X119898666Y-96718814D01*
X119874653Y-96852689D01*
X119976335Y-96991628D01*
X120164309Y-97103061D01*
X120399171Y-97154416D01*
X120426362Y-97155000D01*
X120692333Y-97155000D01*
X120734666Y-97917000D01*
X120777000Y-98679000D01*
X121052166Y-98705531D01*
X121327333Y-98732062D01*
X121327333Y-96604666D01*
X121073333Y-96604666D01*
X120893759Y-96634163D01*
X120893759Y-96634163D01*
G37*
X120893759Y-96634163D02*
X120819335Y-96705846D01*
X120819333Y-96706266D01*
X120794343Y-96765171D01*
X120717733Y-96706266D01*
X120551652Y-96631035D01*
X120308686Y-96607766D01*
X120066923Y-96635261D01*
X119904451Y-96712324D01*
X119898666Y-96718814D01*
X119874653Y-96852689D01*
X119976335Y-96991628D01*
X120164309Y-97103061D01*
X120399171Y-97154416D01*
X120426362Y-97155000D01*
X120692333Y-97155000D01*
X120734666Y-97917000D01*
X120777000Y-98679000D01*
X121052166Y-98705531D01*
X121327333Y-98732062D01*
X121327333Y-96604666D01*
X121073333Y-96604666D01*
X120893759Y-96634163D01*
G36*
X118428991Y-96679473D02*
X118174862Y-96879825D01*
X117992157Y-97169622D01*
X117891369Y-97512765D01*
X117882990Y-97873151D01*
X117977511Y-98214682D01*
X118185425Y-98501255D01*
X118191282Y-98506604D01*
X118435605Y-98635252D01*
X118753612Y-98689840D01*
X119062964Y-98662118D01*
X119201347Y-98607788D01*
X119455951Y-98375240D01*
X119596633Y-98031029D01*
X119631000Y-97679962D01*
X119623150Y-97608667D01*
X119093623Y-97608667D01*
X119067917Y-97870735D01*
X118961685Y-98100257D01*
X118808407Y-98206745D01*
X118646085Y-98177417D01*
X118536312Y-98049566D01*
X118465102Y-97815331D01*
X118454665Y-97544290D01*
X118501992Y-97308817D01*
X118571599Y-97200708D01*
X118755208Y-97125788D01*
X118918637Y-97189356D01*
X119039052Y-97360590D01*
X119093623Y-97608667D01*
X119623150Y-97608667D01*
X119580070Y-97217461D01*
X119419886Y-96883670D01*
X119151018Y-96679278D01*
X118774035Y-96604978D01*
X118744053Y-96604666D01*
X118428991Y-96679473D01*
X118428991Y-96679473D01*
G37*
X118428991Y-96679473D02*
X118174862Y-96879825D01*
X117992157Y-97169622D01*
X117891369Y-97512765D01*
X117882990Y-97873151D01*
X117977511Y-98214682D01*
X118185425Y-98501255D01*
X118191282Y-98506604D01*
X118435605Y-98635252D01*
X118753612Y-98689840D01*
X119062964Y-98662118D01*
X119201347Y-98607788D01*
X119455951Y-98375240D01*
X119596633Y-98031029D01*
X119631000Y-97679962D01*
X119623150Y-97608667D01*
X119093623Y-97608667D01*
X119067917Y-97870735D01*
X118961685Y-98100257D01*
X118808407Y-98206745D01*
X118646085Y-98177417D01*
X118536312Y-98049566D01*
X118465102Y-97815331D01*
X118454665Y-97544290D01*
X118501992Y-97308817D01*
X118571599Y-97200708D01*
X118755208Y-97125788D01*
X118918637Y-97189356D01*
X119039052Y-97360590D01*
X119093623Y-97608667D01*
X119623150Y-97608667D01*
X119580070Y-97217461D01*
X119419886Y-96883670D01*
X119151018Y-96679278D01*
X118774035Y-96604978D01*
X118744053Y-96604666D01*
X118428991Y-96679473D01*
G36*
X116999092Y-96634163D02*
X116924669Y-96705846D01*
X116924666Y-96706266D01*
X116899676Y-96765171D01*
X116823066Y-96706266D01*
X116635219Y-96621652D01*
X116363442Y-96615578D01*
X116073926Y-96688237D01*
X116037354Y-96703970D01*
X115848792Y-96760896D01*
X115726414Y-96710107D01*
X115720103Y-96703970D01*
X115523094Y-96611872D01*
X115251797Y-96605636D01*
X114973144Y-96677682D01*
X114761818Y-96812484D01*
X114666851Y-96919730D01*
X114606205Y-97038129D01*
X114572261Y-97206676D01*
X114557401Y-97464365D01*
X114554005Y-97850192D01*
X114554000Y-97876182D01*
X114554000Y-98732062D01*
X114829166Y-98705531D01*
X115104333Y-98679000D01*
X115146666Y-97917854D01*
X115171905Y-97548440D01*
X115202980Y-97316219D01*
X115247803Y-97189065D01*
X115314284Y-97134851D01*
X115341234Y-97127696D01*
X115518148Y-97129963D01*
X115636946Y-97229879D01*
X115706711Y-97447624D01*
X115736528Y-97803380D01*
X115739333Y-98012033D01*
X115739333Y-98721333D01*
X116247333Y-98721333D01*
X116247333Y-98134178D01*
X116271019Y-97645782D01*
X116342789Y-97316647D01*
X116463712Y-97143359D01*
X116566971Y-97112666D01*
X116730145Y-97144465D01*
X116837091Y-97256876D01*
X116897888Y-97475425D01*
X116922614Y-97825635D01*
X116924666Y-98018600D01*
X116924666Y-98721333D01*
X117432666Y-98721333D01*
X117432666Y-96604666D01*
X117178666Y-96604666D01*
X116999092Y-96634163D01*
X116999092Y-96634163D01*
G37*
X116999092Y-96634163D02*
X116924669Y-96705846D01*
X116924666Y-96706266D01*
X116899676Y-96765171D01*
X116823066Y-96706266D01*
X116635219Y-96621652D01*
X116363442Y-96615578D01*
X116073926Y-96688237D01*
X116037354Y-96703970D01*
X115848792Y-96760896D01*
X115726414Y-96710107D01*
X115720103Y-96703970D01*
X115523094Y-96611872D01*
X115251797Y-96605636D01*
X114973144Y-96677682D01*
X114761818Y-96812484D01*
X114666851Y-96919730D01*
X114606205Y-97038129D01*
X114572261Y-97206676D01*
X114557401Y-97464365D01*
X114554005Y-97850192D01*
X114554000Y-97876182D01*
X114554000Y-98732062D01*
X114829166Y-98705531D01*
X115104333Y-98679000D01*
X115146666Y-97917854D01*
X115171905Y-97548440D01*
X115202980Y-97316219D01*
X115247803Y-97189065D01*
X115314284Y-97134851D01*
X115341234Y-97127696D01*
X115518148Y-97129963D01*
X115636946Y-97229879D01*
X115706711Y-97447624D01*
X115736528Y-97803380D01*
X115739333Y-98012033D01*
X115739333Y-98721333D01*
X116247333Y-98721333D01*
X116247333Y-98134178D01*
X116271019Y-97645782D01*
X116342789Y-97316647D01*
X116463712Y-97143359D01*
X116566971Y-97112666D01*
X116730145Y-97144465D01*
X116837091Y-97256876D01*
X116897888Y-97475425D01*
X116922614Y-97825635D01*
X116924666Y-98018600D01*
X116924666Y-98721333D01*
X117432666Y-98721333D01*
X117432666Y-96604666D01*
X117178666Y-96604666D01*
X116999092Y-96634163D01*
G36*
X112910451Y-96662702D02*
X112637331Y-96841130D01*
X112468986Y-97146428D01*
X112400214Y-97585073D01*
X112397987Y-97719632D01*
X112412515Y-98026230D01*
X112464440Y-98227288D01*
X112573149Y-98385642D01*
X112617902Y-98432386D01*
X112895665Y-98611510D01*
X113233764Y-98692613D01*
X113562495Y-98664378D01*
X113698014Y-98607788D01*
X113952617Y-98375240D01*
X114093299Y-98031029D01*
X114127666Y-97679962D01*
X114124639Y-97653287D01*
X113538000Y-97653287D01*
X113522194Y-97950912D01*
X113461021Y-98118194D01*
X113333848Y-98192308D01*
X113230867Y-98206649D01*
X113100880Y-98154073D01*
X113035193Y-98092590D01*
X112969437Y-97915679D01*
X112959476Y-97663274D01*
X112998469Y-97406087D01*
X113079574Y-97214831D01*
X113124325Y-97171315D01*
X113323098Y-97105025D01*
X113457505Y-97195149D01*
X113527267Y-97441360D01*
X113538000Y-97653287D01*
X114124639Y-97653287D01*
X114075754Y-97222577D01*
X113916389Y-96885772D01*
X113655543Y-96677241D01*
X113299184Y-96604680D01*
X113293550Y-96604666D01*
X112910451Y-96662702D01*
X112910451Y-96662702D01*
G37*
X112910451Y-96662702D02*
X112637331Y-96841130D01*
X112468986Y-97146428D01*
X112400214Y-97585073D01*
X112397987Y-97719632D01*
X112412515Y-98026230D01*
X112464440Y-98227288D01*
X112573149Y-98385642D01*
X112617902Y-98432386D01*
X112895665Y-98611510D01*
X113233764Y-98692613D01*
X113562495Y-98664378D01*
X113698014Y-98607788D01*
X113952617Y-98375240D01*
X114093299Y-98031029D01*
X114127666Y-97679962D01*
X114124639Y-97653287D01*
X113538000Y-97653287D01*
X113522194Y-97950912D01*
X113461021Y-98118194D01*
X113333848Y-98192308D01*
X113230867Y-98206649D01*
X113100880Y-98154073D01*
X113035193Y-98092590D01*
X112969437Y-97915679D01*
X112959476Y-97663274D01*
X112998469Y-97406087D01*
X113079574Y-97214831D01*
X113124325Y-97171315D01*
X113323098Y-97105025D01*
X113457505Y-97195149D01*
X113527267Y-97441360D01*
X113538000Y-97653287D01*
X114124639Y-97653287D01*
X114075754Y-97222577D01*
X113916389Y-96885772D01*
X113655543Y-96677241D01*
X113299184Y-96604680D01*
X113293550Y-96604666D01*
X112910451Y-96662702D01*
G36*
X111403537Y-97331440D02*
X111373707Y-97763181D01*
X111312826Y-98043429D01*
X111212579Y-98188492D01*
X111064649Y-98214677D01*
X110967175Y-98187131D01*
X110899419Y-98132617D01*
X110857415Y-98010813D01*
X110835688Y-97789399D01*
X110828766Y-97436057D01*
X110828666Y-97369323D01*
X110828666Y-96604666D01*
X110236000Y-96604666D01*
X110236000Y-98721333D01*
X110490000Y-98721333D01*
X110668351Y-98697413D01*
X110743981Y-98639780D01*
X110744000Y-98638762D01*
X110811348Y-98598937D01*
X110961178Y-98638762D01*
X111272579Y-98714523D01*
X111527071Y-98661064D01*
X111728008Y-98522248D01*
X111834087Y-98422100D01*
X111901890Y-98316220D01*
X111940339Y-98165658D01*
X111958354Y-97931464D01*
X111964857Y-97574688D01*
X111965562Y-97485081D01*
X111971666Y-96647000D01*
X111699871Y-96620720D01*
X111428075Y-96594440D01*
X111403537Y-97331440D01*
X111403537Y-97331440D01*
G37*
X111403537Y-97331440D02*
X111373707Y-97763181D01*
X111312826Y-98043429D01*
X111212579Y-98188492D01*
X111064649Y-98214677D01*
X110967175Y-98187131D01*
X110899419Y-98132617D01*
X110857415Y-98010813D01*
X110835688Y-97789399D01*
X110828766Y-97436057D01*
X110828666Y-97369323D01*
X110828666Y-96604666D01*
X110236000Y-96604666D01*
X110236000Y-98721333D01*
X110490000Y-98721333D01*
X110668351Y-98697413D01*
X110743981Y-98639780D01*
X110744000Y-98638762D01*
X110811348Y-98598937D01*
X110961178Y-98638762D01*
X111272579Y-98714523D01*
X111527071Y-98661064D01*
X111728008Y-98522248D01*
X111834087Y-98422100D01*
X111901890Y-98316220D01*
X111940339Y-98165658D01*
X111958354Y-97931464D01*
X111964857Y-97574688D01*
X111965562Y-97485081D01*
X111971666Y-96647000D01*
X111699871Y-96620720D01*
X111428075Y-96594440D01*
X111403537Y-97331440D01*
G36*
X108727036Y-96626959D02*
X108473109Y-96682538D01*
X108418256Y-96703558D01*
X108201211Y-96802451D01*
X108379940Y-96992698D01*
X108535911Y-97121172D01*
X108697705Y-97129224D01*
X108806436Y-97096574D01*
X109033290Y-97053587D01*
X109178503Y-97113360D01*
X109262818Y-97242020D01*
X109194783Y-97335004D01*
X109015971Y-97366666D01*
X108665139Y-97421262D01*
X108379030Y-97568029D01*
X108208172Y-97779927D01*
X108158140Y-98077448D01*
X108248345Y-98335247D01*
X108451392Y-98537528D01*
X108739883Y-98668499D01*
X109086422Y-98712365D01*
X109463613Y-98653331D01*
X109622166Y-98595106D01*
X109831266Y-98480768D01*
X109883347Y-98368748D01*
X109787145Y-98226723D01*
X109735043Y-98177373D01*
X109577852Y-98080027D01*
X109416314Y-98114681D01*
X109392189Y-98127138D01*
X109181357Y-98192493D01*
X108965413Y-98191966D01*
X108804051Y-98133118D01*
X108754333Y-98046343D01*
X108836677Y-97944069D01*
X109076852Y-97867264D01*
X109126025Y-97858233D01*
X109504133Y-97742743D01*
X109732408Y-97550173D01*
X109812518Y-97279084D01*
X109812666Y-97265029D01*
X109736676Y-96968408D01*
X109527545Y-96746439D01*
X109213533Y-96622551D01*
X109016165Y-96604666D01*
X108727036Y-96626959D01*
X108727036Y-96626959D01*
G37*
X108727036Y-96626959D02*
X108473109Y-96682538D01*
X108418256Y-96703558D01*
X108201211Y-96802451D01*
X108379940Y-96992698D01*
X108535911Y-97121172D01*
X108697705Y-97129224D01*
X108806436Y-97096574D01*
X109033290Y-97053587D01*
X109178503Y-97113360D01*
X109262818Y-97242020D01*
X109194783Y-97335004D01*
X109015971Y-97366666D01*
X108665139Y-97421262D01*
X108379030Y-97568029D01*
X108208172Y-97779927D01*
X108158140Y-98077448D01*
X108248345Y-98335247D01*
X108451392Y-98537528D01*
X108739883Y-98668499D01*
X109086422Y-98712365D01*
X109463613Y-98653331D01*
X109622166Y-98595106D01*
X109831266Y-98480768D01*
X109883347Y-98368748D01*
X109787145Y-98226723D01*
X109735043Y-98177373D01*
X109577852Y-98080027D01*
X109416314Y-98114681D01*
X109392189Y-98127138D01*
X109181357Y-98192493D01*
X108965413Y-98191966D01*
X108804051Y-98133118D01*
X108754333Y-98046343D01*
X108836677Y-97944069D01*
X109076852Y-97867264D01*
X109126025Y-97858233D01*
X109504133Y-97742743D01*
X109732408Y-97550173D01*
X109812518Y-97279084D01*
X109812666Y-97265029D01*
X109736676Y-96968408D01*
X109527545Y-96746439D01*
X109213533Y-96622551D01*
X109016165Y-96604666D01*
X108727036Y-96626959D01*
G36*
X106505977Y-96691843D02*
X106306962Y-96880309D01*
X106158231Y-97175079D01*
X106089072Y-97514428D01*
X106087333Y-97574128D01*
X106087333Y-97874666D01*
X106686208Y-97874666D01*
X106999471Y-97879532D01*
X107176851Y-97899894D01*
X107251656Y-97944399D01*
X107257198Y-98021694D01*
X107256984Y-98022833D01*
X107158939Y-98142590D01*
X106962929Y-98199722D01*
X106732305Y-98183087D01*
X106610177Y-98136610D01*
X106450470Y-98100265D01*
X106309657Y-98201557D01*
X106196396Y-98352604D01*
X106207528Y-98456115D01*
X106358715Y-98551972D01*
X106465614Y-98598653D01*
X106875036Y-98707557D01*
X107245676Y-98666758D01*
X107324473Y-98638354D01*
X107607900Y-98437195D01*
X107794581Y-98119037D01*
X107865194Y-97717477D01*
X107865333Y-97697899D01*
X107825591Y-97321981D01*
X107302382Y-97321981D01*
X107301465Y-97403216D01*
X107195044Y-97442037D01*
X106973676Y-97451333D01*
X106747367Y-97435363D01*
X106612180Y-97394989D01*
X106595333Y-97371467D01*
X106657635Y-97267847D01*
X106777756Y-97163827D01*
X107000514Y-97092106D01*
X107199305Y-97170321D01*
X107302382Y-97321981D01*
X107825591Y-97321981D01*
X107817769Y-97248002D01*
X107671184Y-96926460D01*
X107429721Y-96725317D01*
X107106142Y-96624113D01*
X106761181Y-96617195D01*
X106505977Y-96691843D01*
X106505977Y-96691843D01*
G37*
X106505977Y-96691843D02*
X106306962Y-96880309D01*
X106158231Y-97175079D01*
X106089072Y-97514428D01*
X106087333Y-97574128D01*
X106087333Y-97874666D01*
X106686208Y-97874666D01*
X106999471Y-97879532D01*
X107176851Y-97899894D01*
X107251656Y-97944399D01*
X107257198Y-98021694D01*
X107256984Y-98022833D01*
X107158939Y-98142590D01*
X106962929Y-98199722D01*
X106732305Y-98183087D01*
X106610177Y-98136610D01*
X106450470Y-98100265D01*
X106309657Y-98201557D01*
X106196396Y-98352604D01*
X106207528Y-98456115D01*
X106358715Y-98551972D01*
X106465614Y-98598653D01*
X106875036Y-98707557D01*
X107245676Y-98666758D01*
X107324473Y-98638354D01*
X107607900Y-98437195D01*
X107794581Y-98119037D01*
X107865194Y-97717477D01*
X107865333Y-97697899D01*
X107825591Y-97321981D01*
X107302382Y-97321981D01*
X107301465Y-97403216D01*
X107195044Y-97442037D01*
X106973676Y-97451333D01*
X106747367Y-97435363D01*
X106612180Y-97394989D01*
X106595333Y-97371467D01*
X106657635Y-97267847D01*
X106777756Y-97163827D01*
X107000514Y-97092106D01*
X107199305Y-97170321D01*
X107302382Y-97321981D01*
X107825591Y-97321981D01*
X107817769Y-97248002D01*
X107671184Y-96926460D01*
X107429721Y-96725317D01*
X107106142Y-96624113D01*
X106761181Y-96617195D01*
X106505977Y-96691843D01*
G36*
X102870000Y-96139000D02*
X102878133Y-96321080D01*
X102933256Y-96407300D01*
X103081453Y-96433505D01*
X103251000Y-96435333D01*
X103632000Y-96435333D01*
X103632000Y-98721333D01*
X103871889Y-98721333D01*
X104065797Y-98703200D01*
X104168222Y-98664888D01*
X104189459Y-98563367D01*
X104207047Y-98326391D01*
X104219312Y-97987827D01*
X104224582Y-97581542D01*
X104224666Y-97521888D01*
X104224666Y-96435333D01*
X104563333Y-96435333D01*
X104780169Y-96426362D01*
X104876533Y-96370970D01*
X104901243Y-96226440D01*
X104902000Y-96139000D01*
X104902000Y-95842666D01*
X102870000Y-95842666D01*
X102870000Y-96139000D01*
X102870000Y-96139000D01*
G37*
X102870000Y-96139000D02*
X102878133Y-96321080D01*
X102933256Y-96407300D01*
X103081453Y-96433505D01*
X103251000Y-96435333D01*
X103632000Y-96435333D01*
X103632000Y-98721333D01*
X103871889Y-98721333D01*
X104065797Y-98703200D01*
X104168222Y-98664888D01*
X104189459Y-98563367D01*
X104207047Y-98326391D01*
X104219312Y-97987827D01*
X104224582Y-97581542D01*
X104224666Y-97521888D01*
X104224666Y-96435333D01*
X104563333Y-96435333D01*
X104780169Y-96426362D01*
X104876533Y-96370970D01*
X104901243Y-96226440D01*
X104902000Y-96139000D01*
X104902000Y-95842666D01*
X102870000Y-95842666D01*
X102870000Y-96139000D01*
G36*
X101352720Y-96649627D02*
X101256643Y-96691843D01*
X101057629Y-96880309D01*
X100908898Y-97175079D01*
X100839739Y-97514428D01*
X100838000Y-97574128D01*
X100838000Y-97874666D01*
X101475979Y-97874666D01*
X101797978Y-97877223D01*
X101980830Y-97891115D01*
X102054711Y-97925679D01*
X102049795Y-97990249D01*
X102023333Y-98044000D01*
X101869839Y-98172006D01*
X101636991Y-98213128D01*
X101395917Y-98158137D01*
X101347934Y-98131653D01*
X101187467Y-98113386D01*
X101072767Y-98188405D01*
X100945949Y-98337205D01*
X100961217Y-98451314D01*
X101128866Y-98560165D01*
X101216280Y-98598653D01*
X101586058Y-98706009D01*
X101915486Y-98682645D01*
X102160244Y-98587281D01*
X102372630Y-98435545D01*
X102518278Y-98250433D01*
X102520077Y-98246559D01*
X102594678Y-97953755D01*
X102611089Y-97589093D01*
X102587279Y-97388039D01*
X102064588Y-97388039D01*
X102014542Y-97435667D01*
X101843333Y-97450497D01*
X101727000Y-97451333D01*
X101494772Y-97444690D01*
X101397909Y-97412853D01*
X101402603Y-97337960D01*
X101425336Y-97291960D01*
X101592546Y-97108841D01*
X101788270Y-97079193D01*
X101970762Y-97203196D01*
X102027282Y-97289378D01*
X102064588Y-97388039D01*
X102587279Y-97388039D01*
X102569698Y-97239594D01*
X102514850Y-97067967D01*
X102320867Y-96828481D01*
X102025247Y-96667787D01*
X101683896Y-96602599D01*
X101352720Y-96649627D01*
X101352720Y-96649627D01*
G37*
X101352720Y-96649627D02*
X101256643Y-96691843D01*
X101057629Y-96880309D01*
X100908898Y-97175079D01*
X100839739Y-97514428D01*
X100838000Y-97574128D01*
X100838000Y-97874666D01*
X101475979Y-97874666D01*
X101797978Y-97877223D01*
X101980830Y-97891115D01*
X102054711Y-97925679D01*
X102049795Y-97990249D01*
X102023333Y-98044000D01*
X101869839Y-98172006D01*
X101636991Y-98213128D01*
X101395917Y-98158137D01*
X101347934Y-98131653D01*
X101187467Y-98113386D01*
X101072767Y-98188405D01*
X100945949Y-98337205D01*
X100961217Y-98451314D01*
X101128866Y-98560165D01*
X101216280Y-98598653D01*
X101586058Y-98706009D01*
X101915486Y-98682645D01*
X102160244Y-98587281D01*
X102372630Y-98435545D01*
X102518278Y-98250433D01*
X102520077Y-98246559D01*
X102594678Y-97953755D01*
X102611089Y-97589093D01*
X102587279Y-97388039D01*
X102064588Y-97388039D01*
X102014542Y-97435667D01*
X101843333Y-97450497D01*
X101727000Y-97451333D01*
X101494772Y-97444690D01*
X101397909Y-97412853D01*
X101402603Y-97337960D01*
X101425336Y-97291960D01*
X101592546Y-97108841D01*
X101788270Y-97079193D01*
X101970762Y-97203196D01*
X102027282Y-97289378D01*
X102064588Y-97388039D01*
X102587279Y-97388039D01*
X102569698Y-97239594D01*
X102514850Y-97067967D01*
X102320867Y-96828481D01*
X102025247Y-96667787D01*
X101683896Y-96602599D01*
X101352720Y-96649627D01*
G36*
X99510034Y-96618296D02*
X99224297Y-96695020D01*
X99144259Y-96731877D01*
X98988695Y-96845981D01*
X98886382Y-97016812D01*
X98830178Y-97273478D01*
X98812942Y-97645090D01*
X98822384Y-98044000D01*
X98848333Y-98679000D01*
X99441000Y-98688988D01*
X99768494Y-98682251D01*
X100050041Y-98654922D01*
X100219699Y-98614543D01*
X100406372Y-98447296D01*
X100515692Y-98189518D01*
X100519015Y-98049364D01*
X99991333Y-98049364D01*
X99963299Y-98168244D01*
X99847334Y-98204542D01*
X99716860Y-98197531D01*
X99489798Y-98130916D01*
X99414318Y-98022833D01*
X99428983Y-97921948D01*
X99550299Y-97880039D01*
X99688792Y-97874666D01*
X99894868Y-97892241D01*
X99979589Y-97962644D01*
X99991333Y-98049364D01*
X100519015Y-98049364D01*
X100522277Y-97911835D01*
X100500086Y-97834313D01*
X100342649Y-97607962D01*
X100071717Y-97483541D01*
X99736691Y-97451333D01*
X99513429Y-97438910D01*
X99420352Y-97389919D01*
X99415779Y-97303166D01*
X99472420Y-97209975D01*
X99620815Y-97165196D01*
X99856766Y-97155000D01*
X100144436Y-97134316D01*
X100309989Y-97063564D01*
X100362612Y-97001874D01*
X100386574Y-96848940D01*
X100277998Y-96726293D01*
X100072183Y-96641754D01*
X99804429Y-96603148D01*
X99510034Y-96618296D01*
X99510034Y-96618296D01*
G37*
X99510034Y-96618296D02*
X99224297Y-96695020D01*
X99144259Y-96731877D01*
X98988695Y-96845981D01*
X98886382Y-97016812D01*
X98830178Y-97273478D01*
X98812942Y-97645090D01*
X98822384Y-98044000D01*
X98848333Y-98679000D01*
X99441000Y-98688988D01*
X99768494Y-98682251D01*
X100050041Y-98654922D01*
X100219699Y-98614543D01*
X100406372Y-98447296D01*
X100515692Y-98189518D01*
X100519015Y-98049364D01*
X99991333Y-98049364D01*
X99963299Y-98168244D01*
X99847334Y-98204542D01*
X99716860Y-98197531D01*
X99489798Y-98130916D01*
X99414318Y-98022833D01*
X99428983Y-97921948D01*
X99550299Y-97880039D01*
X99688792Y-97874666D01*
X99894868Y-97892241D01*
X99979589Y-97962644D01*
X99991333Y-98049364D01*
X100519015Y-98049364D01*
X100522277Y-97911835D01*
X100500086Y-97834313D01*
X100342649Y-97607962D01*
X100071717Y-97483541D01*
X99736691Y-97451333D01*
X99513429Y-97438910D01*
X99420352Y-97389919D01*
X99415779Y-97303166D01*
X99472420Y-97209975D01*
X99620815Y-97165196D01*
X99856766Y-97155000D01*
X100144436Y-97134316D01*
X100309989Y-97063564D01*
X100362612Y-97001874D01*
X100386574Y-96848940D01*
X100277998Y-96726293D01*
X100072183Y-96641754D01*
X99804429Y-96603148D01*
X99510034Y-96618296D01*
G36*
X97599500Y-96646671D02*
X97259021Y-96664775D01*
X96975171Y-96679731D01*
X96797459Y-96688935D01*
X96774000Y-96690101D01*
X96604412Y-96678283D01*
X96374198Y-96641258D01*
X96372917Y-96641000D01*
X96026306Y-96610683D01*
X95767297Y-96686699D01*
X95586795Y-96881630D01*
X95475708Y-97208057D01*
X95424944Y-97678562D01*
X95419333Y-97960493D01*
X95419333Y-98732062D01*
X95694500Y-98705531D01*
X95969666Y-98679000D01*
X96012000Y-97917854D01*
X96037238Y-97548440D01*
X96068313Y-97316219D01*
X96113136Y-97189065D01*
X96179618Y-97134851D01*
X96206567Y-97127696D01*
X96382995Y-97129716D01*
X96501601Y-97228707D01*
X96571452Y-97444937D01*
X96601618Y-97798672D01*
X96604666Y-98017398D01*
X96604666Y-98732062D01*
X97155000Y-98679000D01*
X97197333Y-97917000D01*
X97220072Y-97555184D01*
X97246264Y-97328832D01*
X97286337Y-97204219D01*
X97350716Y-97147618D01*
X97441758Y-97126425D01*
X97594033Y-97129776D01*
X97695200Y-97207649D01*
X97754909Y-97384980D01*
X97782813Y-97686705D01*
X97788703Y-98022833D01*
X97790000Y-98721333D01*
X98298000Y-98721333D01*
X98298000Y-96609375D01*
X97599500Y-96646671D01*
X97599500Y-96646671D01*
G37*
X97599500Y-96646671D02*
X97259021Y-96664775D01*
X96975171Y-96679731D01*
X96797459Y-96688935D01*
X96774000Y-96690101D01*
X96604412Y-96678283D01*
X96374198Y-96641258D01*
X96372917Y-96641000D01*
X96026306Y-96610683D01*
X95767297Y-96686699D01*
X95586795Y-96881630D01*
X95475708Y-97208057D01*
X95424944Y-97678562D01*
X95419333Y-97960493D01*
X95419333Y-98732062D01*
X95694500Y-98705531D01*
X95969666Y-98679000D01*
X96012000Y-97917854D01*
X96037238Y-97548440D01*
X96068313Y-97316219D01*
X96113136Y-97189065D01*
X96179618Y-97134851D01*
X96206567Y-97127696D01*
X96382995Y-97129716D01*
X96501601Y-97228707D01*
X96571452Y-97444937D01*
X96601618Y-97798672D01*
X96604666Y-98017398D01*
X96604666Y-98732062D01*
X97155000Y-98679000D01*
X97197333Y-97917000D01*
X97220072Y-97555184D01*
X97246264Y-97328832D01*
X97286337Y-97204219D01*
X97350716Y-97147618D01*
X97441758Y-97126425D01*
X97594033Y-97129776D01*
X97695200Y-97207649D01*
X97754909Y-97384980D01*
X97782813Y-97686705D01*
X97788703Y-98022833D01*
X97790000Y-98721333D01*
X98298000Y-98721333D01*
X98298000Y-96609375D01*
X97599500Y-96646671D01*
G36*
X123795238Y-95856826D02*
X123713578Y-95928646D01*
X123698000Y-96096666D01*
X123714519Y-96267319D01*
X123798309Y-96337314D01*
X123994333Y-96350666D01*
X124193428Y-96336507D01*
X124275089Y-96264687D01*
X124290666Y-96096666D01*
X124274147Y-95926013D01*
X124190357Y-95856019D01*
X123994333Y-95842666D01*
X123795238Y-95856826D01*
X123795238Y-95856826D01*
G37*
X123795238Y-95856826D02*
X123713578Y-95928646D01*
X123698000Y-96096666D01*
X123714519Y-96267319D01*
X123798309Y-96337314D01*
X123994333Y-96350666D01*
X124193428Y-96336507D01*
X124275089Y-96264687D01*
X124290666Y-96096666D01*
X124274147Y-95926013D01*
X124190357Y-95856019D01*
X123994333Y-95842666D01*
X123795238Y-95856826D01*
G36*
X114729739Y-92882792D02*
X114686699Y-92918975D01*
X114683196Y-93006447D01*
X114722577Y-93166449D01*
X114808190Y-93420220D01*
X114943382Y-93789000D01*
X115131498Y-94294030D01*
X115153138Y-94352276D01*
X115309884Y-94761017D01*
X115455828Y-95117369D01*
X115576792Y-95388372D01*
X115658603Y-95541068D01*
X115671267Y-95556886D01*
X115831375Y-95652574D01*
X116057967Y-95724360D01*
X116244637Y-95749514D01*
X116318735Y-95695210D01*
X116331999Y-95522916D01*
X116332000Y-95520288D01*
X116290081Y-95304638D01*
X116162863Y-95207729D01*
X116007104Y-95088081D01*
X115947273Y-94968961D01*
X115957356Y-94806537D01*
X116027143Y-94513286D01*
X116149066Y-94113777D01*
X116315556Y-93632581D01*
X116519042Y-93094266D01*
X116545388Y-93027500D01*
X116558188Y-92927984D01*
X116465144Y-92886154D01*
X116305780Y-92879333D01*
X116152927Y-92885890D01*
X116049888Y-92927938D01*
X115969017Y-93039043D01*
X115882667Y-93252771D01*
X115800188Y-93493166D01*
X115592932Y-94107000D01*
X115403886Y-93493166D01*
X115305022Y-93182232D01*
X115228548Y-92999363D01*
X115147730Y-92910571D01*
X115035833Y-92881870D01*
X114921048Y-92879333D01*
X114808971Y-92876658D01*
X114729739Y-92882792D01*
X114729739Y-92882792D01*
G37*
X114729739Y-92882792D02*
X114686699Y-92918975D01*
X114683196Y-93006447D01*
X114722577Y-93166449D01*
X114808190Y-93420220D01*
X114943382Y-93789000D01*
X115131498Y-94294030D01*
X115153138Y-94352276D01*
X115309884Y-94761017D01*
X115455828Y-95117369D01*
X115576792Y-95388372D01*
X115658603Y-95541068D01*
X115671267Y-95556886D01*
X115831375Y-95652574D01*
X116057967Y-95724360D01*
X116244637Y-95749514D01*
X116318735Y-95695210D01*
X116331999Y-95522916D01*
X116332000Y-95520288D01*
X116290081Y-95304638D01*
X116162863Y-95207729D01*
X116007104Y-95088081D01*
X115947273Y-94968961D01*
X115957356Y-94806537D01*
X116027143Y-94513286D01*
X116149066Y-94113777D01*
X116315556Y-93632581D01*
X116519042Y-93094266D01*
X116545388Y-93027500D01*
X116558188Y-92927984D01*
X116465144Y-92886154D01*
X116305780Y-92879333D01*
X116152927Y-92885890D01*
X116049888Y-92927938D01*
X115969017Y-93039043D01*
X115882667Y-93252771D01*
X115800188Y-93493166D01*
X115592932Y-94107000D01*
X115403886Y-93493166D01*
X115305022Y-93182232D01*
X115228548Y-92999363D01*
X115147730Y-92910571D01*
X115035833Y-92881870D01*
X114921048Y-92879333D01*
X114808971Y-92876658D01*
X114729739Y-92882792D01*
G36*
X120904000Y-92456000D02*
X120915044Y-92612188D01*
X120978814Y-92686164D01*
X121141264Y-92708564D01*
X121285000Y-92710000D01*
X121666000Y-92710000D01*
X121666000Y-94996000D01*
X122258666Y-94996000D01*
X122258666Y-92710000D01*
X122597333Y-92710000D01*
X122814489Y-92699969D01*
X122911024Y-92645615D01*
X122935466Y-92510541D01*
X122936000Y-92456000D01*
X122936000Y-92202000D01*
X120904000Y-92202000D01*
X120904000Y-92456000D01*
X120904000Y-92456000D01*
G37*
X120904000Y-92456000D02*
X120915044Y-92612188D01*
X120978814Y-92686164D01*
X121141264Y-92708564D01*
X121285000Y-92710000D01*
X121666000Y-92710000D01*
X121666000Y-94996000D01*
X122258666Y-94996000D01*
X122258666Y-92710000D01*
X122597333Y-92710000D01*
X122814489Y-92699969D01*
X122911024Y-92645615D01*
X122935466Y-92510541D01*
X122936000Y-92456000D01*
X122936000Y-92202000D01*
X120904000Y-92202000D01*
X120904000Y-92456000D01*
G36*
X119520307Y-92928400D02*
X119237556Y-93095456D01*
X119026972Y-93372097D01*
X118909394Y-93738499D01*
X118905662Y-94174837D01*
X118915695Y-94242061D01*
X119046392Y-94580309D01*
X119284451Y-94828395D01*
X119590560Y-94971190D01*
X119925405Y-94993563D01*
X120249676Y-94880383D01*
X120361956Y-94798679D01*
X120505692Y-94640888D01*
X120586704Y-94441423D01*
X120629757Y-94138002D01*
X120631127Y-94121773D01*
X120626291Y-93875372D01*
X120075810Y-93875372D01*
X120070988Y-94136854D01*
X120042984Y-94339190D01*
X120023212Y-94390045D01*
X119883858Y-94477842D01*
X119693168Y-94463777D01*
X119566266Y-94386400D01*
X119490595Y-94216697D01*
X119467889Y-93961667D01*
X119499417Y-93697232D01*
X119552312Y-93551100D01*
X119689385Y-93423656D01*
X119867133Y-93390420D01*
X120009020Y-93463674D01*
X120017720Y-93476400D01*
X120057903Y-93630101D01*
X120075810Y-93875372D01*
X120626291Y-93875372D01*
X120621526Y-93632601D01*
X120500451Y-93269302D01*
X120267039Y-93029533D01*
X120218945Y-93002340D01*
X119854384Y-92890753D01*
X119520307Y-92928400D01*
X119520307Y-92928400D01*
G37*
X119520307Y-92928400D02*
X119237556Y-93095456D01*
X119026972Y-93372097D01*
X118909394Y-93738499D01*
X118905662Y-94174837D01*
X118915695Y-94242061D01*
X119046392Y-94580309D01*
X119284451Y-94828395D01*
X119590560Y-94971190D01*
X119925405Y-94993563D01*
X120249676Y-94880383D01*
X120361956Y-94798679D01*
X120505692Y-94640888D01*
X120586704Y-94441423D01*
X120629757Y-94138002D01*
X120631127Y-94121773D01*
X120626291Y-93875372D01*
X120075810Y-93875372D01*
X120070988Y-94136854D01*
X120042984Y-94339190D01*
X120023212Y-94390045D01*
X119883858Y-94477842D01*
X119693168Y-94463777D01*
X119566266Y-94386400D01*
X119490595Y-94216697D01*
X119467889Y-93961667D01*
X119499417Y-93697232D01*
X119552312Y-93551100D01*
X119689385Y-93423656D01*
X119867133Y-93390420D01*
X120009020Y-93463674D01*
X120017720Y-93476400D01*
X120057903Y-93630101D01*
X120075810Y-93875372D01*
X120626291Y-93875372D01*
X120621526Y-93632601D01*
X120500451Y-93269302D01*
X120267039Y-93029533D01*
X120218945Y-93002340D01*
X119854384Y-92890753D01*
X119520307Y-92928400D01*
G36*
X117934754Y-93683666D02*
X117590233Y-93281500D01*
X117374169Y-93048915D01*
X117203697Y-92926040D01*
X117030149Y-92881908D01*
X116958189Y-92879333D01*
X116741331Y-92902061D01*
X116683401Y-92977850D01*
X116780311Y-93118107D01*
X116849138Y-93183711D01*
X117035045Y-93377899D01*
X117182862Y-93562796D01*
X117268162Y-93695349D01*
X117285005Y-93803299D01*
X117224197Y-93942222D01*
X117084809Y-94155463D01*
X116911728Y-94420844D01*
X116759585Y-94669453D01*
X116706577Y-94763166D01*
X116581651Y-94996000D01*
X116917608Y-94996000D01*
X117116390Y-94984300D01*
X117250236Y-94924636D01*
X117369458Y-94780157D01*
X117488693Y-94577717D01*
X117660903Y-94325229D01*
X117797118Y-94236453D01*
X117891227Y-94310172D01*
X117937123Y-94545170D01*
X117940666Y-94667700D01*
X117951540Y-94880525D01*
X118009537Y-94973459D01*
X118152724Y-94995704D01*
X118194666Y-94996000D01*
X118448666Y-94996000D01*
X118448666Y-92202000D01*
X117940666Y-92202000D01*
X117934754Y-93683666D01*
X117934754Y-93683666D01*
G37*
X117934754Y-93683666D02*
X117590233Y-93281500D01*
X117374169Y-93048915D01*
X117203697Y-92926040D01*
X117030149Y-92881908D01*
X116958189Y-92879333D01*
X116741331Y-92902061D01*
X116683401Y-92977850D01*
X116780311Y-93118107D01*
X116849138Y-93183711D01*
X117035045Y-93377899D01*
X117182862Y-93562796D01*
X117268162Y-93695349D01*
X117285005Y-93803299D01*
X117224197Y-93942222D01*
X117084809Y-94155463D01*
X116911728Y-94420844D01*
X116759585Y-94669453D01*
X116706577Y-94763166D01*
X116581651Y-94996000D01*
X116917608Y-94996000D01*
X117116390Y-94984300D01*
X117250236Y-94924636D01*
X117369458Y-94780157D01*
X117488693Y-94577717D01*
X117660903Y-94325229D01*
X117797118Y-94236453D01*
X117891227Y-94310172D01*
X117937123Y-94545170D01*
X117940666Y-94667700D01*
X117951540Y-94880525D01*
X118009537Y-94973459D01*
X118152724Y-94995704D01*
X118194666Y-94996000D01*
X118448666Y-94996000D01*
X118448666Y-92202000D01*
X117940666Y-92202000D01*
X117934754Y-93683666D01*
G36*
X113311659Y-92927415D02*
X113017688Y-93117165D01*
X112809390Y-93438012D01*
X112711573Y-93826193D01*
X112723300Y-94214332D01*
X112833960Y-94558820D01*
X113032939Y-94816043D01*
X113165064Y-94899602D01*
X113459374Y-94977905D01*
X113782028Y-94983355D01*
X114047000Y-94915480D01*
X114067168Y-94904550D01*
X114282668Y-94690042D01*
X114415386Y-94376861D01*
X114465958Y-94011273D01*
X114463044Y-93976255D01*
X113876666Y-93976255D01*
X113865594Y-94223886D01*
X113837540Y-94394920D01*
X113820222Y-94431555D01*
X113662772Y-94487127D01*
X113471928Y-94443051D01*
X113373860Y-94367257D01*
X113307029Y-94188073D01*
X113297794Y-93934007D01*
X113338975Y-93675966D01*
X113423395Y-93484856D01*
X113467403Y-93443199D01*
X113644858Y-93402163D01*
X113780249Y-93510829D01*
X113860410Y-93752047D01*
X113876666Y-93976255D01*
X114463044Y-93976255D01*
X114435021Y-93639546D01*
X114323210Y-93307947D01*
X114131163Y-93062744D01*
X114041025Y-93003760D01*
X113661526Y-92886526D01*
X113311659Y-92927415D01*
X113311659Y-92927415D01*
G37*
X113311659Y-92927415D02*
X113017688Y-93117165D01*
X112809390Y-93438012D01*
X112711573Y-93826193D01*
X112723300Y-94214332D01*
X112833960Y-94558820D01*
X113032939Y-94816043D01*
X113165064Y-94899602D01*
X113459374Y-94977905D01*
X113782028Y-94983355D01*
X114047000Y-94915480D01*
X114067168Y-94904550D01*
X114282668Y-94690042D01*
X114415386Y-94376861D01*
X114465958Y-94011273D01*
X114463044Y-93976255D01*
X113876666Y-93976255D01*
X113865594Y-94223886D01*
X113837540Y-94394920D01*
X113820222Y-94431555D01*
X113662772Y-94487127D01*
X113471928Y-94443051D01*
X113373860Y-94367257D01*
X113307029Y-94188073D01*
X113297794Y-93934007D01*
X113338975Y-93675966D01*
X113423395Y-93484856D01*
X113467403Y-93443199D01*
X113644858Y-93402163D01*
X113780249Y-93510829D01*
X113860410Y-93752047D01*
X113876666Y-93976255D01*
X114463044Y-93976255D01*
X114435021Y-93639546D01*
X114323210Y-93307947D01*
X114131163Y-93062744D01*
X114041025Y-93003760D01*
X113661526Y-92886526D01*
X113311659Y-92927415D01*
G36*
X109489543Y-92434833D02*
X109525753Y-92583918D01*
X109622457Y-92657771D01*
X109830098Y-92690167D01*
X109876166Y-92693701D01*
X110236000Y-92719736D01*
X110236000Y-94996000D01*
X110828666Y-94996000D01*
X110828666Y-92719736D01*
X111188500Y-92693701D01*
X111418186Y-92664752D01*
X111529000Y-92599660D01*
X111571383Y-92464649D01*
X111575124Y-92434833D01*
X111601914Y-92202000D01*
X109462752Y-92202000D01*
X109489543Y-92434833D01*
X109489543Y-92434833D01*
G37*
X109489543Y-92434833D02*
X109525753Y-92583918D01*
X109622457Y-92657771D01*
X109830098Y-92690167D01*
X109876166Y-92693701D01*
X110236000Y-92719736D01*
X110236000Y-94996000D01*
X110828666Y-94996000D01*
X110828666Y-92719736D01*
X111188500Y-92693701D01*
X111418186Y-92664752D01*
X111529000Y-92599660D01*
X111571383Y-92464649D01*
X111575124Y-92434833D01*
X111601914Y-92202000D01*
X109462752Y-92202000D01*
X109489543Y-92434833D01*
G36*
X108065318Y-92928679D02*
X107770534Y-93104786D01*
X107559163Y-93400983D01*
X107464998Y-93749913D01*
X107419978Y-94149333D01*
X108065989Y-94149333D01*
X108372416Y-94157491D01*
X108600204Y-94179097D01*
X108708334Y-94209852D01*
X108712000Y-94217066D01*
X108638914Y-94362248D01*
X108457632Y-94455874D01*
X108225114Y-94483762D01*
X107998320Y-94431728D01*
X107951934Y-94406320D01*
X107791467Y-94388052D01*
X107676767Y-94463072D01*
X107549730Y-94610186D01*
X107564497Y-94724052D01*
X107730385Y-94842415D01*
X107776462Y-94866825D01*
X108136637Y-94981288D01*
X108508783Y-94981554D01*
X108831926Y-94870884D01*
X108923378Y-94805500D01*
X109100212Y-94569785D01*
X109224991Y-94250946D01*
X109272456Y-93928212D01*
X109254043Y-93768333D01*
X109199309Y-93607907D01*
X108701676Y-93607907D01*
X108655518Y-93689888D01*
X108448835Y-93724453D01*
X108367125Y-93726000D01*
X108145935Y-93713081D01*
X108054700Y-93662406D01*
X108050490Y-93577833D01*
X108147743Y-93451516D01*
X108330585Y-93399629D01*
X108526534Y-93435878D01*
X108589660Y-93475867D01*
X108701676Y-93607907D01*
X109199309Y-93607907D01*
X109122942Y-93384079D01*
X108964187Y-93134941D01*
X108788945Y-93002340D01*
X108414471Y-92889064D01*
X108065318Y-92928679D01*
X108065318Y-92928679D01*
G37*
X108065318Y-92928679D02*
X107770534Y-93104786D01*
X107559163Y-93400983D01*
X107464998Y-93749913D01*
X107419978Y-94149333D01*
X108065989Y-94149333D01*
X108372416Y-94157491D01*
X108600204Y-94179097D01*
X108708334Y-94209852D01*
X108712000Y-94217066D01*
X108638914Y-94362248D01*
X108457632Y-94455874D01*
X108225114Y-94483762D01*
X107998320Y-94431728D01*
X107951934Y-94406320D01*
X107791467Y-94388052D01*
X107676767Y-94463072D01*
X107549730Y-94610186D01*
X107564497Y-94724052D01*
X107730385Y-94842415D01*
X107776462Y-94866825D01*
X108136637Y-94981288D01*
X108508783Y-94981554D01*
X108831926Y-94870884D01*
X108923378Y-94805500D01*
X109100212Y-94569785D01*
X109224991Y-94250946D01*
X109272456Y-93928212D01*
X109254043Y-93768333D01*
X109199309Y-93607907D01*
X108701676Y-93607907D01*
X108655518Y-93689888D01*
X108448835Y-93724453D01*
X108367125Y-93726000D01*
X108145935Y-93713081D01*
X108054700Y-93662406D01*
X108050490Y-93577833D01*
X108147743Y-93451516D01*
X108330585Y-93399629D01*
X108526534Y-93435878D01*
X108589660Y-93475867D01*
X108701676Y-93607907D01*
X109199309Y-93607907D01*
X109122942Y-93384079D01*
X108964187Y-93134941D01*
X108788945Y-93002340D01*
X108414471Y-92889064D01*
X108065318Y-92928679D01*
G36*
X105893738Y-92944007D02*
X105735904Y-93012933D01*
X105477550Y-93146533D01*
X105667125Y-93348326D01*
X105826428Y-93481879D01*
X105962452Y-93488738D01*
X106017548Y-93464035D01*
X106241027Y-93415499D01*
X106422693Y-93503053D01*
X106542405Y-93694849D01*
X106580023Y-93959038D01*
X106518379Y-94256047D01*
X106378898Y-94433214D01*
X106177508Y-94495773D01*
X105978665Y-94427126D01*
X105950745Y-94402212D01*
X105834809Y-94389098D01*
X105676991Y-94516504D01*
X105556963Y-94663044D01*
X105552419Y-94755244D01*
X105618892Y-94824364D01*
X105832463Y-94920444D01*
X106131074Y-94964787D01*
X106437212Y-94953099D01*
X106670680Y-94882651D01*
X106927221Y-94647061D01*
X107067921Y-94298713D01*
X107100333Y-93962817D01*
X107053610Y-93514363D01*
X106902651Y-93192684D01*
X106667721Y-92999983D01*
X106284719Y-92887638D01*
X105893738Y-92944007D01*
X105893738Y-92944007D01*
G37*
X105893738Y-92944007D02*
X105735904Y-93012933D01*
X105477550Y-93146533D01*
X105667125Y-93348326D01*
X105826428Y-93481879D01*
X105962452Y-93488738D01*
X106017548Y-93464035D01*
X106241027Y-93415499D01*
X106422693Y-93503053D01*
X106542405Y-93694849D01*
X106580023Y-93959038D01*
X106518379Y-94256047D01*
X106378898Y-94433214D01*
X106177508Y-94495773D01*
X105978665Y-94427126D01*
X105950745Y-94402212D01*
X105834809Y-94389098D01*
X105676991Y-94516504D01*
X105556963Y-94663044D01*
X105552419Y-94755244D01*
X105618892Y-94824364D01*
X105832463Y-94920444D01*
X106131074Y-94964787D01*
X106437212Y-94953099D01*
X106670680Y-94882651D01*
X106927221Y-94647061D01*
X107067921Y-94298713D01*
X107100333Y-93962817D01*
X107053610Y-93514363D01*
X106902651Y-93192684D01*
X106667721Y-92999983D01*
X106284719Y-92887638D01*
X105893738Y-92944007D01*
G36*
X104752021Y-92211137D02*
X104676987Y-92267571D01*
X104650962Y-92414833D01*
X104648000Y-92628312D01*
X104642587Y-92876390D01*
X104615599Y-92988569D01*
X104550911Y-92998193D01*
X104484233Y-92966978D01*
X104163519Y-92882865D01*
X103850157Y-92956070D01*
X103670485Y-93087151D01*
X103575254Y-93194779D01*
X103514550Y-93313664D01*
X103480680Y-93482986D01*
X103465950Y-93741921D01*
X103462669Y-94129650D01*
X103462666Y-94145484D01*
X103462666Y-94996000D01*
X103970666Y-94996000D01*
X103970666Y-94408845D01*
X103991827Y-93933407D01*
X104057606Y-93611826D01*
X104171450Y-93433706D01*
X104309333Y-93387333D01*
X104466957Y-93451158D01*
X104573572Y-93649566D01*
X104632626Y-93992950D01*
X104648000Y-94408845D01*
X104648000Y-94996000D01*
X105156000Y-94996000D01*
X105156000Y-92202000D01*
X104902000Y-92202000D01*
X104752021Y-92211137D01*
X104752021Y-92211137D01*
G37*
X104752021Y-92211137D02*
X104676987Y-92267571D01*
X104650962Y-92414833D01*
X104648000Y-92628312D01*
X104642587Y-92876390D01*
X104615599Y-92988569D01*
X104550911Y-92998193D01*
X104484233Y-92966978D01*
X104163519Y-92882865D01*
X103850157Y-92956070D01*
X103670485Y-93087151D01*
X103575254Y-93194779D01*
X103514550Y-93313664D01*
X103480680Y-93482986D01*
X103465950Y-93741921D01*
X103462669Y-94129650D01*
X103462666Y-94145484D01*
X103462666Y-94996000D01*
X103970666Y-94996000D01*
X103970666Y-94408845D01*
X103991827Y-93933407D01*
X104057606Y-93611826D01*
X104171450Y-93433706D01*
X104309333Y-93387333D01*
X104466957Y-93451158D01*
X104573572Y-93649566D01*
X104632626Y-93992950D01*
X104648000Y-94408845D01*
X104648000Y-94996000D01*
X105156000Y-94996000D01*
X105156000Y-92202000D01*
X104902000Y-92202000D01*
X104752021Y-92211137D01*
G36*
X100923940Y-92164460D02*
X100546666Y-92273715D01*
X100433333Y-92336721D01*
X100229333Y-92470387D01*
X100422478Y-92675981D01*
X100592463Y-92811075D01*
X100701412Y-92795787D01*
X100834430Y-92742109D01*
X101062567Y-92712212D01*
X101145561Y-92710000D01*
X101389370Y-92728197D01*
X101515156Y-92796072D01*
X101557426Y-92878575D01*
X101578675Y-93065146D01*
X101481203Y-93182040D01*
X101241789Y-93253800D01*
X101194863Y-93261763D01*
X100727453Y-93387912D01*
X100398905Y-93590434D01*
X100215820Y-93862054D01*
X100184800Y-94195498D01*
X100215456Y-94341118D01*
X100379490Y-94627661D01*
X100662523Y-94841538D01*
X101024843Y-94969102D01*
X101426735Y-94996707D01*
X101828485Y-94910709D01*
X101849439Y-94902552D01*
X102106790Y-94779815D01*
X102211845Y-94664911D01*
X102178404Y-94532710D01*
X102103136Y-94440489D01*
X101969353Y-94318814D01*
X101845406Y-94296745D01*
X101652711Y-94362141D01*
X101637369Y-94368530D01*
X101305808Y-94472499D01*
X101053994Y-94461892D01*
X100886139Y-94375715D01*
X100769065Y-94217309D01*
X100797889Y-94052189D01*
X100954386Y-93915332D01*
X101160272Y-93849536D01*
X101579712Y-93751818D01*
X101864654Y-93610969D01*
X102048101Y-93408712D01*
X102086827Y-93336382D01*
X102160689Y-93002446D01*
X102085009Y-92674224D01*
X101875618Y-92393831D01*
X101682566Y-92260904D01*
X101328116Y-92158640D01*
X100923940Y-92164460D01*
X100923940Y-92164460D01*
G37*
X100923940Y-92164460D02*
X100546666Y-92273715D01*
X100433333Y-92336721D01*
X100229333Y-92470387D01*
X100422478Y-92675981D01*
X100592463Y-92811075D01*
X100701412Y-92795787D01*
X100834430Y-92742109D01*
X101062567Y-92712212D01*
X101145561Y-92710000D01*
X101389370Y-92728197D01*
X101515156Y-92796072D01*
X101557426Y-92878575D01*
X101578675Y-93065146D01*
X101481203Y-93182040D01*
X101241789Y-93253800D01*
X101194863Y-93261763D01*
X100727453Y-93387912D01*
X100398905Y-93590434D01*
X100215820Y-93862054D01*
X100184800Y-94195498D01*
X100215456Y-94341118D01*
X100379490Y-94627661D01*
X100662523Y-94841538D01*
X101024843Y-94969102D01*
X101426735Y-94996707D01*
X101828485Y-94910709D01*
X101849439Y-94902552D01*
X102106790Y-94779815D01*
X102211845Y-94664911D01*
X102178404Y-94532710D01*
X102103136Y-94440489D01*
X101969353Y-94318814D01*
X101845406Y-94296745D01*
X101652711Y-94362141D01*
X101637369Y-94368530D01*
X101305808Y-94472499D01*
X101053994Y-94461892D01*
X100886139Y-94375715D01*
X100769065Y-94217309D01*
X100797889Y-94052189D01*
X100954386Y-93915332D01*
X101160272Y-93849536D01*
X101579712Y-93751818D01*
X101864654Y-93610969D01*
X102048101Y-93408712D01*
X102086827Y-93336382D01*
X102160689Y-93002446D01*
X102085009Y-92674224D01*
X101875618Y-92393831D01*
X101682566Y-92260904D01*
X101328116Y-92158640D01*
X100923940Y-92164460D01*
G36*
X98390811Y-92222913D02*
X98141833Y-92342457D01*
X97943333Y-92470387D01*
X98136478Y-92675981D01*
X98306463Y-92811075D01*
X98415412Y-92795787D01*
X98551625Y-92738775D01*
X98774187Y-92710631D01*
X98812566Y-92710000D01*
X99092771Y-92756708D01*
X99252053Y-92871952D01*
X99284260Y-93018411D01*
X99183244Y-93158764D01*
X98942852Y-93255689D01*
X98903658Y-93262739D01*
X98448926Y-93387697D01*
X98117609Y-93587144D01*
X97919522Y-93843533D01*
X97864478Y-94139318D01*
X97962292Y-94456952D01*
X98116081Y-94670851D01*
X98280255Y-94829866D01*
X98452565Y-94917561D01*
X98698290Y-94960546D01*
X98856914Y-94972821D01*
X99298921Y-94964183D01*
X99588922Y-94878448D01*
X99825322Y-94745831D01*
X99932803Y-94657239D01*
X99931394Y-94576151D01*
X99841125Y-94466047D01*
X99824704Y-94448544D01*
X99705439Y-94335507D01*
X99594925Y-94300653D01*
X99428911Y-94337150D01*
X99276478Y-94390261D01*
X98951182Y-94462782D01*
X98690376Y-94437025D01*
X98524074Y-94322931D01*
X98482292Y-94130444D01*
X98482719Y-94127347D01*
X98547166Y-93987006D01*
X98718710Y-93897487D01*
X98848333Y-93864325D01*
X99276716Y-93753109D01*
X99560324Y-93632372D01*
X99723707Y-93490824D01*
X99749036Y-93450133D01*
X99829089Y-93158374D01*
X99818119Y-92819472D01*
X99720304Y-92526322D01*
X99706465Y-92503949D01*
X99475979Y-92294823D01*
X99147353Y-92174918D01*
X98769369Y-92149270D01*
X98390811Y-92222913D01*
X98390811Y-92222913D01*
G37*
X98390811Y-92222913D02*
X98141833Y-92342457D01*
X97943333Y-92470387D01*
X98136478Y-92675981D01*
X98306463Y-92811075D01*
X98415412Y-92795787D01*
X98551625Y-92738775D01*
X98774187Y-92710631D01*
X98812566Y-92710000D01*
X99092771Y-92756708D01*
X99252053Y-92871952D01*
X99284260Y-93018411D01*
X99183244Y-93158764D01*
X98942852Y-93255689D01*
X98903658Y-93262739D01*
X98448926Y-93387697D01*
X98117609Y-93587144D01*
X97919522Y-93843533D01*
X97864478Y-94139318D01*
X97962292Y-94456952D01*
X98116081Y-94670851D01*
X98280255Y-94829866D01*
X98452565Y-94917561D01*
X98698290Y-94960546D01*
X98856914Y-94972821D01*
X99298921Y-94964183D01*
X99588922Y-94878448D01*
X99825322Y-94745831D01*
X99932803Y-94657239D01*
X99931394Y-94576151D01*
X99841125Y-94466047D01*
X99824704Y-94448544D01*
X99705439Y-94335507D01*
X99594925Y-94300653D01*
X99428911Y-94337150D01*
X99276478Y-94390261D01*
X98951182Y-94462782D01*
X98690376Y-94437025D01*
X98524074Y-94322931D01*
X98482292Y-94130444D01*
X98482719Y-94127347D01*
X98547166Y-93987006D01*
X98718710Y-93897487D01*
X98848333Y-93864325D01*
X99276716Y-93753109D01*
X99560324Y-93632372D01*
X99723707Y-93490824D01*
X99749036Y-93450133D01*
X99829089Y-93158374D01*
X99818119Y-92819472D01*
X99720304Y-92526322D01*
X99706465Y-92503949D01*
X99475979Y-92294823D01*
X99147353Y-92174918D01*
X98769369Y-92149270D01*
X98390811Y-92222913D01*
G36*
X96314712Y-92205031D02*
X96072199Y-92221224D01*
X95911561Y-92261230D01*
X95789081Y-92335697D01*
X95666820Y-92449487D01*
X95464629Y-92755070D01*
X95407908Y-93093799D01*
X95497567Y-93422517D01*
X95642245Y-93617942D01*
X95865157Y-93840854D01*
X95599912Y-94323335D01*
X95462801Y-94586521D01*
X95366982Y-94796778D01*
X95334666Y-94900908D01*
X95409073Y-94963681D01*
X95592106Y-94995149D01*
X95631790Y-94996000D01*
X95790862Y-94985951D01*
X95905504Y-94933794D01*
X96009821Y-94806516D01*
X96137918Y-94571100D01*
X96200296Y-94445666D01*
X96359745Y-94145467D01*
X96485263Y-93974431D01*
X96601846Y-93902970D01*
X96665172Y-93895333D01*
X96769355Y-93907551D01*
X96827402Y-93969582D01*
X96852696Y-94119490D01*
X96858621Y-94395339D01*
X96858666Y-94445666D01*
X96858666Y-94996000D01*
X97451333Y-94996000D01*
X97451333Y-93397069D01*
X96858666Y-93397069D01*
X96507456Y-93371034D01*
X96221066Y-93311476D01*
X96063389Y-93196833D01*
X96014452Y-93002481D01*
X96116391Y-92846821D01*
X96351985Y-92748100D01*
X96507456Y-92726298D01*
X96858666Y-92700263D01*
X96858666Y-93397069D01*
X97451333Y-93397069D01*
X97451333Y-92202000D01*
X96682820Y-92202000D01*
X96314712Y-92205031D01*
X96314712Y-92205031D01*
G37*
X96314712Y-92205031D02*
X96072199Y-92221224D01*
X95911561Y-92261230D01*
X95789081Y-92335697D01*
X95666820Y-92449487D01*
X95464629Y-92755070D01*
X95407908Y-93093799D01*
X95497567Y-93422517D01*
X95642245Y-93617942D01*
X95865157Y-93840854D01*
X95599912Y-94323335D01*
X95462801Y-94586521D01*
X95366982Y-94796778D01*
X95334666Y-94900908D01*
X95409073Y-94963681D01*
X95592106Y-94995149D01*
X95631790Y-94996000D01*
X95790862Y-94985951D01*
X95905504Y-94933794D01*
X96009821Y-94806516D01*
X96137918Y-94571100D01*
X96200296Y-94445666D01*
X96359745Y-94145467D01*
X96485263Y-93974431D01*
X96601846Y-93902970D01*
X96665172Y-93895333D01*
X96769355Y-93907551D01*
X96827402Y-93969582D01*
X96852696Y-94119490D01*
X96858621Y-94395339D01*
X96858666Y-94445666D01*
X96858666Y-94996000D01*
X97451333Y-94996000D01*
X97451333Y-93397069D01*
X96858666Y-93397069D01*
X96507456Y-93371034D01*
X96221066Y-93311476D01*
X96063389Y-93196833D01*
X96014452Y-93002481D01*
X96116391Y-92846821D01*
X96351985Y-92748100D01*
X96507456Y-92726298D01*
X96858666Y-92700263D01*
X96858666Y-93397069D01*
X97451333Y-93397069D01*
X97451333Y-92202000D01*
X96682820Y-92202000D01*
X96314712Y-92205031D01*
G36*
X113629597Y-80998722D02*
X113316316Y-81038253D01*
X113041078Y-81119265D01*
X112881217Y-81185977D01*
X112376268Y-81502454D01*
X111976698Y-81942335D01*
X111694133Y-82488011D01*
X111540197Y-83121877D01*
X111527770Y-83235878D01*
X111508637Y-83519842D01*
X111530211Y-83702057D01*
X111613843Y-83849001D01*
X111780882Y-84027148D01*
X111782381Y-84028647D01*
X112081733Y-84328000D01*
X115592296Y-84328000D01*
X115546059Y-84672720D01*
X115406599Y-85141355D01*
X115137600Y-85519188D01*
X114757405Y-85797905D01*
X114284360Y-85969190D01*
X113736810Y-86024729D01*
X113133099Y-85956206D01*
X112865269Y-85887856D01*
X112449200Y-85802345D01*
X112158451Y-85830283D01*
X111992566Y-85971740D01*
X111970288Y-86025675D01*
X111975070Y-86264820D01*
X112130202Y-86484715D01*
X112416710Y-86664191D01*
X112603583Y-86732240D01*
X113043063Y-86830589D01*
X113540276Y-86891861D01*
X114028101Y-86911283D01*
X114439415Y-86884080D01*
X114524896Y-86868917D01*
X115096616Y-86676007D01*
X115604209Y-86343846D01*
X115933396Y-86023029D01*
X116243767Y-85619763D01*
X116453437Y-85194665D01*
X116576128Y-84705892D01*
X116625565Y-84111601D01*
X116628163Y-83904666D01*
X116607730Y-83481333D01*
X115592296Y-83481333D01*
X112522000Y-83481333D01*
X112522000Y-83245273D01*
X112584066Y-82931412D01*
X112745428Y-82583232D01*
X112968833Y-82266554D01*
X113190687Y-82063850D01*
X113443243Y-81937397D01*
X113745863Y-81880580D01*
X113977227Y-81872666D01*
X114514019Y-81940684D01*
X114953435Y-82138109D01*
X115283213Y-82455004D01*
X115491088Y-82881428D01*
X115547190Y-83145045D01*
X115592296Y-83481333D01*
X116607730Y-83481333D01*
X116597282Y-83264893D01*
X116495870Y-82743862D01*
X116310772Y-82300997D01*
X116028836Y-81895724D01*
X115945963Y-81800281D01*
X115549238Y-81422512D01*
X115136374Y-81174357D01*
X114662322Y-81036594D01*
X114082028Y-80990004D01*
X114046000Y-80989705D01*
X113629597Y-80998722D01*
X113629597Y-80998722D01*
G37*
X113629597Y-80998722D02*
X113316316Y-81038253D01*
X113041078Y-81119265D01*
X112881217Y-81185977D01*
X112376268Y-81502454D01*
X111976698Y-81942335D01*
X111694133Y-82488011D01*
X111540197Y-83121877D01*
X111527770Y-83235878D01*
X111508637Y-83519842D01*
X111530211Y-83702057D01*
X111613843Y-83849001D01*
X111780882Y-84027148D01*
X111782381Y-84028647D01*
X112081733Y-84328000D01*
X115592296Y-84328000D01*
X115546059Y-84672720D01*
X115406599Y-85141355D01*
X115137600Y-85519188D01*
X114757405Y-85797905D01*
X114284360Y-85969190D01*
X113736810Y-86024729D01*
X113133099Y-85956206D01*
X112865269Y-85887856D01*
X112449200Y-85802345D01*
X112158451Y-85830283D01*
X111992566Y-85971740D01*
X111970288Y-86025675D01*
X111975070Y-86264820D01*
X112130202Y-86484715D01*
X112416710Y-86664191D01*
X112603583Y-86732240D01*
X113043063Y-86830589D01*
X113540276Y-86891861D01*
X114028101Y-86911283D01*
X114439415Y-86884080D01*
X114524896Y-86868917D01*
X115096616Y-86676007D01*
X115604209Y-86343846D01*
X115933396Y-86023029D01*
X116243767Y-85619763D01*
X116453437Y-85194665D01*
X116576128Y-84705892D01*
X116625565Y-84111601D01*
X116628163Y-83904666D01*
X116607730Y-83481333D01*
X115592296Y-83481333D01*
X112522000Y-83481333D01*
X112522000Y-83245273D01*
X112584066Y-82931412D01*
X112745428Y-82583232D01*
X112968833Y-82266554D01*
X113190687Y-82063850D01*
X113443243Y-81937397D01*
X113745863Y-81880580D01*
X113977227Y-81872666D01*
X114514019Y-81940684D01*
X114953435Y-82138109D01*
X115283213Y-82455004D01*
X115491088Y-82881428D01*
X115547190Y-83145045D01*
X115592296Y-83481333D01*
X116607730Y-83481333D01*
X116597282Y-83264893D01*
X116495870Y-82743862D01*
X116310772Y-82300997D01*
X116028836Y-81895724D01*
X115945963Y-81800281D01*
X115549238Y-81422512D01*
X115136374Y-81174357D01*
X114662322Y-81036594D01*
X114082028Y-80990004D01*
X114046000Y-80989705D01*
X113629597Y-80998722D01*
G36*
X107695076Y-80985582D02*
X107070426Y-81149319D01*
X106534271Y-81441967D01*
X106201593Y-81770694D01*
X105922501Y-82212749D01*
X105722848Y-82714413D01*
X105628485Y-83221967D01*
X105624400Y-83332601D01*
X105631502Y-83625313D01*
X105672316Y-83812582D01*
X105770103Y-83957973D01*
X105898169Y-84080766D01*
X106174671Y-84328000D01*
X109723766Y-84328000D01*
X109671328Y-84603166D01*
X109564732Y-84957381D01*
X109396285Y-85306180D01*
X109202967Y-85575970D01*
X109162411Y-85615937D01*
X108801211Y-85840020D01*
X108334284Y-85976532D01*
X107803957Y-86020084D01*
X107252557Y-85965287D01*
X106968623Y-85895249D01*
X106629592Y-85803331D01*
X106406061Y-85779390D01*
X106256710Y-85827514D01*
X106140221Y-85951789D01*
X106121881Y-85979000D01*
X106032391Y-86145239D01*
X106047255Y-86276014D01*
X106119684Y-86398980D01*
X106308903Y-86560883D01*
X106627315Y-86701462D01*
X107035347Y-86813213D01*
X107493424Y-86888633D01*
X107961972Y-86920219D01*
X108401416Y-86900467D01*
X108598229Y-86868917D01*
X109220762Y-86654300D01*
X109764604Y-86296449D01*
X110210972Y-85810514D01*
X110479855Y-85351322D01*
X110578234Y-85124697D01*
X110642537Y-84916370D01*
X110679831Y-84680257D01*
X110697181Y-84370277D01*
X110701653Y-83940347D01*
X110701666Y-83904666D01*
X110697975Y-83481333D01*
X109723766Y-83481333D01*
X106573691Y-83481333D01*
X106631162Y-83121931D01*
X106783523Y-82621777D01*
X107065272Y-82229018D01*
X107277244Y-82056231D01*
X107462085Y-81948692D01*
X107651510Y-81893403D01*
X107905625Y-81878881D01*
X108162040Y-81887206D01*
X108543872Y-81922440D01*
X108815635Y-81993595D01*
X109031790Y-82113225D01*
X109323855Y-82409569D01*
X109552006Y-82814619D01*
X109671328Y-83206166D01*
X109723766Y-83481333D01*
X110697975Y-83481333D01*
X110697829Y-83464641D01*
X110681608Y-83147783D01*
X110645935Y-82908010D01*
X110583747Y-82699239D01*
X110487977Y-82475388D01*
X110479855Y-82458011D01*
X110127566Y-81883883D01*
X109674161Y-81445395D01*
X109122704Y-81144697D01*
X108476261Y-80983936D01*
X108358412Y-80970797D01*
X107695076Y-80985582D01*
X107695076Y-80985582D01*
G37*
X107695076Y-80985582D02*
X107070426Y-81149319D01*
X106534271Y-81441967D01*
X106201593Y-81770694D01*
X105922501Y-82212749D01*
X105722848Y-82714413D01*
X105628485Y-83221967D01*
X105624400Y-83332601D01*
X105631502Y-83625313D01*
X105672316Y-83812582D01*
X105770103Y-83957973D01*
X105898169Y-84080766D01*
X106174671Y-84328000D01*
X109723766Y-84328000D01*
X109671328Y-84603166D01*
X109564732Y-84957381D01*
X109396285Y-85306180D01*
X109202967Y-85575970D01*
X109162411Y-85615937D01*
X108801211Y-85840020D01*
X108334284Y-85976532D01*
X107803957Y-86020084D01*
X107252557Y-85965287D01*
X106968623Y-85895249D01*
X106629592Y-85803331D01*
X106406061Y-85779390D01*
X106256710Y-85827514D01*
X106140221Y-85951789D01*
X106121881Y-85979000D01*
X106032391Y-86145239D01*
X106047255Y-86276014D01*
X106119684Y-86398980D01*
X106308903Y-86560883D01*
X106627315Y-86701462D01*
X107035347Y-86813213D01*
X107493424Y-86888633D01*
X107961972Y-86920219D01*
X108401416Y-86900467D01*
X108598229Y-86868917D01*
X109220762Y-86654300D01*
X109764604Y-86296449D01*
X110210972Y-85810514D01*
X110479855Y-85351322D01*
X110578234Y-85124697D01*
X110642537Y-84916370D01*
X110679831Y-84680257D01*
X110697181Y-84370277D01*
X110701653Y-83940347D01*
X110701666Y-83904666D01*
X110697975Y-83481333D01*
X109723766Y-83481333D01*
X106573691Y-83481333D01*
X106631162Y-83121931D01*
X106783523Y-82621777D01*
X107065272Y-82229018D01*
X107277244Y-82056231D01*
X107462085Y-81948692D01*
X107651510Y-81893403D01*
X107905625Y-81878881D01*
X108162040Y-81887206D01*
X108543872Y-81922440D01*
X108815635Y-81993595D01*
X109031790Y-82113225D01*
X109323855Y-82409569D01*
X109552006Y-82814619D01*
X109671328Y-83206166D01*
X109723766Y-83481333D01*
X110697975Y-83481333D01*
X110697829Y-83464641D01*
X110681608Y-83147783D01*
X110645935Y-82908010D01*
X110583747Y-82699239D01*
X110487977Y-82475388D01*
X110479855Y-82458011D01*
X110127566Y-81883883D01*
X109674161Y-81445395D01*
X109122704Y-81144697D01*
X108476261Y-80983936D01*
X108358412Y-80970797D01*
X107695076Y-80985582D01*
G36*
X102180477Y-80980403D02*
X101894861Y-81020043D01*
X101355626Y-81148337D01*
X100973366Y-81317117D01*
X100750699Y-81524489D01*
X100690246Y-81768559D01*
X100711952Y-81875667D01*
X100839189Y-82037659D01*
X101087565Y-82093417D01*
X101462107Y-82043597D01*
X101639269Y-81996914D01*
X102042925Y-81913570D01*
X102477265Y-81879059D01*
X102896140Y-81891425D01*
X103253404Y-81948709D01*
X103502910Y-82048953D01*
X103539844Y-82077556D01*
X103681207Y-82306320D01*
X103718584Y-82595035D01*
X103651553Y-82871900D01*
X103545371Y-83017442D01*
X103396361Y-83100021D01*
X103123146Y-83205519D01*
X102766676Y-83319472D01*
X102425520Y-83413008D01*
X101809748Y-83590672D01*
X101340103Y-83778614D01*
X100993392Y-83989195D01*
X100746420Y-84234778D01*
X100667789Y-84349797D01*
X100489078Y-84792669D01*
X100442786Y-85278766D01*
X100525556Y-85758047D01*
X100734031Y-86180468D01*
X100795939Y-86260216D01*
X101117012Y-86525697D01*
X101562062Y-86729691D01*
X102094100Y-86863287D01*
X102676135Y-86917568D01*
X103271180Y-86883620D01*
X103340343Y-86873409D01*
X103828435Y-86760077D01*
X104234613Y-86594409D01*
X104534538Y-86391205D01*
X104703871Y-86165263D01*
X104732666Y-86026899D01*
X104677891Y-85904712D01*
X104570158Y-85774158D01*
X104483759Y-85696459D01*
X104394094Y-85661555D01*
X104260605Y-85671872D01*
X104042733Y-85729839D01*
X103744658Y-85823581D01*
X103161469Y-85969090D01*
X102639652Y-86019695D01*
X102196805Y-85979577D01*
X101850524Y-85852917D01*
X101618408Y-85643898D01*
X101518053Y-85356700D01*
X101515333Y-85293832D01*
X101531628Y-85044146D01*
X101596177Y-84853096D01*
X101732475Y-84703390D01*
X101964016Y-84577738D01*
X102314296Y-84458848D01*
X102806810Y-84329429D01*
X102835207Y-84322465D01*
X103214026Y-84220861D01*
X103566945Y-84110768D01*
X103834513Y-84011223D01*
X103896516Y-83982639D01*
X104304360Y-83693150D01*
X104589730Y-83318365D01*
X104747665Y-82889492D01*
X104773208Y-82437735D01*
X104661401Y-81994299D01*
X104407284Y-81590389D01*
X104295056Y-81474540D01*
X103907156Y-81217439D01*
X103402920Y-81045121D01*
X102816107Y-80963978D01*
X102180477Y-80980403D01*
X102180477Y-80980403D01*
G37*
X102180477Y-80980403D02*
X101894861Y-81020043D01*
X101355626Y-81148337D01*
X100973366Y-81317117D01*
X100750699Y-81524489D01*
X100690246Y-81768559D01*
X100711952Y-81875667D01*
X100839189Y-82037659D01*
X101087565Y-82093417D01*
X101462107Y-82043597D01*
X101639269Y-81996914D01*
X102042925Y-81913570D01*
X102477265Y-81879059D01*
X102896140Y-81891425D01*
X103253404Y-81948709D01*
X103502910Y-82048953D01*
X103539844Y-82077556D01*
X103681207Y-82306320D01*
X103718584Y-82595035D01*
X103651553Y-82871900D01*
X103545371Y-83017442D01*
X103396361Y-83100021D01*
X103123146Y-83205519D01*
X102766676Y-83319472D01*
X102425520Y-83413008D01*
X101809748Y-83590672D01*
X101340103Y-83778614D01*
X100993392Y-83989195D01*
X100746420Y-84234778D01*
X100667789Y-84349797D01*
X100489078Y-84792669D01*
X100442786Y-85278766D01*
X100525556Y-85758047D01*
X100734031Y-86180468D01*
X100795939Y-86260216D01*
X101117012Y-86525697D01*
X101562062Y-86729691D01*
X102094100Y-86863287D01*
X102676135Y-86917568D01*
X103271180Y-86883620D01*
X103340343Y-86873409D01*
X103828435Y-86760077D01*
X104234613Y-86594409D01*
X104534538Y-86391205D01*
X104703871Y-86165263D01*
X104732666Y-86026899D01*
X104677891Y-85904712D01*
X104570158Y-85774158D01*
X104483759Y-85696459D01*
X104394094Y-85661555D01*
X104260605Y-85671872D01*
X104042733Y-85729839D01*
X103744658Y-85823581D01*
X103161469Y-85969090D01*
X102639652Y-86019695D01*
X102196805Y-85979577D01*
X101850524Y-85852917D01*
X101618408Y-85643898D01*
X101518053Y-85356700D01*
X101515333Y-85293832D01*
X101531628Y-85044146D01*
X101596177Y-84853096D01*
X101732475Y-84703390D01*
X101964016Y-84577738D01*
X102314296Y-84458848D01*
X102806810Y-84329429D01*
X102835207Y-84322465D01*
X103214026Y-84220861D01*
X103566945Y-84110768D01*
X103834513Y-84011223D01*
X103896516Y-83982639D01*
X104304360Y-83693150D01*
X104589730Y-83318365D01*
X104747665Y-82889492D01*
X104773208Y-82437735D01*
X104661401Y-81994299D01*
X104407284Y-81590389D01*
X104295056Y-81474540D01*
X103907156Y-81217439D01*
X103402920Y-81045121D01*
X102816107Y-80963978D01*
X102180477Y-80980403D01*
G36*
X96812125Y-79747059D02*
X96462954Y-79948784D01*
X96280716Y-80137522D01*
X96145456Y-80286096D01*
X96046201Y-80310366D01*
X95960797Y-80256639D01*
X95798948Y-80190430D01*
X95540047Y-80149574D01*
X95385013Y-80143047D01*
X94924408Y-80215735D01*
X94555110Y-80421898D01*
X94295173Y-80743686D01*
X94162653Y-81163252D01*
X94149333Y-81364666D01*
X94211949Y-81778251D01*
X94384364Y-82128912D01*
X94581362Y-82326427D01*
X94697057Y-82448067D01*
X94707895Y-82536685D01*
X94663038Y-82663699D01*
X94605979Y-82895161D01*
X94572869Y-83056929D01*
X94532155Y-83388443D01*
X94562862Y-83644762D01*
X94609483Y-83777521D01*
X94694190Y-83949501D01*
X94801068Y-84081702D01*
X94951901Y-84179274D01*
X95168477Y-84247363D01*
X95472582Y-84291118D01*
X95886001Y-84315687D01*
X96430522Y-84326218D01*
X96939129Y-84328000D01*
X97527806Y-84327789D01*
X97966896Y-84331460D01*
X98276122Y-84345467D01*
X98475211Y-84376265D01*
X98583887Y-84430308D01*
X98621876Y-84514051D01*
X98608904Y-84633947D01*
X98564695Y-84796452D01*
X98548274Y-84854537D01*
X98348372Y-85278968D01*
X98020911Y-85638917D01*
X97666503Y-85862188D01*
X97299620Y-85967998D01*
X96844591Y-86012642D01*
X96371616Y-85994950D01*
X95950899Y-85913751D01*
X95885000Y-85891891D01*
X95491288Y-85786181D01*
X95215695Y-85797949D01*
X95052534Y-85929149D01*
X94996120Y-86181733D01*
X94996000Y-86197233D01*
X95020801Y-86377449D01*
X95117151Y-86509732D01*
X95317967Y-86622989D01*
X95599684Y-86727335D01*
X96105668Y-86848932D01*
X96672310Y-86907741D01*
X97228511Y-86900516D01*
X97703174Y-86824013D01*
X97705333Y-86823421D01*
X98312363Y-86572818D01*
X98829506Y-86189384D01*
X99236085Y-85693385D01*
X99511423Y-85105084D01*
X99534133Y-85031072D01*
X99610273Y-84674213D01*
X99644115Y-84249346D01*
X99639511Y-83707815D01*
X99639302Y-83702135D01*
X99627642Y-83481333D01*
X98655512Y-83481333D01*
X95879635Y-83481333D01*
X95767927Y-83103004D01*
X95706045Y-82855115D01*
X95710839Y-82684495D01*
X95790108Y-82509645D01*
X95831216Y-82441527D01*
X96049410Y-82175140D01*
X96293128Y-82014399D01*
X96523750Y-81982240D01*
X96577788Y-81998174D01*
X97052683Y-82132419D01*
X97484914Y-82135372D01*
X97591370Y-82112262D01*
X97813638Y-82070966D01*
X97970572Y-82117674D01*
X98103245Y-82226071D01*
X98399489Y-82598820D01*
X98575030Y-83064265D01*
X98596497Y-83166758D01*
X98655512Y-83481333D01*
X99627642Y-83481333D01*
X99616560Y-83271507D01*
X99578511Y-82955435D01*
X99514206Y-82699198D01*
X99412700Y-82448076D01*
X99370945Y-82360618D01*
X99182847Y-82043421D01*
X98951341Y-81743207D01*
X98800839Y-81591558D01*
X98597970Y-81399287D01*
X98499049Y-81232125D01*
X98468300Y-81019518D01*
X98467017Y-80933211D01*
X98460986Y-80897177D01*
X97705333Y-80897177D01*
X97639610Y-81177246D01*
X97468119Y-81351790D01*
X97229382Y-81403913D01*
X96961919Y-81316719D01*
X96879833Y-81259270D01*
X96799818Y-81121120D01*
X95852664Y-81121120D01*
X95487832Y-81446156D01*
X95223930Y-81643638D01*
X95041625Y-81693957D01*
X94942013Y-81597335D01*
X94926188Y-81353996D01*
X94928176Y-81332186D01*
X95025325Y-81074189D01*
X95176744Y-80949011D01*
X95352029Y-80872515D01*
X95495418Y-80895719D01*
X95626242Y-80972763D01*
X95852664Y-81121120D01*
X96799818Y-81121120D01*
X96778904Y-81085011D01*
X96788466Y-80860655D01*
X96886167Y-80641113D01*
X97049657Y-80481298D01*
X97216022Y-80433333D01*
X97499955Y-80494338D01*
X97664225Y-80673449D01*
X97705333Y-80897177D01*
X98460986Y-80897177D01*
X98395417Y-80505475D01*
X98201646Y-80155023D01*
X97916068Y-79892904D01*
X97569046Y-79730170D01*
X97190943Y-79677872D01*
X96812125Y-79747059D01*
X96812125Y-79747059D01*
G37*
X96812125Y-79747059D02*
X96462954Y-79948784D01*
X96280716Y-80137522D01*
X96145456Y-80286096D01*
X96046201Y-80310366D01*
X95960797Y-80256639D01*
X95798948Y-80190430D01*
X95540047Y-80149574D01*
X95385013Y-80143047D01*
X94924408Y-80215735D01*
X94555110Y-80421898D01*
X94295173Y-80743686D01*
X94162653Y-81163252D01*
X94149333Y-81364666D01*
X94211949Y-81778251D01*
X94384364Y-82128912D01*
X94581362Y-82326427D01*
X94697057Y-82448067D01*
X94707895Y-82536685D01*
X94663038Y-82663699D01*
X94605979Y-82895161D01*
X94572869Y-83056929D01*
X94532155Y-83388443D01*
X94562862Y-83644762D01*
X94609483Y-83777521D01*
X94694190Y-83949501D01*
X94801068Y-84081702D01*
X94951901Y-84179274D01*
X95168477Y-84247363D01*
X95472582Y-84291118D01*
X95886001Y-84315687D01*
X96430522Y-84326218D01*
X96939129Y-84328000D01*
X97527806Y-84327789D01*
X97966896Y-84331460D01*
X98276122Y-84345467D01*
X98475211Y-84376265D01*
X98583887Y-84430308D01*
X98621876Y-84514051D01*
X98608904Y-84633947D01*
X98564695Y-84796452D01*
X98548274Y-84854537D01*
X98348372Y-85278968D01*
X98020911Y-85638917D01*
X97666503Y-85862188D01*
X97299620Y-85967998D01*
X96844591Y-86012642D01*
X96371616Y-85994950D01*
X95950899Y-85913751D01*
X95885000Y-85891891D01*
X95491288Y-85786181D01*
X95215695Y-85797949D01*
X95052534Y-85929149D01*
X94996120Y-86181733D01*
X94996000Y-86197233D01*
X95020801Y-86377449D01*
X95117151Y-86509732D01*
X95317967Y-86622989D01*
X95599684Y-86727335D01*
X96105668Y-86848932D01*
X96672310Y-86907741D01*
X97228511Y-86900516D01*
X97703174Y-86824013D01*
X97705333Y-86823421D01*
X98312363Y-86572818D01*
X98829506Y-86189384D01*
X99236085Y-85693385D01*
X99511423Y-85105084D01*
X99534133Y-85031072D01*
X99610273Y-84674213D01*
X99644115Y-84249346D01*
X99639511Y-83707815D01*
X99639302Y-83702135D01*
X99627642Y-83481333D01*
X98655512Y-83481333D01*
X95879635Y-83481333D01*
X95767927Y-83103004D01*
X95706045Y-82855115D01*
X95710839Y-82684495D01*
X95790108Y-82509645D01*
X95831216Y-82441527D01*
X96049410Y-82175140D01*
X96293128Y-82014399D01*
X96523750Y-81982240D01*
X96577788Y-81998174D01*
X97052683Y-82132419D01*
X97484914Y-82135372D01*
X97591370Y-82112262D01*
X97813638Y-82070966D01*
X97970572Y-82117674D01*
X98103245Y-82226071D01*
X98399489Y-82598820D01*
X98575030Y-83064265D01*
X98596497Y-83166758D01*
X98655512Y-83481333D01*
X99627642Y-83481333D01*
X99616560Y-83271507D01*
X99578511Y-82955435D01*
X99514206Y-82699198D01*
X99412700Y-82448076D01*
X99370945Y-82360618D01*
X99182847Y-82043421D01*
X98951341Y-81743207D01*
X98800839Y-81591558D01*
X98597970Y-81399287D01*
X98499049Y-81232125D01*
X98468300Y-81019518D01*
X98467017Y-80933211D01*
X98460986Y-80897177D01*
X97705333Y-80897177D01*
X97639610Y-81177246D01*
X97468119Y-81351790D01*
X97229382Y-81403913D01*
X96961919Y-81316719D01*
X96879833Y-81259270D01*
X96799818Y-81121120D01*
X95852664Y-81121120D01*
X95487832Y-81446156D01*
X95223930Y-81643638D01*
X95041625Y-81693957D01*
X94942013Y-81597335D01*
X94926188Y-81353996D01*
X94928176Y-81332186D01*
X95025325Y-81074189D01*
X95176744Y-80949011D01*
X95352029Y-80872515D01*
X95495418Y-80895719D01*
X95626242Y-80972763D01*
X95852664Y-81121120D01*
X96799818Y-81121120D01*
X96778904Y-81085011D01*
X96788466Y-80860655D01*
X96886167Y-80641113D01*
X97049657Y-80481298D01*
X97216022Y-80433333D01*
X97499955Y-80494338D01*
X97664225Y-80673449D01*
X97705333Y-80897177D01*
X98460986Y-80897177D01*
X98395417Y-80505475D01*
X98201646Y-80155023D01*
X97916068Y-79892904D01*
X97569046Y-79730170D01*
X97190943Y-79677872D01*
X96812125Y-79747059D01*
G36*
X121479903Y-78714564D02*
X121376176Y-78826288D01*
X121307516Y-79025365D01*
X121266995Y-79332124D01*
X121247689Y-79766891D01*
X121242669Y-80349994D01*
X121242666Y-80366946D01*
X121242666Y-81702214D01*
X120868343Y-81416487D01*
X120357331Y-81126572D01*
X119794224Y-80980809D01*
X119215864Y-80982754D01*
X118659096Y-81135962D01*
X118540193Y-81191833D01*
X118153796Y-81477796D01*
X117866248Y-81894336D01*
X117718868Y-82273254D01*
X117680803Y-82482224D01*
X117649579Y-82814676D01*
X117625294Y-83242130D01*
X117608048Y-83736106D01*
X117597937Y-84268123D01*
X117595062Y-84809701D01*
X117599521Y-85332361D01*
X117611413Y-85807622D01*
X117630835Y-86207004D01*
X117657887Y-86502026D01*
X117692668Y-86664208D01*
X117703600Y-86681733D01*
X117855141Y-86753250D01*
X118077854Y-86783330D01*
X118079799Y-86783333D01*
X118244631Y-86773403D01*
X118372018Y-86730820D01*
X118466754Y-86636392D01*
X118533632Y-86470931D01*
X118577444Y-86215245D01*
X118602985Y-85850143D01*
X118615046Y-85356436D01*
X118618423Y-84714933D01*
X118618472Y-84626661D01*
X118622064Y-83925341D01*
X118634818Y-83372562D01*
X118660329Y-82947623D01*
X118702186Y-82629823D01*
X118763983Y-82398461D01*
X118849313Y-82232836D01*
X118961766Y-82112246D01*
X119067696Y-82037912D01*
X119469760Y-81885098D01*
X119895639Y-81883087D01*
X120311513Y-82023459D01*
X120683565Y-82297791D01*
X120840167Y-82479291D01*
X120975850Y-82679907D01*
X121077618Y-82885275D01*
X121150183Y-83123398D01*
X121198256Y-83422281D01*
X121226545Y-83809925D01*
X121239762Y-84314336D01*
X121242666Y-84872128D01*
X121246148Y-85490595D01*
X121260441Y-85960052D01*
X121291316Y-86300746D01*
X121344545Y-86532926D01*
X121425899Y-86676839D01*
X121541149Y-86752733D01*
X121696068Y-86780856D01*
X121787434Y-86783333D01*
X122023815Y-86741855D01*
X122184800Y-86643402D01*
X122213915Y-86579504D01*
X122238437Y-86454720D01*
X122258858Y-86255349D01*
X122275671Y-85967687D01*
X122289366Y-85578030D01*
X122300435Y-85072677D01*
X122309371Y-84437922D01*
X122316666Y-83660065D01*
X122322315Y-82812236D01*
X122327504Y-81874528D01*
X122330141Y-81091948D01*
X122328504Y-80450292D01*
X122320871Y-79935355D01*
X122305519Y-79532934D01*
X122280727Y-79228824D01*
X122244771Y-79008822D01*
X122195930Y-78858724D01*
X122132481Y-78764325D01*
X122052702Y-78711423D01*
X121954870Y-78685812D01*
X121837264Y-78673290D01*
X121820265Y-78671868D01*
X121625624Y-78669867D01*
X121479903Y-78714564D01*
X121479903Y-78714564D01*
G37*
X121479903Y-78714564D02*
X121376176Y-78826288D01*
X121307516Y-79025365D01*
X121266995Y-79332124D01*
X121247689Y-79766891D01*
X121242669Y-80349994D01*
X121242666Y-80366946D01*
X121242666Y-81702214D01*
X120868343Y-81416487D01*
X120357331Y-81126572D01*
X119794224Y-80980809D01*
X119215864Y-80982754D01*
X118659096Y-81135962D01*
X118540193Y-81191833D01*
X118153796Y-81477796D01*
X117866248Y-81894336D01*
X117718868Y-82273254D01*
X117680803Y-82482224D01*
X117649579Y-82814676D01*
X117625294Y-83242130D01*
X117608048Y-83736106D01*
X117597937Y-84268123D01*
X117595062Y-84809701D01*
X117599521Y-85332361D01*
X117611413Y-85807622D01*
X117630835Y-86207004D01*
X117657887Y-86502026D01*
X117692668Y-86664208D01*
X117703600Y-86681733D01*
X117855141Y-86753250D01*
X118077854Y-86783330D01*
X118079799Y-86783333D01*
X118244631Y-86773403D01*
X118372018Y-86730820D01*
X118466754Y-86636392D01*
X118533632Y-86470931D01*
X118577444Y-86215245D01*
X118602985Y-85850143D01*
X118615046Y-85356436D01*
X118618423Y-84714933D01*
X118618472Y-84626661D01*
X118622064Y-83925341D01*
X118634818Y-83372562D01*
X118660329Y-82947623D01*
X118702186Y-82629823D01*
X118763983Y-82398461D01*
X118849313Y-82232836D01*
X118961766Y-82112246D01*
X119067696Y-82037912D01*
X119469760Y-81885098D01*
X119895639Y-81883087D01*
X120311513Y-82023459D01*
X120683565Y-82297791D01*
X120840167Y-82479291D01*
X120975850Y-82679907D01*
X121077618Y-82885275D01*
X121150183Y-83123398D01*
X121198256Y-83422281D01*
X121226545Y-83809925D01*
X121239762Y-84314336D01*
X121242666Y-84872128D01*
X121246148Y-85490595D01*
X121260441Y-85960052D01*
X121291316Y-86300746D01*
X121344545Y-86532926D01*
X121425899Y-86676839D01*
X121541149Y-86752733D01*
X121696068Y-86780856D01*
X121787434Y-86783333D01*
X122023815Y-86741855D01*
X122184800Y-86643402D01*
X122213915Y-86579504D01*
X122238437Y-86454720D01*
X122258858Y-86255349D01*
X122275671Y-85967687D01*
X122289366Y-85578030D01*
X122300435Y-85072677D01*
X122309371Y-84437922D01*
X122316666Y-83660065D01*
X122322315Y-82812236D01*
X122327504Y-81874528D01*
X122330141Y-81091948D01*
X122328504Y-80450292D01*
X122320871Y-79935355D01*
X122305519Y-79532934D01*
X122280727Y-79228824D01*
X122244771Y-79008822D01*
X122195930Y-78858724D01*
X122132481Y-78764325D01*
X122052702Y-78711423D01*
X121954870Y-78685812D01*
X121837264Y-78673290D01*
X121820265Y-78671868D01*
X121625624Y-78669867D01*
X121479903Y-78714564D01*
G36*
X139975186Y-84889890D02*
X139312576Y-85128067D01*
X138694479Y-85508607D01*
X138269677Y-85892723D01*
X137797524Y-86504710D01*
X137475235Y-87167408D01*
X137299065Y-87860270D01*
X137265268Y-88562747D01*
X137370098Y-89254294D01*
X137609811Y-89914362D01*
X137980660Y-90522403D01*
X138478900Y-91057872D01*
X139100785Y-91500220D01*
X139312323Y-91612394D01*
X139614135Y-91752526D01*
X139866902Y-91840573D01*
X140132242Y-91890254D01*
X140471775Y-91915289D01*
X140709323Y-91923437D01*
X141210404Y-91920998D01*
X141618688Y-91886033D01*
X141859000Y-91834244D01*
X142567496Y-91520273D01*
X143176245Y-91090192D01*
X143676198Y-90563786D01*
X144058307Y-89960839D01*
X144313522Y-89301138D01*
X144432794Y-88604465D01*
X144407076Y-87890607D01*
X144227317Y-87179348D01*
X144113026Y-86905912D01*
X143721092Y-86248513D01*
X143228103Y-85708237D01*
X142654856Y-85288689D01*
X142022145Y-84993475D01*
X141350766Y-84826199D01*
X140661515Y-84790469D01*
X139975186Y-84889890D01*
X139975186Y-84889890D01*
G37*
X139975186Y-84889890D02*
X139312576Y-85128067D01*
X138694479Y-85508607D01*
X138269677Y-85892723D01*
X137797524Y-86504710D01*
X137475235Y-87167408D01*
X137299065Y-87860270D01*
X137265268Y-88562747D01*
X137370098Y-89254294D01*
X137609811Y-89914362D01*
X137980660Y-90522403D01*
X138478900Y-91057872D01*
X139100785Y-91500220D01*
X139312323Y-91612394D01*
X139614135Y-91752526D01*
X139866902Y-91840573D01*
X140132242Y-91890254D01*
X140471775Y-91915289D01*
X140709323Y-91923437D01*
X141210404Y-91920998D01*
X141618688Y-91886033D01*
X141859000Y-91834244D01*
X142567496Y-91520273D01*
X143176245Y-91090192D01*
X143676198Y-90563786D01*
X144058307Y-89960839D01*
X144313522Y-89301138D01*
X144432794Y-88604465D01*
X144407076Y-87890607D01*
X144227317Y-87179348D01*
X144113026Y-86905912D01*
X143721092Y-86248513D01*
X143228103Y-85708237D01*
X142654856Y-85288689D01*
X142022145Y-84993475D01*
X141350766Y-84826199D01*
X140661515Y-84790469D01*
X139975186Y-84889890D01*
G36*
X131309670Y-86945271D02*
X130806389Y-87149865D01*
X130353397Y-87462467D01*
X129987934Y-87856491D01*
X129747239Y-88305354D01*
X129724236Y-88375646D01*
X129625212Y-88970187D01*
X129674686Y-89550088D01*
X129859328Y-90089239D01*
X130165810Y-90561533D01*
X130580804Y-90940860D01*
X131090982Y-91201113D01*
X131181502Y-91230240D01*
X131616671Y-91329700D01*
X131998515Y-91336231D01*
X132408548Y-91247713D01*
X132573374Y-91194032D01*
X133100325Y-90929288D01*
X133521859Y-90550384D01*
X133827581Y-90083317D01*
X134007095Y-89554087D01*
X134050007Y-88988691D01*
X133945921Y-88413128D01*
X133815442Y-88087627D01*
X133484544Y-87593994D01*
X133042214Y-87220093D01*
X132507173Y-86977330D01*
X131898143Y-86877117D01*
X131826000Y-86875268D01*
X131309670Y-86945271D01*
X131309670Y-86945271D01*
G37*
X131309670Y-86945271D02*
X130806389Y-87149865D01*
X130353397Y-87462467D01*
X129987934Y-87856491D01*
X129747239Y-88305354D01*
X129724236Y-88375646D01*
X129625212Y-88970187D01*
X129674686Y-89550088D01*
X129859328Y-90089239D01*
X130165810Y-90561533D01*
X130580804Y-90940860D01*
X131090982Y-91201113D01*
X131181502Y-91230240D01*
X131616671Y-91329700D01*
X131998515Y-91336231D01*
X132408548Y-91247713D01*
X132573374Y-91194032D01*
X133100325Y-90929288D01*
X133521859Y-90550384D01*
X133827581Y-90083317D01*
X134007095Y-89554087D01*
X134050007Y-88988691D01*
X133945921Y-88413128D01*
X133815442Y-88087627D01*
X133484544Y-87593994D01*
X133042214Y-87220093D01*
X132507173Y-86977330D01*
X131898143Y-86877117D01*
X131826000Y-86875268D01*
X131309670Y-86945271D01*
G36*
X97872256Y-83027883D02*
X97589563Y-83037025D01*
X97409000Y-83042880D01*
X97125183Y-83064644D01*
X96980039Y-83112422D01*
X96943333Y-83185000D01*
X96975053Y-83249908D01*
X97090201Y-83288980D01*
X97318761Y-83307787D01*
X97626875Y-83312000D01*
X97966317Y-83308105D01*
X98168173Y-83291647D01*
X98264099Y-83255463D01*
X98285757Y-83192393D01*
X98281882Y-83163833D01*
X98183210Y-83042760D01*
X98064007Y-83021714D01*
X97872256Y-83027883D01*
X97872256Y-83027883D01*
G37*
X97872256Y-83027883D02*
X97589563Y-83037025D01*
X97409000Y-83042880D01*
X97125183Y-83064644D01*
X96980039Y-83112422D01*
X96943333Y-83185000D01*
X96975053Y-83249908D01*
X97090201Y-83288980D01*
X97318761Y-83307787D01*
X97626875Y-83312000D01*
X97966317Y-83308105D01*
X98168173Y-83291647D01*
X98264099Y-83255463D01*
X98285757Y-83192393D01*
X98281882Y-83163833D01*
X98183210Y-83042760D01*
X98064007Y-83021714D01*
X97872256Y-83027883D01*
G36*
X97704418Y-82502678D02*
X97399280Y-82569478D01*
X97151785Y-82658400D01*
X97006296Y-82755298D01*
X96985666Y-82802840D01*
X97032986Y-82908622D01*
X97188753Y-82941394D01*
X97473682Y-82903902D01*
X97578333Y-82881435D01*
X97846979Y-82820300D01*
X98075622Y-82767808D01*
X98107500Y-82760416D01*
X98273779Y-82678726D01*
X98296456Y-82575252D01*
X98188251Y-82493305D01*
X98022833Y-82472147D01*
X97704418Y-82502678D01*
X97704418Y-82502678D01*
G37*
X97704418Y-82502678D02*
X97399280Y-82569478D01*
X97151785Y-82658400D01*
X97006296Y-82755298D01*
X96985666Y-82802840D01*
X97032986Y-82908622D01*
X97188753Y-82941394D01*
X97473682Y-82903902D01*
X97578333Y-82881435D01*
X97846979Y-82820300D01*
X98075622Y-82767808D01*
X98107500Y-82760416D01*
X98273779Y-82678726D01*
X98296456Y-82575252D01*
X98188251Y-82493305D01*
X98022833Y-82472147D01*
X97704418Y-82502678D01*
G36*
X96137900Y-82212245D02*
X96028762Y-82392965D01*
X96031282Y-82607274D01*
X96140513Y-82778240D01*
X96175767Y-82801021D01*
X96339950Y-82875265D01*
X96452899Y-82855278D01*
X96597779Y-82726220D01*
X96598383Y-82725616D01*
X96713713Y-82520562D01*
X96686880Y-82321268D01*
X96530072Y-82180114D01*
X96466450Y-82158619D01*
X96259497Y-82158510D01*
X96137900Y-82212245D01*
X96137900Y-82212245D01*
G37*
X96137900Y-82212245D02*
X96028762Y-82392965D01*
X96031282Y-82607274D01*
X96140513Y-82778240D01*
X96175767Y-82801021D01*
X96339950Y-82875265D01*
X96452899Y-82855278D01*
X96597779Y-82726220D01*
X96598383Y-82725616D01*
X96713713Y-82520562D01*
X96686880Y-82321268D01*
X96530072Y-82180114D01*
X96466450Y-82158619D01*
X96259497Y-82158510D01*
X96137900Y-82212245D01*
M02*
