G04 #@! TF.FileFunction,Profile,NP*
%FSLAX46Y46*%
G04 Gerber Fmt 4.6, Leading zero omitted, Abs format (unit mm)*
G04 Created by KiCad (PCBNEW 4.0.7) date Mon May 14 02:01:04 2018*
%MOMM*%
%LPD*%
G01*
G04 APERTURE LIST*
%ADD10C,0.100000*%
%ADD11C,0.150000*%
G04 APERTURE END LIST*
D10*
D11*
X148336000Y-135128000D02*
X147828000Y-135128000D01*
X151384000Y-133096000D02*
X151384000Y-134874000D01*
X147828000Y-102362000D02*
X148590000Y-102362000D01*
X151384000Y-102108000D02*
X151384000Y-100330000D01*
X148082000Y-105156000D02*
X148336000Y-105156000D01*
X147828000Y-105156000D02*
X148082000Y-105156000D01*
X147828000Y-102362000D02*
X147828000Y-105156000D01*
X146812000Y-105156000D02*
X94742000Y-105156000D01*
X146812000Y-102362000D02*
X146812000Y-105156000D01*
X94742000Y-102362000D02*
X146812000Y-102362000D01*
X94742000Y-105156000D02*
X94742000Y-102362000D01*
X93726000Y-105156000D02*
X92964000Y-105156000D01*
X93726000Y-102362000D02*
X93726000Y-105156000D01*
X92964000Y-102362000D02*
X93726000Y-102362000D01*
X176776000Y-106934000D02*
X161544000Y-105918000D01*
X161036000Y-106426000D02*
X151892000Y-115570000D01*
X151892000Y-115570000D02*
X151384000Y-116078000D01*
X175383261Y-116078000D02*
G75*
G03X175383261Y-116078000I-2155261J0D01*
G01*
X161036000Y-106426000D02*
X161544000Y-105918000D01*
X176784000Y-107442000D02*
X176784000Y-106934000D01*
X176784000Y-133858000D02*
X176784000Y-133350000D01*
X151384000Y-116078000D02*
X151384000Y-117094000D01*
X176784000Y-133858000D02*
X151384000Y-134874000D01*
X176784000Y-133350000D02*
X176784000Y-107442000D01*
X92964000Y-105156000D02*
X92964000Y-135128000D01*
X92964000Y-135128000D02*
X147828000Y-135128000D01*
X102601845Y-122174000D02*
G75*
G03X102601845Y-122174000I-2271845J0D01*
G01*
X151384000Y-117094000D02*
X148590000Y-117094000D01*
X148590000Y-117094000D02*
X148590000Y-105410000D01*
X148590000Y-105410000D02*
X148590000Y-105156000D01*
X148590000Y-105156000D02*
X148336000Y-105156000D01*
X148590000Y-118364000D02*
X151384000Y-118364000D01*
X151384000Y-118364000D02*
X151384000Y-131826000D01*
X148590000Y-118364000D02*
X148590000Y-131826000D01*
X148590000Y-131826000D02*
X151384000Y-131826000D01*
X148336000Y-135128000D02*
X148590000Y-135128000D01*
X148590000Y-135128000D02*
X148590000Y-133096000D01*
X148590000Y-133096000D02*
X151384000Y-133096000D01*
X148590000Y-100330000D02*
X151384000Y-100330000D01*
X148590000Y-102362000D02*
X148590000Y-100330000D01*
X148590000Y-99060000D02*
X151384000Y-99060000D01*
X148590000Y-85598000D02*
X148590000Y-99060000D01*
X151384000Y-85598000D02*
X151384000Y-99060000D01*
X148590000Y-85598000D02*
X151384000Y-85598000D01*
X148590000Y-72390000D02*
X148336000Y-72390000D01*
X148590000Y-72644000D02*
X148590000Y-72390000D01*
X148590000Y-84328000D02*
X148590000Y-72644000D01*
X151384000Y-84328000D02*
X148590000Y-84328000D01*
X102601845Y-89408000D02*
G75*
G03X102601845Y-89408000I-2271845J0D01*
G01*
X92964000Y-72390000D02*
X92964000Y-102362000D01*
X148336000Y-72390000D02*
X92964000Y-72390000D01*
X176784000Y-100584000D02*
X176784000Y-74676000D01*
X176784000Y-101092000D02*
X151384000Y-102108000D01*
X151384000Y-83312000D02*
X151384000Y-84328000D01*
X176784000Y-101092000D02*
X176784000Y-100584000D01*
X176784000Y-74676000D02*
X176784000Y-74168000D01*
X161036000Y-73660000D02*
X161544000Y-73152000D01*
X175383261Y-83312000D02*
G75*
G03X175383261Y-83312000I-2155261J0D01*
G01*
X151892000Y-82804000D02*
X151384000Y-83312000D01*
X161036000Y-73660000D02*
X151892000Y-82804000D01*
X176776000Y-74168000D02*
X161544000Y-73152000D01*
M02*
